  0
SECTION
  2
HEADER
  9
$ACADVER
  1
AC1032
  9
$ACADMAINTVER
 90
4
  9
$DWGCODEPAGE
  3
ANSI_1252
  9
$LASTSAVEDBY
  1
ezdxf
  9
$REQUIREDVERSIONS
160
0
  9
$INSBASE
 10
0.0
 20
0.0
 30
0.0
  9
$EXTMIN
 10
1e+20
 20
1e+20
 30
1e+20
  9
$EXTMAX
 10
-1e+20
 20
-1e+20
 30
-1e+20
  9
$LIMMIN
 10
0.0
 20
0.0
  9
$LIMMAX
 10
420.0
 20
297.0
  9
$ORTHOMODE
 70
0
  9
$REGENMODE
 70
1
  9
$FILLMODE
 70
1
  9
$QTEXTMODE
 70
0
  9
$MIRRTEXT
 70
1
  9
$LTSCALE
 40
1.0
  9
$ATTMODE
 70
1
  9
$TEXTSIZE
 40
2.5
  9
$TRACEWID
 40
1.0
  9
$TEXTSTYLE
  7
Standard
  9
$CLAYER
  8
0
  9
$CELTYPE
  6
ByLayer
  9
$CECOLOR
 62
256
  9
$CELTSCALE
 40
1.0
  9
$DISPSILH
 70
0
  9
$DIMSCALE
 40
1.0
  9
$DIMASZ
 40
2.5
  9
$DIMEXO
 40
0.625
  9
$DIMDLI
 40
3.75
  9
$DIMRND
 40
0.0
  9
$DIMDLE
 40
0.0
  9
$DIMEXE
 40
1.25
  9
$DIMTP
 40
0.0
  9
$DIMTM
 40
0.0
  9
$DIMTXT
 40
2.5
  9
$DIMCEN
 40
2.5
  9
$DIMTSZ
 40
0.0
  9
$DIMTOL
 70
0
  9
$DIMLIM
 70
0
  9
$DIMTIH
 70
0
  9
$DIMTOH
 70
0
  9
$DIMSE1
 70
0
  9
$DIMSE2
 70
0
  9
$DIMTAD
 70
1
  9
$DIMZIN
 70
8
  9
$DIMBLK
  1

  9
$DIMASO
 70
1
  9
$DIMSHO
 70
1
  9
$DIMPOST
  1

  9
$DIMAPOST
  1

  9
$DIMALT
 70
0
  9
$DIMALTD
 70
3
  9
$DIMALTF
 40
0.03937007874
  9
$DIMLFAC
 40
1.0
  9
$DIMTOFL
 70
1
  9
$DIMTVP
 40
0.0
  9
$DIMTIX
 70
0
  9
$DIMSOXD
 70
0
  9
$DIMSAH
 70
0
  9
$DIMBLK1
  1

  9
$DIMBLK2
  1

  9
$DIMSTYLE
  2
ISO-25
  9
$DIMCLRD
 70
0
  9
$DIMCLRE
 70
0
  9
$DIMCLRT
 70
0
  9
$DIMTFAC
 40
1.0
  9
$DIMGAP
 40
0.625
  9
$DIMJUST
 70
0
  9
$DIMSD1
 70
0
  9
$DIMSD2
 70
0
  9
$DIMTOLJ
 70
0
  9
$DIMTZIN
 70
8
  9
$DIMALTZ
 70
0
  9
$DIMALTTZ
 70
0
  9
$DIMUPT
 70
0
  9
$DIMDEC
 70
2
  9
$DIMTDEC
 70
2
  9
$DIMALTU
 70
2
  9
$DIMALTTD
 70
3
  9
$DIMTXSTY
  7
Standard
  9
$DIMAUNIT
 70
0
  9
$DIMADEC
 70
0
  9
$DIMALTRND
 40
0.0
  9
$DIMAZIN
 70
0
  9
$DIMDSEP
 70
44
  9
$DIMATFIT
 70
3
  9
$DIMFRAC
 70
0
  9
$DIMLDRBLK
  1

  9
$DIMLUNIT
 70
2
  9
$DIMLWD
 70
-2
  9
$DIMLWE
 70
-2
  9
$DIMTMOVE
 70
0
  9
$DIMFXL
 40
1.0
  9
$DIMFXLON
 70
0
  9
$DIMJOGANG
 40
0.785398163397
  9
$DIMTFILL
 70
0
  9
$DIMTFILLCLR
 70
0
  9
$DIMARCSYM
 70
0
  9
$DIMLTYPE
  6

  9
$DIMLTEX1
  6

  9
$DIMLTEX2
  6

  9
$DIMTXTDIRECTION
 70
0
  9
$LUNITS
 70
2
  9
$LUPREC
 70
4
  9
$SKETCHINC
 40
1.0
  9
$FILLETRAD
 40
10.0
  9
$AUNITS
 70
0
  9
$AUPREC
 70
2
  9
$MENU
  1
.
  9
$ELEVATION
 40
0.0
  9
$PELEVATION
 40
0.0
  9
$THICKNESS
 40
0.0
  9
$LIMCHECK
 70
0
  9
$CHAMFERA
 40
0.0
  9
$CHAMFERB
 40
0.0
  9
$CHAMFERC
 40
0.0
  9
$CHAMFERD
 40
0.0
  9
$SKPOLY
 70
0
  9
$TDCREATE
 40
2461082.748472222
  9
$TDUCREATE
 40
2458532.153996898
  9
$TDUPDATE
 40
2461082.74849537
  9
$TDUUPDATE
 40
2458532.1544311
  9
$TDINDWG
 40
0.0
  9
$TDUSRTIMER
 40
0.0
  9
$USRTIMER
 70
1
  9
$ANGBASE
 50
0.0
  9
$ANGDIR
 70
0
  9
$PDMODE
 70
0
  9
$PDSIZE
 40
0.0
  9
$PLINEWID
 40
0.0
  9
$SPLFRAME
 70
0
  9
$SPLINETYPE
 70
6
  9
$SPLINESEGS
 70
8
  9
$HANDSEED
  5
1FE
  9
$SURFTAB1
 70
6
  9
$SURFTAB2
 70
6
  9
$SURFTYPE
 70
6
  9
$SURFU
 70
6
  9
$SURFV
 70
6
  9
$UCSBASE
  2

  9
$UCSNAME
  2

  9
$UCSORG
 10
0.0
 20
0.0
 30
0.0
  9
$UCSXDIR
 10
1.0
 20
0.0
 30
0.0
  9
$UCSYDIR
 10
0.0
 20
1.0
 30
0.0
  9
$UCSORTHOREF
  2

  9
$UCSORTHOVIEW
 70
0
  9
$UCSORGTOP
 10
0.0
 20
0.0
 30
0.0
  9
$UCSORGBOTTOM
 10
0.0
 20
0.0
 30
0.0
  9
$UCSORGLEFT
 10
0.0
 20
0.0
 30
0.0
  9
$UCSORGRIGHT
 10
0.0
 20
0.0
 30
0.0
  9
$UCSORGFRONT
 10
0.0
 20
0.0
 30
0.0
  9
$UCSORGBACK
 10
0.0
 20
0.0
 30
0.0
  9
$PUCSBASE
  2

  9
$PUCSNAME
  2

  9
$PUCSORG
 10
0.0
 20
0.0
 30
0.0
  9
$PUCSXDIR
 10
1.0
 20
0.0
 30
0.0
  9
$PUCSYDIR
 10
0.0
 20
1.0
 30
0.0
  9
$PUCSORTHOREF
  2

  9
$PUCSORTHOVIEW
 70
0
  9
$PUCSORGTOP
 10
0.0
 20
0.0
 30
0.0
  9
$PUCSORGBOTTOM
 10
0.0
 20
0.0
 30
0.0
  9
$PUCSORGLEFT
 10
0.0
 20
0.0
 30
0.0
  9
$PUCSORGRIGHT
 10
0.0
 20
0.0
 30
0.0
  9
$PUCSORGFRONT
 10
0.0
 20
0.0
 30
0.0
  9
$PUCSORGBACK
 10
0.0
 20
0.0
 30
0.0
  9
$USERI1
 70
0
  9
$USERI2
 70
0
  9
$USERI3
 70
0
  9
$USERI4
 70
0
  9
$USERI5
 70
0
  9
$USERR1
 40
0.0
  9
$USERR2
 40
0.0
  9
$USERR3
 40
0.0
  9
$USERR4
 40
0.0
  9
$USERR5
 40
0.0
  9
$WORLDVIEW
 70
1
  9
$SHADEDGE
 70
3
  9
$SHADEDIF
 70
70
  9
$TILEMODE
 70
1
  9
$MAXACTVP
 70
64
  9
$PINSBASE
 10
0.0
 20
0.0
 30
0.0
  9
$PLIMCHECK
 70
0
  9
$PEXTMIN
 10
1e+20
 20
1e+20
 30
1e+20
  9
$PEXTMAX
 10
-1e+20
 20
-1e+20
 30
-1e+20
  9
$PLIMMIN
 10
0.0
 20
0.0
  9
$PLIMMAX
 10
420.0
 20
297.0
  9
$UNITMODE
 70
0
  9
$VISRETAIN
 70
1
  9
$PLINEGEN
 70
0
  9
$PSLTSCALE
 70
1
  9
$TREEDEPTH
 70
3020
  9
$CMLSTYLE
  2
Standard
  9
$CMLJUST
 70
0
  9
$CMLSCALE
 40
20.0
  9
$PROXYGRAPHICS
 70
1
  9
$MEASUREMENT
 70
1
  9
$CELWEIGHT
370
-1
  9
$ENDCAPS
280
0
  9
$JOINSTYLE
280
0
  9
$LWDISPLAY
290
0
  9
$INSUNITS
 70
6
  9
$HYPERLINKBASE
  1

  9
$STYLESHEET
  1

  9
$XEDIT
290
1
  9
$CEPSNTYPE
380
0
  9
$PSTYLEMODE
290
1
  9
$FINGERPRINTGUID
  2
{3C0CEC83-8A57-4CB2-B6CE-F3CFFC643DD7}
  9
$VERSIONGUID
  2
{1DB2BBCA-DE1E-4F76-9BA9-C6046C34F319}
  9
$EXTNAMES
290
1
  9
$PSVPSCALE
 40
0.0
  9
$OLESTARTUP
290
0
  9
$SORTENTS
280
127
  9
$INDEXCTL
280
0
  9
$HIDETEXT
280
1
  9
$XCLIPFRAME
280
1
  9
$HALOGAP
280
0
  9
$OBSCOLOR
 70
257
  9
$OBSLTYPE
280
0
  9
$INTERSECTIONDISPLAY
280
0
  9
$INTERSECTIONCOLOR
 70
257
  9
$DIMASSOC
280
2
  9
$PROJECTNAME
  1

  9
$CAMERADISPLAY
290
0
  9
$LENSLENGTH
 40
50.0
  9
$CAMERAHEIGHT
 40
0.0
  9
$STEPSPERSEC
 40
24.0
  9
$STEPSIZE
 40
100.0
  9
$3DDWFPREC
 40
2.0
  9
$PSOLWIDTH
 40
0.005
  9
$PSOLHEIGHT
 40
0.08
  9
$LOFTANG1
 40
1.570796326795
  9
$LOFTANG2
 40
1.570796326795
  9
$LOFTMAG1
 40
0.0
  9
$LOFTMAG2
 40
0.0
  9
$LOFTPARAM
 70
7
  9
$LOFTNORMALS
280
1
  9
$LATITUDE
 40
37.795
  9
$LONGITUDE
 40
-122.394
  9
$NORTHDIRECTION
 40
0.0
  9
$TIMEZONE
 70
-8000
  9
$LIGHTGLYPHDISPLAY
280
1
  9
$TILEMODELIGHTSYNCH
280
1
  9
$CMATERIAL
347
20
  9
$SOLIDHIST
280
0
  9
$SHOWHIST
280
1
  9
$DWFFRAME
280
2
  9
$DGNFRAME
280
2
  9
$REALWORLDSCALE
290
1
  9
$INTERFERECOLOR
 62
256
  9
$CSHADOW
280
0
  9
$SHADOWPLANELOCATION
 40
0.0
  0
ENDSEC
  0
SECTION
  2
CLASSES
  0
CLASS
  1
ACDBDICTIONARYWDFLT
  2
AcDbDictionaryWithDefault
  3
ObjectDBX Classes
 90
0
 91
0
280
0
281
0
  0
CLASS
  1
SUN
  2
AcDbSun
  3
SCENEOE
 90
1153
 91
0
280
0
281
0
  0
CLASS
  1
VISUALSTYLE
  2
AcDbVisualStyle
  3
ObjectDBX Classes
 90
4095
 91
0
280
0
281
0
  0
CLASS
  1
MATERIAL
  2
AcDbMaterial
  3
ObjectDBX Classes
 90
1153
 91
0
280
0
281
0
  0
CLASS
  1
SCALE
  2
AcDbScale
  3
ObjectDBX Classes
 90
1153
 91
0
280
0
281
0
  0
CLASS
  1
TABLESTYLE
  2
AcDbTableStyle
  3
ObjectDBX Classes
 90
4095
 91
0
280
0
281
0
  0
CLASS
  1
MLEADERSTYLE
  2
AcDbMLeaderStyle
  3
ACDB_MLEADERSTYLE_CLASS
 90
4095
 91
0
280
0
281
0
  0
CLASS
  1
DICTIONARYVAR
  2
AcDbDictionaryVar
  3
ObjectDBX Classes
 90
0
 91
0
280
0
281
0
  0
CLASS
  1
CELLSTYLEMAP
  2
AcDbCellStyleMap
  3
ObjectDBX Classes
 90
1152
 91
0
280
0
281
0
  0
CLASS
  1
MENTALRAYRENDERSETTINGS
  2
AcDbMentalRayRenderSettings
  3
SCENEOE
 90
1024
 91
0
280
0
281
0
  0
CLASS
  1
ACDBDETAILVIEWSTYLE
  2
AcDbDetailViewStyle
  3
ObjectDBX Classes
 90
1025
 91
0
280
0
281
0
  0
CLASS
  1
ACDBSECTIONVIEWSTYLE
  2
AcDbSectionViewStyle
  3
ObjectDBX Classes
 90
1025
 91
0
280
0
281
0
  0
CLASS
  1
RASTERVARIABLES
  2
AcDbRasterVariables
  3
ISM
 90
0
 91
0
280
0
281
0
  0
CLASS
  1
ACDBPLACEHOLDER
  2
AcDbPlaceHolder
  3
ObjectDBX Classes
 90
0
 91
0
280
0
281
0
  0
CLASS
  1
LAYOUT
  2
AcDbLayout
  3
ObjectDBX Classes
 90
0
 91
0
280
0
281
0
  0
ENDSEC
  0
SECTION
  2
TABLES
  0
TABLE
  2
VPORT
  5
8
330
0
100
AcDbSymbolTable
 70
1
  0
VPORT
  5
23
330
8
100
AcDbSymbolTableRecord
100
AcDbViewportTableRecord
  2
*Active
 70
0
 10
0.0
 20
0.0
 11
1.0
 21
1.0
 12
0.0
 22
0.0
 13
0.0
 23
0.0
 14
0.5
 24
0.5
 15
0.5
 25
0.5
 16
0.0
 26
0.0
 36
1.0
 17
0.0
 27
0.0
 37
0.0
 40
1000.0
 41
1.34
 42
50.0
 43
0.0
 44
0.0
 50
0.0
 51
0.0
 71
0
 72
1000
 73
1
 74
3
 75
0
 76
0
 77
0
 78
0
281
0
 65
0
146
0.0
  0
ENDTAB
  0
TABLE
  2
LTYPE
  5
2
330
0
100
AcDbSymbolTable
 70
3
  0
LTYPE
  5
24
330
2
100
AcDbSymbolTableRecord
100
AcDbLinetypeTableRecord
  2
ByBlock
 70
0
  3

 72
65
 73
0
 40
0.0
  0
LTYPE
  5
25
330
2
100
AcDbSymbolTableRecord
100
AcDbLinetypeTableRecord
  2
ByLayer
 70
0
  3

 72
65
 73
0
 40
0.0
  0
LTYPE
  5
26
330
2
100
AcDbSymbolTableRecord
100
AcDbLinetypeTableRecord
  2
Continuous
 70
0
  3

 72
65
 73
0
 40
0.0
  0
ENDTAB
  0
TABLE
  2
LAYER
  5
1
330
0
100
AcDbSymbolTable
 70
2
  0
LAYER
  5
27
330
1
100
AcDbSymbolTableRecord
100
AcDbLayerTableRecord
  2
0
 70
0
 62
7
  6
Continuous
370
-3
390
13
347
21
  0
LAYER
  5
28
330
1
100
AcDbSymbolTableRecord
100
AcDbLayerTableRecord
  2
Defpoints
 70
0
 62
7
  6
Continuous
290
0
370
-3
390
13
347
21
  0
ENDTAB
  0
TABLE
  2
STYLE
  5
5
330
0
100
AcDbSymbolTable
 70
1
  0
STYLE
  5
29
330
5
100
AcDbSymbolTableRecord
100
AcDbTextStyleTableRecord
  2
Standard
 70
0
 40
0.0
 41
1.0
 50
0.0
 71
0
 42
2.5
  3
txt
  4

  0
ENDTAB
  0
TABLE
  2
VIEW
  5
7
330
0
100
AcDbSymbolTable
 70
0
  0
ENDTAB
  0
TABLE
  2
UCS
  5
6
330
0
100
AcDbSymbolTable
 70
0
  0
ENDTAB
  0
TABLE
  2
APPID
  5
3
330
0
100
AcDbSymbolTable
 70
3
  0
APPID
  5
2A
330
3
100
AcDbSymbolTableRecord
100
AcDbRegAppTableRecord
  2
ACAD
 70
0
  0
APPID
  5
1FB
330
3
100
AcDbSymbolTableRecord
100
AcDbRegAppTableRecord
  2
HATCHBACKGROUNDCOLOR
 70
0
  0
APPID
  5
1FC
330
3
100
AcDbSymbolTableRecord
100
AcDbRegAppTableRecord
  2
EZDXF
 70
0
  0
ENDTAB
  0
TABLE
  2
DIMSTYLE
  5
4
330
0
100
AcDbSymbolTable
 70
1
100
AcDbDimStyleTable
  0
DIMSTYLE
105
2B
330
4
100
AcDbSymbolTableRecord
100
AcDbDimStyleTableRecord
  2
Standard
 70
0
 40
1.0
 41
2.5
 42
0.625
 43
3.75
 44
1.25
 45
0.0
 46
0.0
 47
0.0
 48
0.0
 49
2.5
140
2.5
141
2.5
142
0.0
143
0.03937007874
144
1.0
145
0.0
146
1.0
147
0.625
148
0.0
 69
0
 70
0
 71
0
 72
0
 73
0
 74
0
 75
0
 76
0
 77
1
 78
8
 79
3
170
0
171
3
172
1
173
0
174
0
175
0
176
0
177
0
178
0
179
2
271
2
272
2
273
2
274
3
275
0
276
0
277
2
278
44
279
0
280
0
281
0
282
0
283
0
284
8
285
0
286
0
288
0
289
3
290
0
371
-2
372
-2
  0
ENDTAB
  0
TABLE
  2
BLOCK_RECORD
  5
9
330
0
100
AcDbSymbolTable
 70
2
  0
BLOCK_RECORD
  5
17
330
9
100
AcDbSymbolTableRecord
100
AcDbBlockTableRecord
  2
*Model_Space
340
1A
 70
0
280
1
281
0
  0
BLOCK_RECORD
  5
1B
330
9
100
AcDbSymbolTableRecord
100
AcDbBlockTableRecord
  2
*Paper_Space
340
1E
 70
0
280
1
281
0
  0
ENDTAB
  0
ENDSEC
  0
SECTION
  2
BLOCKS
  0
BLOCK
  5
18
330
17
100
AcDbEntity
  8
0
100
AcDbBlockBegin
  2
*Model_Space
 70
0
 10
0.0
 20
0.0
 30
0.0
  3
*Model_Space
  1

  0
ENDBLK
  5
19
330
17
100
AcDbEntity
  8
0
100
AcDbBlockEnd
  0
BLOCK
  5
1C
330
1B
100
AcDbEntity
  8
0
100
AcDbBlockBegin
  2
*Paper_Space
 70
0
 10
0.0
 20
0.0
 30
0.0
  3
*Paper_Space
  1

  0
ENDBLK
  5
1D
330
1B
100
AcDbEntity
  8
0
100
AcDbBlockEnd
  0
ENDSEC
  0
SECTION
  2
ENTITIES
  0
LINE
  5
2F
330
17
100
AcDbEntity
  8
PDIM
100
AcDbLine
 10
112073.4461888972
 20
839307.2119659464
 30
0.0
 11
112073.4461888967
 21
808825.2740797432
 31
0.0
  0
LINE
  5
30
330
17
100
AcDbEntity
  8
PDIM
100
AcDbLine
 10
112073.4461888967
 20
850614.6898140217
 30
0.0
 11
112073.4461888972
 21
837292.8706724526
 31
0.0
  0
LINE
  5
31
330
17
100
AcDbEntity
  8
PDIM
100
AcDbLine
 10
104589.5798822691
 20
849214.6898140217
 30
0.0
 11
112073.4461888958
 21
849214.6898140217
 31
0.0
  0
LINE
  5
32
330
17
100
AcDbEntity
  8
PDIM
100
AcDbLine
 10
105895.0361314013
 20
848514.6898140217
 30
0.0
 11
112073.4461888958
 21
848514.6898140217
 31
0.0
  0
LINE
  5
33
330
17
100
AcDbEntity
  8
PDIM
100
AcDbLine
 10
105895.0361314018
 20
846414.6898140217
 30
0.0
 11
112073.4461888958
 21
846414.6898140217
 31
0.0
  0
LINE
  5
34
330
17
100
AcDbEntity
  8
PDIM
100
AcDbLine
 10
105895.0361314013
 20
850614.6898140217
 30
0.0
 11
105895.0361314023
 21
844985.9530162419
 31
0.0
  0
LINE
  5
35
330
17
100
AcDbEntity
  8
PDIM
100
AcDbLine
 10
106940.3246018736
 20
850614.6898140217
 30
0.0
 11
106940.3246018736
 21
844985.9530162419
 31
0.0
  0
LINE
  5
36
330
17
100
AcDbEntity
  8
PDIM
100
AcDbLine
 10
105895.0361314013
 20
847814.6898140217
 30
0.0
 11
112073.4461888958
 21
847814.6898140217
 31
0.0
  0
LINE
  5
37
330
17
100
AcDbEntity
  8
PDIM
100
AcDbLine
 10
105895.0361314018
 20
847114.6898140217
 30
0.0
 11
112073.4461888958
 21
847114.6898140217
 31
0.0
  0
TEXT
  5
38
330
17
100
AcDbEntity
  8
0
 48
99.0
100
AcDbText
 10
106172.5707062672
 20
850121.633405621
 30
0.0
 40
350.0
  1
编号
 41
0.7
100
AcDbText
  0
TEXT
  5
39
330
17
100
AcDbEntity
  8
0
 48
99.0
100
AcDbText
 10
104595.4136059082
 20
850121.633405621
 30
0.0
 40
350.0
  1
钢平台名称
 41
0.7
100
AcDbText
  0
TEXT
  5
3A
330
17
100
AcDbEntity
  8
0
 48
99.0
100
AcDbText
 10
107643.3204910437
 20
850090.9342278772
 30
0.0
 40
350.0
  1
截面（规格）
 41
0.7
100
AcDbText
  0
TEXT
  5
3B
330
17
100
AcDbEntity
  8
0
 48
99.0
100
AcDbText
 10
111036.3337276366
 20
850121.633405621
 30
0.0
 40
350.0
  1
备注
 41
0.7
100
AcDbText
  0
TEXT
  5
3C
330
17
100
AcDbEntity
  8
0
100
AcDbText
 10
104886.3734211305
 20
847632.026502421
 30
0.0
 40
300.0
  1
SPD01
 41
0.7
100
AcDbText
  0
LINE
  5
3D
330
17
100
AcDbEntity
  8
PDIM
100
AcDbLine
 10
110549.4063912582
 20
850614.6898140217
 30
0.0
 11
110549.4063912577
 21
844985.9530162419
 31
0.0
  0
TEXT
  5
3E
330
17
100
AcDbEntity
  8
0
100
AcDbText
 10
107175.9844128464
 20
848655.09066887
 30
0.0
 40
300.0
  1
HM148x100x6x9
 41
0.7
100
AcDbText
  0
LINE
  5
3F
330
17
100
AcDbEntity
  8
PDIM
100
AcDbLine
 10
104589.5798822691
 20
844985.9530162419
 30
0.0
 11
104589.5798822695
 21
850614.6898140217
 31
0.0
  0
LINE
  5
40
330
17
100
AcDbEntity
  8
PDIM
100
AcDbLine
 10
112073.4461888967
 20
839307.2119659464
 30
0.0
 11
112073.4461888967
 21
819007.2119659464
 31
0.0
  0
LINE
  5
41
330
17
100
AcDbEntity
  8
0
 62
1
100
AcDbLine
 10
112073.4461888972
 20
843370.0439063146
 30
0.0
 11
126887.870341271
 21
843370.0439063146
 31
0.0
  0
LINE
  5
42
330
17
100
AcDbEntity
  8
0
 62
1
100
AcDbLine
 10
112607.7301450556
 20
830205.1673770979
 30
0.0
 11
127422.1542974303
 21
830205.1673770979
 31
0.0
  0
TEXT
  5
43
330
17
100
AcDbEntity
  8
C77(文本)
100
AcDbText
 10
112432.1525924884
 20
818949.758146278
 30
0.0
 40
350.0
  1
 Notes (unless otherwise specified):   
 41
0.7
100
AcDbText
  0
TEXT
  5
44
330
17
100
AcDbEntity
  8
C77(文本)
100
AcDbText
 10
112595.2247791633
 20
818209.4589127948
 30
0.0
 40
350.0
  1
1.Related construction drawings:  
 41
0.7
100
AcDbText
  0
TEXT
  5
45
330
17
100
AcDbEntity
  8
0
100
AcDbText
 10
106360.9908404997
 20
848794.0536623992
 30
0.0
 40
180.0
  1
1
 41
0.7
 72
2
 11
106404.606225115
 21
848974.0536623992
 31
0.0
100
AcDbText
 73
3
  0
CIRCLE
  5
46
330
17
100
AcDbEntity
  8
0
100
AcDbCircle
 10
106398.6838224901
 20
848880.619358953
 30
0.0
 40
157.5471947188817
  0
TEXT
  5
47
330
17
100
AcDbEntity
  8
0
100
AcDbText
 10
106336.7600712689
 20
848094.0536623992
 30
0.0
 40
180.0
  1
2
 41
0.7
 72
2
 11
106404.606225115
 21
848274.0536623992
 31
0.0
100
AcDbText
 73
3
  0
CIRCLE
  5
48
330
17
100
AcDbEntity
  8
0
100
AcDbCircle
 10
106398.6838224901
 20
848180.6193589534
 30
0.0
 40
157.5471947188817
  0
TEXT
  5
49
330
17
100
AcDbEntity
  8
0
100
AcDbText
 10
106358.5225554869
 20
847390.9465140564
 30
0.0
 40
180.0
  1
3
 41
0.7
 72
2
 11
106426.368709333
 21
847570.9465140564
 31
0.0
100
AcDbText
 73
3
  0
CIRCLE
  5
4A
330
17
100
AcDbEntity
  8
0
100
AcDbCircle
 10
106398.6838224905
 20
847480.619358953
 30
0.0
 40
157.5471947188817
  0
TEXT
  5
4B
330
17
100
AcDbEntity
  8
0
100
AcDbText
 10
110906.2056053027
 20
848737.0883793448
 30
0.0
 40
300.0
  1
Q235B
 41
0.7
100
AcDbText
  0
TEXT
  5
4C
330
17
100
AcDbEntity
  8
0
100
AcDbText
 10
110906.2056053027
 20
848125.5056939455
 30
0.0
 40
300.0
  1
Q235B
 41
0.7
100
AcDbText
  0
TEXT
  5
4D
330
17
100
AcDbEntity
  8
0
100
AcDbText
 10
107175.9844128464
 20
848043.5079834702
 30
0.0
 40
300.0
  1
HW200x200x8x12
 41
0.7
100
AcDbText
  0
TEXT
  5
4E
330
17
100
AcDbEntity
  8
0
100
AcDbText
 10
110906.2056053027
 20
847359.0938249336
 30
0.0
 40
300.0
  1
Q235B
 41
0.7
100
AcDbText
  0
TEXT
  5
4F
330
17
100
AcDbEntity
  8
0
100
AcDbText
 10
110906.2056053027
 20
846637.0883793453
 30
0.0
 40
300.0
  1
Q235B
 41
0.7
100
AcDbText
  0
TEXT
  5
50
330
17
100
AcDbEntity
  8
0
100
AcDbText
 10
106353.6764016407
 20
846690.9465140564
 30
0.0
 40
180.0
  1
4
 41
0.7
 72
2
 11
106426.368709333
 21
846870.9465140564
 31
0.0
100
AcDbText
 73
3
  0
CIRCLE
  5
51
330
17
100
AcDbEntity
  8
0
100
AcDbCircle
 10
106398.6838224905
 20
846780.619358953
 30
0.0
 40
157.5471947188817
  0
TEXT
  5
52
330
17
100
AcDbEntity
  8
0
100
AcDbText
 10
110906.2056053027
 20
845937.0883793457
 30
0.0
 40
300.0
  1
Q235B
 41
0.7
100
AcDbText
  0
TEXT
  5
53
330
17
100
AcDbEntity
  8
0
100
AcDbText
 10
107214.1769691639
 20
847338.7605468788
 30
0.0
 40
300.0
  1
L50X6
 41
0.7
100
AcDbText
  0
TEXT
  5
54
330
17
100
AcDbEntity
  8
0
100
AcDbText
 10
106358.5225554869
 20
845990.9465140569
 30
0.0
 40
180.0
  1
5
 41
0.7
 72
2
 11
106426.368709333
 21
846170.9465140569
 31
0.0
100
AcDbText
 73
3
  0
CIRCLE
  5
55
330
17
100
AcDbEntity
  8
0
100
AcDbCircle
 10
106398.6838224905
 20
846080.6193589534
 30
0.0
 40
157.5471947188817
  0
LINE
  5
56
330
17
100
AcDbEntity
  8
0
100
AcDbLine
 10
107327.7162473246
 20
846576.2186283477
 30
0.0
 11
107464.7901892623
 21
846576.2186283477
 31
0.0
  0
LINE
  5
57
330
17
100
AcDbEntity
  8
0
100
AcDbLine
 10
107327.7162473246
 20
846900.4817020706
 30
0.0
 11
107327.7162473246
 21
846576.2186283477
 31
0.0
  0
LINE
  5
58
330
17
100
AcDbEntity
  8
0
100
AcDbLine
 10
107464.7901892632
 20
846900.4817020706
 30
0.0
 11
107327.7162473246
 21
846900.4817020706
 31
0.0
  0
TEXT
  5
59
330
17
100
AcDbEntity
  8
0
100
AcDbText
 10
107477.9127711428
 20
846569.1038087261
 30
0.0
 40
300.0
  1
25b
 41
0.7
100
AcDbText
  0
LINE
  5
5A
330
17
100
AcDbEntity
  8
PDIM
100
AcDbLine
 10
105895.0361314023
 20
845677.1196529338
 30
0.0
 11
112073.4461888958
 21
845677.1196529338
 31
0.0
  0
TEXT
  5
5B
330
17
100
AcDbEntity
  8
0
 62
0
100
AcDbText
 10
76337.33165329674
 20
767764.6898143495
 30
0.0
 40
499.999999998
  1
5
 41
0.7
100
AcDbText
  0
TEXT
  5
5C
330
17
100
AcDbEntity
  8
0
 62
0
100
AcDbText
 10
90761.33165320734
 20
850864.6898140217
 30
0.0
 40
499.999999998
  1
6
 41
0.7
100
AcDbText
  0
TEXT
  5
5D
330
17
100
AcDbEntity
  8
0
 62
0
100
AcDbText
 10
10873.31603443602
 20
793920.2211539651
 30
0.0
 40
499.999999998
  1
F
 41
0.7
100
AcDbText
  0
LWPOLYLINE
  5
5E
330
17
100
AcDbEntity
  8
0
 62
4
100
AcDbPolyline
 90
2
 70
0
 10
10487.87034171799
 20
789377.2741457428
 10
10487.87034171799
 20
851614.6898140217
  0
LWPOLYLINE
  5
5F
330
17
100
AcDbEntity
  8
0
 62
4
100
AcDbPolyline
 90
2
 70
128
 10
8987.870341717993
 20
767514.6898143495
 10
8987.870341717993
 20
851614.6898140217
  0
LWPOLYLINE
  5
60
330
17
100
AcDbEntity
  8
0
 62
4
100
AcDbPolyline
 90
2
 70
128
 10
127887.870341271
 20
851614.6898140217
 10
127887.870341271
 20
767514.6898143495
  0
LWPOLYLINE
  5
61
330
17
100
AcDbEntity
  8
0
100
AcDbPolyline
 90
2
 70
128
 10
10487.87034171799
 20
768514.6898143495
 10
11487.87034171799
 20
768514.6898143495
  0
LWPOLYLINE
  5
62
330
17
100
AcDbEntity
  8
0
 62
4
100
AcDbPolyline
 90
2
 70
128
 10
127887.870341271
 20
767514.6898143495
 10
8987.870341717993
 20
767514.6898143495
  0
LWPOLYLINE
  5
63
330
17
100
AcDbEntity
  8
0
100
AcDbPolyline
 90
2
 70
0
 10
10487.87034171799
 20
767514.6898143495
 10
10487.87034171799
 20
777477.2741458024
  0
LWPOLYLINE
  5
64
330
17
100
AcDbEntity
  8
0
100
AcDbPolyline
 90
2
 70
128
 10
11487.87034171799
 20
767514.6898143495
 10
11487.87034171799
 20
768514.6898143495
  0
LWPOLYLINE
  5
65
330
17
100
AcDbEntity
  8
0
100
AcDbPolyline
 90
2
 70
128
 10
69183.87034147957
 20
767514.6898143495
 10
69183.87034147957
 20
768514.6898143495
  0
LWPOLYLINE
  5
66
330
17
100
AcDbEntity
  8
0
100
AcDbPolyline
 90
2
 70
128
 10
98031.87034139015
 20
767514.6898143495
 10
98031.87034139015
 20
768514.6898143495
  0
LWPOLYLINE
  5
67
330
17
100
AcDbEntity
  8
0
100
AcDbPolyline
 90
2
 70
128
 10
83607.87034141997
 20
767514.6898143495
 10
83607.87034141997
 20
768514.6898143495
  0
LWPOLYLINE
  5
68
330
17
100
AcDbEntity
  8
0
100
AcDbPolyline
 90
2
 70
128
 10
126887.870341271
 20
768514.6898143495
 10
127887.870341271
 20
768514.6898143495
  0
LWPOLYLINE
  5
69
330
17
100
AcDbEntity
  8
0
100
AcDbPolyline
 90
2
 70
128
 10
112455.8703413306
 20
767514.6898143495
 10
112455.8703413306
 20
768514.6898143495
  0
LWPOLYLINE
  5
6A
330
17
100
AcDbEntity
  8
0
100
AcDbPolyline
 90
2
 70
128
 10
126879.8703412412
 20
767514.6898143495
 10
126879.8703412412
 20
768514.6898143495
  0
LWPOLYLINE
  5
6B
330
17
100
AcDbEntity
  8
0
100
AcDbPolyline
 90
2
 70
128
 10
126887.870341271
 20
799302.1898142005
 10
127887.870341271
 20
799302.1898142005
  0
LWPOLYLINE
  5
6C
330
17
100
AcDbEntity
  8
0
100
AcDbPolyline
 90
2
 70
128
 10
126887.870341271
 20
778777.1898142899
 10
127887.870341271
 20
778777.1898142899
  0
LWPOLYLINE
  5
6D
330
17
100
AcDbEntity
  8
0
100
AcDbPolyline
 90
2
 70
128
 10
126887.870341271
 20
789039.6898142601
 10
127887.870341271
 20
789039.6898142601
  0
LWPOLYLINE
  5
6E
330
17
100
AcDbEntity
  8
0
100
AcDbPolyline
 90
2
 70
128
 10
126887.870341271
 20
809564.6898141707
 10
127887.870341271
 20
809564.6898141707
  0
LWPOLYLINE
  5
6F
330
17
100
AcDbEntity
  8
0
 62
4
100
AcDbPolyline
 90
2
 70
128
 10
8987.870341717993
 20
851614.6898140217
 10
127887.870341271
 20
851614.6898140217
  0
LWPOLYLINE
  5
70
330
17
100
AcDbEntity
  8
0
 62
4
100
AcDbPolyline
 90
2
 70
128
 10
10487.87034171799
 20
850614.6898140217
 10
11487.87034171799
 20
850614.6898140217
  0
LWPOLYLINE
  5
71
330
17
100
AcDbEntity
  8
0
 62
4
100
AcDbPolyline
 90
2
 70
128
 10
11487.87034171799
 20
851614.6898140217
 10
11487.87034171799
 20
850614.6898140217
  0
LWPOLYLINE
  5
72
330
17
100
AcDbEntity
  8
0
 62
4
100
AcDbPolyline
 90
2
 70
128
 10
25911.87034165839
 20
851614.6898140217
 10
25911.87034165839
 20
850614.6898140217
  0
LWPOLYLINE
  5
73
330
17
100
AcDbEntity
  8
0
 62
4
100
AcDbPolyline
 90
2
 70
128
 10
40335.87034156898
 20
851614.6898140217
 10
40335.87034156898
 20
850614.6898140217
  0
LWPOLYLINE
  5
74
330
17
100
AcDbEntity
  8
0
 62
4
100
AcDbPolyline
 90
2
 70
128
 10
54759.87034156898
 20
851614.6898140217
 10
54759.87034156898
 20
850614.6898140217
  0
LWPOLYLINE
  5
75
330
17
100
AcDbEntity
  8
0
 62
4
100
AcDbPolyline
 90
2
 70
128
 10
69183.87034147957
 20
851614.6898140217
 10
69183.87034147957
 20
850614.6898140217
  0
LWPOLYLINE
  5
76
330
17
100
AcDbEntity
  8
0
 62
4
100
AcDbPolyline
 90
2
 70
128
 10
83607.87034141997
 20
851614.6898140217
 10
83607.87034141997
 20
850614.6898140217
  0
LWPOLYLINE
  5
77
330
17
100
AcDbEntity
  8
0
100
AcDbPolyline
 90
2
 70
128
 10
126887.870341271
 20
819827.1898141111
 10
127887.870341271
 20
819827.1898141111
  0
LWPOLYLINE
  5
78
330
17
100
AcDbEntity
  8
0
100
AcDbPolyline
 90
2
 70
128
 10
126887.870341271
 20
830089.6898141111
 10
127887.870341271
 20
830089.6898141111
  0
LWPOLYLINE
  5
79
330
17
100
AcDbEntity
  8
0
100
AcDbPolyline
 90
2
 70
128
 10
126887.870341271
 20
840352.1898140515
 10
127887.870341271
 20
840352.1898140515
  0
TEXT
  5
7A
330
17
100
AcDbEntity
  8
0
 62
0
100
AcDbText
 10
127273.316033989
 20
845232.7211537863
 30
0.0
 40
499.999999998
  1
A
 41
0.7
100
AcDbText
  0
LWPOLYLINE
  5
7B
330
17
100
AcDbEntity
  8
0
 62
4
100
AcDbPolyline
 90
2
 70
128
 10
98031.87034139015
 20
851614.6898140217
 10
98031.87034139015
 20
850614.6898140217
  0
LWPOLYLINE
  5
7C
330
17
100
AcDbEntity
  8
0
 62
4
100
AcDbPolyline
 90
2
 70
128
 10
112455.8703413306
 20
851614.6898140217
 10
112455.8703413306
 20
850614.6898140217
  0
LWPOLYLINE
  5
7D
330
17
100
AcDbEntity
  8
0
100
AcDbPolyline
 90
2
 70
128
 10
126887.870341271
 20
850614.6898140217
 10
127887.870341271
 20
850614.6898140217
  0
LWPOLYLINE
  5
7E
330
17
100
AcDbEntity
  8
0
 62
4
100
AcDbPolyline
 90
2
 70
128
 10
126887.870341271
 20
851614.6898140217
 10
126887.870341271
 20
850614.6898140217
  0
LWPOLYLINE
  5
7F
330
17
100
AcDbEntity
  8
0
100
AcDbPolyline
 90
4
 70
1
 10
11487.87034171799
 20
850614.6898140217
 10
126879.8703412412
 20
850614.6898140217
 10
126879.8703412412
 20
768514.6898143495
 10
11487.87034171799
 20
768514.6898143495
  0
TEXT
  5
80
330
17
100
AcDbEntity
  8
0
 62
0
100
AcDbText
 10
18641.33165353516
 20
850864.6898140217
 30
0.0
 40
499.999999998
  1
1
 41
0.7
100
AcDbText
  0
TEXT
  5
81
330
17
100
AcDbEntity
  8
0
 62
0
100
AcDbText
 10
127273.316033989
 20
834970.2211538459
 30
0.0
 40
499.999999998
  1
B
 41
0.7
100
AcDbText
  0
TEXT
  5
82
330
17
100
AcDbEntity
  8
0
 62
0
100
AcDbText
 10
127273.316033989
 20
824707.7211538757
 30
0.0
 40
499.999999998
  1
C
 41
0.7
100
AcDbText
  0
TEXT
  5
83
330
17
100
AcDbEntity
  8
0
 62
0
100
AcDbText
 10
127273.316033989
 20
814445.2211539353
 30
0.0
 40
499.999999998
  1
D
 41
0.7
100
AcDbText
  0
TEXT
  5
84
330
17
100
AcDbEntity
  8
0
 62
0
100
AcDbText
 10
127273.316033989
 20
804182.7211539651
 30
0.0
 40
499.999999998
  1
E
 41
0.7
100
AcDbText
  0
TEXT
  5
85
330
17
100
AcDbEntity
  8
0
 62
0
100
AcDbText
 10
127273.316033989
 20
793920.2211539651
 30
0.0
 40
499.999999998
  1
F
 41
0.7
100
AcDbText
  0
TEXT
  5
86
330
17
100
AcDbEntity
  8
0
 62
0
100
AcDbText
 10
127273.316033989
 20
783657.7211540247
 30
0.0
 40
499.999999998
  1
G
 41
0.7
100
AcDbText
  0
TEXT
  5
87
330
17
100
AcDbEntity
  8
0
 62
0
100
AcDbText
 10
127273.316033989
 20
773395.2211540545
 30
0.0
 40
499.999999998
  1
H
 41
0.7
100
AcDbText
  0
TEXT
  5
88
330
17
100
AcDbEntity
  8
0
 62
0
100
AcDbText
 10
33065.33165344576
 20
850864.6898140217
 30
0.0
 40
499.999999998
  1
2
 41
0.7
100
AcDbText
  0
TEXT
  5
89
330
17
100
AcDbEntity
  8
0
 62
0
100
AcDbText
 10
47489.33165344576
 20
850864.6898140217
 30
0.0
 40
499.999999998
  1
3
 41
0.7
100
AcDbText
  0
TEXT
  5
8A
330
17
100
AcDbEntity
  8
0
 62
0
100
AcDbText
 10
61913.33165335635
 20
850864.6898140217
 30
0.0
 40
499.999999998
  1
4
 41
0.7
100
AcDbText
  0
TEXT
  5
8B
330
17
100
AcDbEntity
  8
0
 62
0
100
AcDbText
 10
76337.33165329674
 20
850864.6898140217
 30
0.0
 40
499.999999998
  1
5
 41
0.7
100
AcDbText
  0
LWPOLYLINE
  5
8C
330
17
100
AcDbEntity
  8
0
 62
4
100
AcDbPolyline
 90
2
 70
128
 10
25911.87034165839
 20
768514.6898143495
 10
25911.87034165839
 20
767514.6898143495
  0
TEXT
  5
8D
330
17
100
AcDbEntity
  8
0
 62
0
100
AcDbText
 10
105185.3316532073
 20
850864.6898140217
 30
0.0
 40
499.999999998
  1
7
 41
0.7
100
AcDbText
  0
TEXT
  5
8E
330
17
100
AcDbEntity
  8
0
 62
0
100
AcDbText
 10
119609.3316531179
 20
850864.6898140217
 30
0.0
 40
499.999999998
  1
8
 41
0.7
100
AcDbText
  0
LWPOLYLINE
  5
8F
330
17
100
AcDbEntity
  8
0
 62
4
100
AcDbPolyline
 90
2
 70
128
 10
40335.87034156898
 20
768514.6898143495
 10
40335.87034156898
 20
767514.6898143495
  0
LWPOLYLINE
  5
90
330
17
100
AcDbEntity
  8
0
 62
4
100
AcDbPolyline
 90
2
 70
128
 10
54759.87034156898
 20
768514.6898143495
 10
54759.87034156898
 20
767514.6898143495
  0
LWPOLYLINE
  5
91
330
17
100
AcDbEntity
  8
0
 62
4
100
AcDbPolyline
 90
2
 70
128
 10
69183.87034147957
 20
768514.6898143495
 10
69183.87034147957
 20
767514.6898143495
  0
LWPOLYLINE
  5
92
330
17
100
AcDbEntity
  8
0
 62
4
100
AcDbPolyline
 90
2
 70
128
 10
112455.8703413306
 20
768514.6898143495
 10
112455.8703413306
 20
767514.6898143495
  0
LWPOLYLINE
  5
93
330
17
100
AcDbEntity
  8
0
 62
4
100
AcDbPolyline
 90
2
 70
128
 10
83607.87034141997
 20
768514.6898143495
 10
83607.87034141997
 20
767514.6898143495
  0
LWPOLYLINE
  5
94
330
17
100
AcDbEntity
  8
0
 62
4
100
AcDbPolyline
 90
2
 70
128
 10
98031.87034139015
 20
768514.6898143495
 10
98031.87034139015
 20
767514.6898143495
  0
TEXT
  5
95
330
17
100
AcDbEntity
  8
0
 62
0
100
AcDbText
 10
47489.33165344576
 20
767764.6898143495
 30
0.0
 40
499.999999998
  1
3
 41
0.7
100
AcDbText
  0
TEXT
  5
96
330
17
100
AcDbEntity
  8
0
 62
0
100
AcDbText
 10
18641.33165353516
 20
767764.6898143495
 30
0.0
 40
499.999999998
  1
1
 41
0.7
100
AcDbText
  0
TEXT
  5
97
330
17
100
AcDbEntity
  8
0
 62
0
100
AcDbText
 10
33065.33165344576
 20
767764.6898143495
 30
0.0
 40
499.999999998
  1
2
 41
0.7
100
AcDbText
  0
TEXT
  5
98
330
17
100
AcDbEntity
  8
0
 62
0
100
AcDbText
 10
61913.33165335635
 20
767764.6898143495
 30
0.0
 40
499.999999998
  1
4
 41
0.7
100
AcDbText
  0
TEXT
  5
99
330
17
100
AcDbEntity
  8
0
 62
0
100
AcDbText
 10
90761.33165320734
 20
767764.6898143495
 30
0.0
 40
499.999999998
  1
6
 41
0.7
100
AcDbText
  0
TEXT
  5
9A
330
17
100
AcDbEntity
  8
0
 62
0
100
AcDbText
 10
119609.3316531179
 20
767764.6898143495
 30
0.0
 40
499.999999998
  1
8
 41
0.7
100
AcDbText
  0
TEXT
  5
9B
330
17
100
AcDbEntity
  8
0
 62
0
100
AcDbText
 10
105185.3316532073
 20
767764.6898143495
 30
0.0
 40
499.999999998
  1
7
 41
0.7
100
AcDbText
  0
LWPOLYLINE
  5
9C
330
17
100
AcDbEntity
  8
0
100
AcDbPolyline
 90
2
 70
128
 10
10487.87034171799
 20
799302.1898142005
 10
11487.87034171799
 20
799302.1898142005
  0
TEXT
  5
9D
330
17
100
AcDbEntity
  8
0
 62
0
100
AcDbText
 10
10873.31603443602
 20
845232.7211537863
 30
0.0
 40
499.999999998
  1
A
 41
0.7
100
AcDbText
  0
LWPOLYLINE
  5
9E
330
17
100
AcDbEntity
  8
0
100
AcDbPolyline
 90
2
 70
128
 10
10487.87034171799
 20
809564.6898141707
 10
11487.87034171799
 20
809564.6898141707
  0
LWPOLYLINE
  5
9F
330
17
100
AcDbEntity
  8
0
100
AcDbPolyline
 90
2
 70
128
 10
10487.87034171799
 20
819827.1898141111
 10
11487.87034171799
 20
819827.1898141111
  0
LWPOLYLINE
  5
A0
330
17
100
AcDbEntity
  8
0
100
AcDbPolyline
 90
2
 70
128
 10
10487.87034171799
 20
830089.6898141111
 10
11487.87034171799
 20
830089.6898141111
  0
LWPOLYLINE
  5
A1
330
17
100
AcDbEntity
  8
0
100
AcDbPolyline
 90
2
 70
128
 10
10487.87034171799
 20
840352.1898140515
 10
11487.87034171799
 20
840352.1898140515
  0
LWPOLYLINE
  5
A2
330
17
100
AcDbEntity
  8
0
100
AcDbPolyline
 90
2
 70
128
 10
10487.87034171799
 20
850614.6898140217
 10
11487.87034171799
 20
850614.6898140217
  0
TEXT
  5
A3
330
17
100
AcDbEntity
  8
0
 62
0
100
AcDbText
 10
10873.31603443602
 20
834970.2211538459
 30
0.0
 40
499.999999998
  1
B
 41
0.7
100
AcDbText
  0
TEXT
  5
A4
330
17
100
AcDbEntity
  8
0
 62
0
100
AcDbText
 10
10873.31603443602
 20
824707.7211538757
 30
0.0
 40
499.999999998
  1
C
 41
0.7
100
AcDbText
  0
TEXT
  5
A5
330
17
100
AcDbEntity
  8
0
 62
0
100
AcDbText
 10
10873.31603443602
 20
814445.2211539353
 30
0.0
 40
499.999999998
  1
D
 41
0.7
100
AcDbText
  0
TEXT
  5
A6
330
17
100
AcDbEntity
  8
0
 62
0
100
AcDbText
 10
10873.31603443602
 20
804182.7211539651
 30
0.0
 40
499.999999998
  1
E
 41
0.7
100
AcDbText
  0
TEXT
  5
A7
330
17
100
AcDbEntity
  8
0
 62
0
100
AcDbText
 10
10873.31603443602
 20
772687.8370266462
 30
0.0
 40
499.999999998
  1
H
 41
0.7
100
AcDbText
  0
TEXT
  5
A8
330
17
100
AcDbEntity
  8
0
100
AcDbText
 10
107217.4194068963
 20
845897.6392625248
 30
0.0
 40
300.0
  1
2L70X8
 41
0.7
100
AcDbText
  0
TEXT
  5
A9
330
17
100
AcDbEntity
  8
C77(文本)
100
AcDbText
 10
122745.833524002
 20
818461.5052374372
 30
0.0
 40
350.0
  1
18185NX-JGS61-001
 41
0.7
100
AcDbText
  0
TEXT
  5
AA
330
17
100
AcDbEntity
  8
C77(文本)
100
AcDbText
 10
122728.5572642463
 20
817712.6326556815
 30
0.0
 40
350.0
  1
18185NX-JGS61-010
 41
0.7
100
AcDbText
  0
LINE
  5
AB
330
17
100
AcDbEntity
  8
土建
100
AcDbLine
 10
126052.3471304889
 20
836637.303586129
 30
0.0
 11
126052.3471304889
 21
837077.303586129
 31
0.0
  0
LINE
  5
AC
330
17
100
AcDbEntity
  8
土建
100
AcDbLine
 10
125952.3471304786
 20
836637.303586129
 30
0.0
 11
126052.3471304889
 21
836637.303586129
 31
0.0
  0
HATCH
  5
AD
330
17
100
AcDbEntity
  8
河北布置专业DX条件2015.6.5
100
AcDbHatch
 10
0.0
 20
0.0
 30
8.4879e-12
210
0.0
220
0.0
230
1.0
  2
ANGLE
 70
0
 71
0
 91
1
 92
1
 93
6
 72
1
 10
123952.3471304889
 20
836637.303586129
 11
126052.3471304889
 21
836637.303586129
 72
1
 10
126052.3471304889
 20
836637.303586129
 11
126052.3471304889
 21
837077.303586129
 72
1
 10
126052.3471304889
 20
837077.303586129
 11
125692.3471304889
 21
837077.303586129
 72
1
 10
125692.3471304889
 20
837077.303586129
 11
125692.3471304889
 21
836797.303586129
 72
1
 10
125692.3471304889
 20
836797.303586129
 11
123952.3471304889
 21
836797.303586129
 72
1
 10
123952.3471304889
 20
836797.303586129
 11
123952.3471304889
 21
836637.303586129
 97
0
 75
1
 76
1
 52
0.0
 41
4.0
 77
0
 78
2
 53
0.0
 43
-262236.7831300271
 44
1273534.069773891
 45
0.0
 46
27.94
 79
2
 49
20.32
 49
-7.620000000000001
 53
90.0
 43
-262236.7831300271
 44
1273534.069773891
 45
-27.94
 46
1.7e-15
 79
2
 49
20.32
 49
-7.620000000000001
 98
1
 10
-262236.7831300271
 20
1273534.069773891
  0
LWPOLYLINE
  5
AE
330
17
100
AcDbEntity
  8
河北布置专业DX条件2015.6.5
100
AcDbPolyline
 90
6
 70
1
 10
123952.3471304889
 20
836637.303586129
 10
126052.3471304889
 20
836637.303586129
 10
126052.3471304889
 20
837077.303586129
 10
125692.3471304889
 20
837077.303586129
 10
125692.3471304889
 20
836797.303586129
 10
123952.3471304889
 20
836797.303586129
  0
LWPOLYLINE
  5
AF
330
17
100
AcDbEntity
  8
河北布置专业DX条件2015.6.5
100
AcDbPolyline
 90
5
 70
0
 10
126052.3471304889
 20
836477.303586129
 10
123952.3471304889
 20
836477.303586129
 10
123952.3471304889
 20
836197.303586129
 10
126052.3471304889
 20
836197.303586129
 10
126052.3471304889
 20
836477.303586129
  0
HATCH
  5
B0
330
17
100
AcDbEntity
  8
河北布置专业DX条件2015.6.5
100
AcDbHatch
 10
0.0
 20
0.0
 30
8.4879e-12
210
0.0
220
0.0
230
1.0
  2
ANGLE
 70
0
 71
0
 91
2
 92
1
 93
4
 72
1
 10
126052.3471304889
 20
836197.303586129
 11
126052.3471304889
 21
836477.303586129
 72
1
 10
126052.3471304889
 20
836477.303586129
 11
123952.3471304889
 21
836477.303586129
 72
1
 10
123952.3471304889
 20
836477.303586129
 11
123952.3471304889
 21
836197.303586129
 72
1
 10
123952.3471304889
 20
836197.303586129
 11
126052.3471304889
 21
836197.303586129
 97
0
 92
48
 93
5
 72
1
 10
126012.9265882459
 20
836341.0724545884
 11
126012.9265882459
 21
836227.6724545885
 72
2
 10
125972.7021696403
 20
836284.3724545887
 40
69.51901791670457
 50
54.64714344970228
 51
305.3528565502977
 73
1
 72
1
 10
126012.9265882459
 20
836341.0724545884
 11
126052.3471304893
 21
836341.0724545884
 72
1
 10
126012.9265882459
 20
836227.6724545885
 11
126052.3471304893
 21
836227.6724545885
 72
1
 10
126052.3471304889
 20
836227.6724545885
 11
126052.3471304889
 21
836341.0724545884
 97
0
 75
1
 76
1
 52
0.0
 41
4.0
 77
0
 78
2
 53
0.0
 43
-262236.7831300271
 44
1273534.069773891
 45
0.0
 46
27.94
 79
2
 49
20.32
 49
-7.620000000000001
 53
90.0
 43
-262236.7831300271
 44
1273534.069773891
 45
-27.94
 46
1.7e-15
 79
2
 49
20.32
 49
-7.620000000000001
 98
2
 10
-262236.7831300271
 20
1273534.069773891
 10
125013.3922974535
 20
836089.1935431137
  0
HATCH
  5
B1
330
17
100
AcDbEntity
  8
河北布置专业DX条件2015.6.5
100
AcDbHatch
 10
0.0
 20
0.0
 30
0.0
210
0.0
220
0.0
230
1.0
  2
ANGLE
 70
0
 71
0
 91
1
 92
1
 93
4
 72
1
 10
115702.3471304889
 20
834657.3044372866
 11
115702.3471304889
 21
835177.3044372866
 72
1
 10
115702.3471304889
 20
835177.3044372866
 11
114880.7596052585
 21
835177.3044372866
 72
1
 10
114880.759605258
 20
835177.3044372866
 11
114880.759605258
 21
834657.3044372866
 72
1
 10
114880.759605258
 20
834657.3044372866
 11
115702.3471304884
 21
834657.3044372866
 97
0
 75
1
 76
1
 52
0.0
 41
4.0
 77
0
 78
2
 53
0.0
 43
107116.8805150225
 44
1164256.964161249
 45
0.0
 46
27.94
 79
2
 49
20.32
 49
-7.620000000000002
 53
90.0
 43
107116.8805150225
 44
1164256.964161249
 45
-27.94
 46
1.7e-15
 79
2
 49
20.32
 49
-7.620000000000002
 98
1
 10
115477.8125677493
 20
834839.873638017
  0
LINE
  5
B2
330
17
100
AcDbEntity
  8
河北布置专业DX条件2015.6.5
100
AcDbLine
 10
115702.3471304889
 20
834657.3044372866
 30
0.0
 11
115702.3471304889
 21
835177.3044372866
 31
0.0
  0
LINE
  5
B3
330
17
100
AcDbEntity
  8
河北布置专业DX条件2015.6.5
100
AcDbLine
 10
115172.3471304889
 20
834657.3044372866
 30
0.0
 11
115172.3471304889
 21
835177.3044372866
 31
0.0
  0
TEXT
  5
B4
330
17
100
AcDbEntity
  8
墙柱标注
100
AcDbText
 10
114968.6306370956
 20
835323.0359099995
 30
0.0
 40
200.0
  1
SPD05
100
AcDbText
  0
TEXT
  5
B5
330
17
100
AcDbEntity
  8
墙柱标注
100
AcDbText
 10
123857.4921629562
 20
836833.3328774249
 30
0.0
 40
200.0
  1
SPD01
100
AcDbText
  0
TEXT
  5
B6
330
17
100
AcDbEntity
  8
墙柱标注
100
AcDbText
 10
124331.3247622366
 20
835959.3254957822
 30
0.0
 40
200.0
  1
SPD02
100
AcDbText
  0
LINE
  5
B7
330
17
100
AcDbEntity
  8
DX条件钢平台
100
AcDbLine
 10
125509.9106328155
 20
837017.030487419
 30
8.4879e-12
 11
125648.4465119879
 21
837017.030487419
 31
8.4879e-12
  0
LINE
  5
B8
330
17
100
AcDbEntity
  8
DX条件钢平台
100
AcDbLine
 10
125648.4465119879
 20
837017.030487419
 30
8.4879e-12
 11
125596.3471304889
 21
837034.5777392
 31
8.4879e-12
  0
LINE
  5
B9
330
17
100
AcDbEntity
  8
DX条件钢平台
100
AcDbLine
 10
125509.9106328155
 20
837017.030487419
 30
8.4879e-12
 11
125648.4465119879
 21
837017.030487419
 31
8.4879e-12
  0
LINE
  5
BA
330
17
100
AcDbEntity
  8
DX条件钢平台
100
AcDbLine
 10
125648.4465119879
 20
837017.030487419
 30
8.4879e-12
 11
125596.3471304889
 21
837034.5777392
 31
8.4879e-12
  0
LINE
  5
BB
330
17
100
AcDbEntity
  8
DOTE
  6
ByBlock
 62
0
 48
0.1
100
AcDbLine
 10
124628.3471304907
 20
837064.5896457144
 30
8.4879e-12
 11
124628.3471304907
 21
836925.3195605826
 31
8.4879e-12
  0
LINE
  5
BC
330
17
100
AcDbEntity
  8
STEEL
 48
0.1
100
AcDbLine
 10
124572.3471304907
 20
837074.9896457148
 30
8.4879e-12
 11
125692.3471304889
 21
837074.9896457143
 31
8.4879e-12
  0
LINE
  5
BD
330
17
100
AcDbEntity
  8
STEEL
 48
0.1
100
AcDbLine
 10
124572.3471304907
 20
837064.5896457144
 30
8.4879e-12
 11
125692.3471304889
 21
837064.5896457144
 31
8.4879e-12
  0
LINE
  5
BE
330
17
100
AcDbEntity
  8
梁__虚线
100
AcDbLine
 10
124572.3471304907
 20
837065.5496457143
 30
8.4879e-12
 11
125692.3471304889
 21
837065.5496457143
 31
8.4879e-12
  0
LINE
  5
BF
330
17
100
AcDbEntity
  8
STEEL
 48
0.1
100
AcDbLine
 10
124572.3471304907
 20
836914.9195605827
 30
8.4879e-12
 11
125692.3471304889
 21
836914.9195605827
 31
8.4879e-12
  0
LINE
  5
C0
330
17
100
AcDbEntity
  8
STEEL
 48
0.1
100
AcDbLine
 10
124572.3471304907
 20
836925.3195605826
 30
8.4879e-12
 11
125692.3471304889
 21
836925.3195605826
 31
8.4879e-12
  0
LINE
  5
C1
330
17
100
AcDbEntity
  8
梁__虚线
100
AcDbLine
 10
124572.3471304907
 20
836924.3595605827
 30
8.4879e-12
 11
125692.3471304889
 21
836924.3595605827
 31
8.4879e-12
  0
LINE
  5
C2
330
17
100
AcDbEntity
  8
DOTE
  6
ByBlock
 62
0
 48
0.1
100
AcDbLine
 10
124684.3471304907
 20
837064.5896457144
 30
8.4879e-12
 11
124684.3471304907
 21
836925.3195605826
 31
8.4879e-12
  0
LINE
  5
C3
330
17
100
AcDbEntity
  8
DOTE
  6
ByBlock
 62
0
 48
0.1
100
AcDbLine
 10
124740.3471304907
 20
837064.5896457144
 30
8.4879e-12
 11
124740.3471304907
 21
836925.3195605826
 31
8.4879e-12
  0
LINE
  5
C4
330
17
100
AcDbEntity
  8
DOTE
  6
ByBlock
 62
0
 48
0.1
100
AcDbLine
 10
124796.3471304898
 20
837064.5896457144
 30
8.4879e-12
 11
124796.3471304898
 21
836925.3195605826
 31
8.4879e-12
  0
LINE
  5
C5
330
17
100
AcDbEntity
  8
DOTE
  6
ByBlock
 62
0
 48
0.1
100
AcDbLine
 10
124852.3471304898
 20
837064.5896457144
 30
8.4879e-12
 11
124852.3471304898
 21
836925.3195605826
 31
8.4879e-12
  0
LINE
  5
C6
330
17
100
AcDbEntity
  8
DOTE
  6
ByBlock
 62
0
 48
0.1
100
AcDbLine
 10
124908.3471304898
 20
837064.5896457144
 30
8.4879e-12
 11
124908.3471304898
 21
836925.3195605826
 31
8.4879e-12
  0
LINE
  5
C7
330
17
100
AcDbEntity
  8
DOTE
  6
ByBlock
 62
0
 48
0.1
100
AcDbLine
 10
124964.3471304898
 20
837064.5896457144
 30
8.4879e-12
 11
124964.3471304898
 21
836925.3195605826
 31
8.4879e-12
  0
LINE
  5
C8
330
17
100
AcDbEntity
  8
DOTE
  6
ByBlock
 62
0
 48
0.1
100
AcDbLine
 10
125020.3471304898
 20
837064.5896457144
 30
8.4879e-12
 11
125020.3471304898
 21
836925.3195605826
 31
8.4879e-12
  0
LINE
  5
C9
330
17
100
AcDbEntity
  8
DOTE
  6
ByBlock
 62
0
 48
0.1
100
AcDbLine
 10
125076.3471304898
 20
837064.5896457144
 30
8.4879e-12
 11
125076.3471304898
 21
836925.3195605826
 31
8.4879e-12
  0
LINE
  5
CA
330
17
100
AcDbEntity
  8
DOTE
  6
ByBlock
 62
0
 48
0.1
100
AcDbLine
 10
125132.3471304898
 20
837064.5896457144
 30
8.4879e-12
 11
125132.3471304898
 21
836925.3195605826
 31
8.4879e-12
  0
LINE
  5
CB
330
17
100
AcDbEntity
  8
DOTE
  6
ByBlock
 62
0
 48
0.1
100
AcDbLine
 10
125188.3471304898
 20
837064.5896457144
 30
8.4879e-12
 11
125188.3471304889
 21
836925.3195605826
 31
8.4879e-12
  0
LINE
  5
CC
330
17
100
AcDbEntity
  8
DOTE
  6
ByBlock
 62
0
 48
0.1
100
AcDbLine
 10
125244.3471304889
 20
837064.5896457144
 30
8.4879e-12
 11
125244.3471304889
 21
836925.3195605826
 31
8.4879e-12
  0
LINE
  5
CD
330
17
100
AcDbEntity
  8
DOTE
  6
ByBlock
 62
0
 48
0.1
100
AcDbLine
 10
125300.3471304889
 20
837064.5896457144
 30
8.4879e-12
 11
125300.3471304889
 21
836925.3195605826
 31
8.4879e-12
  0
LINE
  5
CE
330
17
100
AcDbEntity
  8
DOTE
  6
ByBlock
 62
0
 48
0.1
100
AcDbLine
 10
125356.3471304889
 20
837064.5896457144
 30
8.4879e-12
 11
125356.3471304889
 21
836925.3195605826
 31
8.4879e-12
  0
LINE
  5
CF
330
17
100
AcDbEntity
  8
DOTE
  6
ByBlock
 62
0
 48
0.1
100
AcDbLine
 10
125412.3471304889
 20
837064.5896457144
 30
8.4879e-12
 11
125412.3471304889
 21
836925.3195605826
 31
8.4879e-12
  0
LINE
  5
D0
330
17
100
AcDbEntity
  8
DOTE
  6
ByBlock
 62
0
 48
0.1
100
AcDbLine
 10
125468.3471304889
 20
837064.5896457144
 30
8.4879e-12
 11
125468.3471304889
 21
836925.3195605826
 31
8.4879e-12
  0
LINE
  5
D1
330
17
100
AcDbEntity
  8
DOTE
  6
ByBlock
 62
0
 48
0.1
100
AcDbLine
 10
125524.3471304879
 20
837064.5896457144
 30
8.4879e-12
 11
125524.3471304879
 21
836925.3195605826
 31
8.4879e-12
  0
LINE
  5
D2
330
17
100
AcDbEntity
  8
DOTE
  6
ByBlock
 62
0
 48
0.1
100
AcDbLine
 10
125580.3471304879
 20
837064.5896457144
 30
8.4879e-12
 11
125580.3471304879
 21
836925.3195605826
 31
8.4879e-12
  0
LINE
  5
D3
330
17
100
AcDbEntity
  8
DOTE
  6
ByBlock
 62
0
 48
0.1
100
AcDbLine
 10
125636.3471304879
 20
837064.5896457144
 30
8.4879e-12
 11
125636.3471304879
 21
836925.3195605822
 31
8.4879e-12
  0
LINE
  5
D4
330
17
100
AcDbEntity
  8
DOTE
  6
ByBlock
 62
0
 48
0.1
100
AcDbLine
 10
124572.3471304907
 20
836914.9195605827
 30
8.4879e-12
 11
124572.3471304907
 21
836925.3195605826
 31
8.4879e-12
  0
LINE
  5
D5
330
17
100
AcDbEntity
  8
DOTE
  6
ByBlock
 62
0
 48
0.1
100
AcDbLine
 10
124572.3471304907
 20
837064.5896457144
 30
8.4879e-12
 11
124572.3471304907
 21
837074.9896457148
 31
8.4879e-12
  0
HATCH
  5
D6
330
17
100
AcDbEntity
  8
河北布置专业DX条件2015.6.5
100
AcDbHatch
 10
0.0
 20
0.0
 30
0.0
210
0.0
220
0.0
230
1.0
  2
ANGLE
 70
0
 71
0
 91
1
 92
1
 93
5
 72
1
 10
116049.2832068524
 20
839821.7275752834
 11
115305.6991703895
 21
839821.7275752834
 72
1
 10
115305.6991703895
 20
839821.7275752834
 11
115305.6991703895
 21
839471.7275752834
 72
1
 10
115305.6991703895
 20
839471.7275752834
 11
115149.2832068524
 21
839471.7275752834
 72
1
 10
115149.2832068524
 20
839471.7275752834
 11
116049.2832068524
 21
839471.7275752834
 72
1
 10
116049.2832068524
 20
839471.7275752834
 11
116049.2832068524
 21
839821.7275752834
 97
0
 75
1
 76
1
 52
0.0
 41
4.0
 77
0
 78
2
 53
0.0
 43
-240426.1334798771
 44
1338261.337170597
 45
0.0
 46
27.94
 79
2
 49
20.32
 49
-7.620000000000001
 53
90.0
 43
-240426.1334798771
 44
1338261.337170597
 45
-27.94
 46
1.7e-15
 79
2
 49
20.32
 49
-7.620000000000001
 98
1
 10
115605.8756778429
 20
839748.7723583825
  0
TEXT
  5
D7
330
17
100
AcDbEntity
  8
墙柱标注
100
AcDbText
 10
115302.2639614114
 20
839926.5195334785
 30
0.0
 40
200.0
  1
SPD03
100
AcDbText
  0
HATCH
  5
D8
330
17
100
AcDbEntity
  8
河北布置专业DX条件2015.6.5
100
AcDbHatch
 10
0.0
 20
0.0
 30
0.0
210
0.0
220
0.0
230
1.0
  2
ANGLE
 70
0
 71
0
 91
1
 92
1
 93
4
 72
1
 10
114711.3471304889
 20
834657.3044372866
 11
114711.3471304889
 21
835177.3044372866
 72
1
 10
114711.3471304889
 20
835177.3044372866
 11
113889.7596052585
 21
835177.3044372866
 72
1
 10
113889.759605258
 20
835177.3044372866
 11
113889.759605258
 21
834657.3044372866
 72
1
 10
113889.759605258
 20
834657.3044372866
 11
114711.3471304884
 21
834657.3044372866
 97
0
 75
1
 76
1
 52
0.0
 41
4.0
 77
0
 78
2
 53
0.0
 43
106125.8805150225
 44
1164256.964161249
 45
0.0
 46
27.94
 79
2
 49
20.32
 49
-7.620000000000002
 53
90.0
 43
106125.8805150225
 44
1164256.964161249
 45
-27.94
 46
1.7e-15
 79
2
 49
20.32
 49
-7.620000000000002
 98
1
 10
114486.8125677493
 20
834839.873638017
  0
TEXT
  5
D9
330
17
100
AcDbEntity
  8
墙柱标注
100
AcDbText
 10
113903.045488111
 20
835323.0359099995
 30
0.0
 40
200.0
  1
SPD04
100
AcDbText
  0
HATCH
  5
DA
330
17
100
AcDbEntity
  8
河北布置专业DX条件2015.6.5
100
AcDbHatch
 10
0.0
 20
0.0
 30
0.0
210
0.0
220
0.0
230
1.0
  2
ANGLE
 70
0
 71
0
 91
1
 92
1
 93
4
 72
1
 10
114560.3471304879
 20
834299.0725106614
 11
114560.3471304879
 21
834459.0725106614
 72
1
 10
114560.3471304884
 20
834459.0725106614
 11
113220.3471304884
 21
834459.0725106614
 72
1
 10
113220.3471304884
 20
834459.0725106614
 11
113220.3471304884
 21
834299.0725106614
 72
1
 10
113220.3471304884
 20
834299.0725106614
 11
114560.3471304884
 21
834299.0725106614
 97
0
 75
1
 76
1
 52
0.0
 41
4.0
 77
0
 78
2
 53
0.0
 43
-1661400.713441652
 44
3503995.396955615
 45
0.0
 46
27.94
 79
2
 49
20.32
 49
-7.62
 53
90.0
 43
-1661400.713441652
 44
3503995.396955615
 45
-27.94
 46
1.7e-15
 79
2
 49
20.32
 49
-7.62
 98
1
 10
114113.3732067806
 20
834344.1716986423
  0
LINE
  5
DB
330
17
100
AcDbEntity
  8
DX条件钢平台
100
AcDbLine
 10
114560.3471304884
 20
834299.0725106614
 30
0.0
 11
113220.3471304884
 21
834299.0725106614
 31
0.0
  0
HATCH
  5
DC
330
17
100
AcDbEntity
  8
河北布置专业DX条件2015.6.5
100
AcDbHatch
 10
0.0
 20
0.0
 30
0.0
210
0.0
220
0.0
230
1.0
  2
ANGLE
 70
0
 71
0
 91
1
 92
7
 72
0
 73
1
 93
4
 10
114560.3471304884
 20
834299.0725106614
 10
113840.3471304884
 20
834299.0725106614
 10
113840.3471304884
 20
834139.0725106614
 10
114400.3471304884
 20
834139.0725106614
 97
0
 75
1
 76
1
 52
0.0
 41
4.0
 77
0
 78
2
 53
0.0
 43
-1661400.713441652
 44
3503995.396955615
 45
0.0
 46
27.94
 79
2
 49
20.32
 49
-7.62
 53
90.0
 43
-1661400.713441652
 44
3503995.396955615
 45
-27.94
 46
1.7e-15
 79
2
 49
20.32
 49
-7.62
 47
8.686932748114682
 98
1
 10
114074.8320139565
 20
834229.6260300874
  0
LINE
  5
DD
330
17
100
AcDbEntity
  8
DOTE
  6
ByBlock
 62
0
 48
0.1
100
AcDbLine
 10
114400.3471304884
 20
834139.0725106614
 30
0.0
 11
114560.3471304884
 21
834299.0725106614
 31
0.0
  0
TEXT
  5
DE
330
17
100
AcDbEntity
  8
墙柱标注
100
AcDbText
 10
113410.5387597962
 20
833906.9370025204
 30
1.6976e-12
 40
200.0
  1
SPD06
100
AcDbText
  0
HATCH
  5
DF
330
17
100
AcDbEntity
  8
DX条件钢平台
100
AcDbHatch
 10
0.0
 20
0.0
 30
0.0
210
0.0
220
0.0
230
1.0
  2
ANSI37
 70
0
 71
0
 91
4
 92
7
 72
0
 73
1
 93
4
 10
114063.4299239249
 20
836834.4711321396
 10
113830.4726652692
 20
836834.4711321396
 10
113830.4726652692
 20
836314.4711321396
 10
114063.4299239249
 20
836314.4711321396
 97
0
 92
7
 72
0
 73
1
 93
4
 10
114750.4726652692
 20
836834.4711321396
 10
114437.4299239249
 20
836834.4711321396
 10
114437.4299239249
 20
836314.4711321396
 10
114750.4726652692
 20
836314.4711321396
 97
0
 92
7
 72
0
 73
1
 93
4
 10
115103.4299239249
 20
836834.4711321396
 10
114870.4726652692
 20
836834.4711321396
 10
114870.4726652692
 20
836314.4711321396
 10
115103.4299239249
 20
836314.4711321396
 97
0
 92
7
 72
0
 73
1
 93
4
 10
115677.4299239249
 20
836834.4711321396
 10
115477.4299239249
 20
836834.4711321396
 10
115477.4299239249
 20
836314.4711321396
 10
115677.4299239249
 20
836314.4711321396
 97
0
 75
0
 76
1
 52
0.0
 41
4.0
 77
0
 78
2
 53
44.99999999999999
 43
-243027.6073515478
 44
1380952.560544489
 45
-8.980256121069152
 46
8.980256121069154
 79
0
 53
135.0
 43
-243027.6073515478
 44
1380952.560544489
 45
-8.980256121069154
 46
-8.980256121069152
 79
0
 47
33.95973357234523
 98
4
 10
113908.4425092119
 20
836513.9462501792
 10
114594.6839007002
 20
836493.5707873324
 10
114968.3784264869
 20
836541.1139344125
 10
115573.08563088
 20
836520.7384715657
  0
LINE
  5
E0
330
17
100
AcDbEntity
  8
DOTE
  6
ByBlock
 62
0
 48
0.1
100
AcDbLine
 10
114750.4726652692
 20
836314.4711321396
 30
0.0
 11
114423.345743513
 21
836314.4711321396
 31
0.0
  0
LINE
  5
E1
330
17
100
AcDbEntity
  8
DOTE
  6
ByBlock
 62
0
 48
0.1
100
AcDbLine
 10
115103.4299239249
 20
836834.4711321396
 30
0.0
 11
114870.4726652692
 21
836834.4711321396
 31
0.0
  0
LINE
  5
E2
330
17
100
AcDbEntity
  8
DOTE
  6
ByBlock
 62
0
 48
0.1
100
AcDbLine
 10
115103.4299239249
 20
836314.4711321396
 30
0.0
 11
114870.4726652692
 21
836314.4711321396
 31
1.725e-13
  0
LINE
  5
E3
330
17
100
AcDbEntity
  8
DOTE
  6
ByBlock
 62
0
 48
0.1
100
AcDbLine
 10
115677.4299239249
 20
836834.4711321396
 30
0.0
 11
115477.4299239249
 21
836834.4711321396
 31
0.0
  0
LINE
  5
E4
330
17
100
AcDbEntity
  8
DOTE
  6
ByBlock
 62
0
 48
0.1
100
AcDbLine
 10
115677.4299239249
 20
836314.4711321396
 30
0.0
 11
115477.4299239249
 21
836314.4711321396
 31
0.0
  0
LINE
  5
E5
330
17
100
AcDbEntity
  8
DOTE
  6
ByBlock
 62
0
 48
0.1
100
AcDbLine
 10
115677.4299239249
 20
836314.4711321396
 30
0.0
 11
115677.4299239249
 21
836834.4711321396
 31
0.0
  0
TEXT
  5
E6
330
17
100
AcDbEntity
  8
墙柱标注
100
AcDbText
 10
113093.8258763359
 20
836566.4364870632
 30
0.0
 40
200.0
  1
SPD07
100
AcDbText
  0
TEXT
  5
E7
330
17
100
AcDbEntity
  8
墙柱标注
100
AcDbText
 10
114055.8380036459
 20
836004.1921619143
 30
0.0
 40
200.0
  1
SPD08
100
AcDbText
  0
TEXT
  5
E8
330
17
100
AcDbEntity
  8
墙柱标注
100
AcDbText
 10
115572.3701370333
 20
836050.2925325729
 30
0.0
 40
200.0
  1
SPD10
100
AcDbText
  0
TEXT
  5
E9
330
17
100
AcDbEntity
  8
墙柱标注
100
AcDbText
 10
114761.9549430523
 20
836916.2361555401
 30
0.0
 40
200.0
  1
SPD09
100
AcDbText
  0
LWPOLYLINE
  5
EA
330
17
100
AcDbEntity
  8
NUM
 62
6
100
AcDbPolyline
 90
2
 70
0
 43
50.0
 10
119244.5577303966
 20
831872.5824714162
 10
121368.9160599357
 20
831872.5824714162
  0
LWPOLYLINE
  5
EB
330
17
100
AcDbEntity
  8
NUM
 62
6
100
AcDbPolyline
 90
2
 70
0
 43
50.0
 10
119244.5577303966
 20
831872.5824714162
 10
121598.1287793459
 20
831872.5824714162
  0
LWPOLYLINE
  5
EC
330
17
100
AcDbEntity
  8
C77(文本)
  6
Continuous
 62
7
100
AcDbPolyline
 90
2
 70
0
 43
62.5
 10
116404.3870394456
 20
813728.617372413
 10
116404.3870394456
 20
814098.617372413
  0
LWPOLYLINE
  5
ED
330
17
100
AcDbEntity
  8
C77(文本)
  6
Continuous
 62
7
100
AcDbPolyline
 90
2
 70
0
 43
62.5
 10
113764.3870394456
 20
813728.617372413
 10
113764.3870394456
 20
814098.617372413
  0
LWPOLYLINE
  5
EE
330
17
100
AcDbEntity
  8
C77(文本)
  6
Continuous
 62
7
100
AcDbPolyline
 90
2
 70
0
 43
62.5
 10
115144.3870394465
 20
813728.617372413
 10
115144.3870394465
 20
814098.617372413
  0
LINE
  5
EF
330
17
100
AcDbEntity
  8
C77(文本)
  6
Continuous
 62
7
100
AcDbLine
 10
113354.3870394456
 20
813538.617372413
 30
0.0
 11
113354.3870394456
 21
813948.617372413
 31
0.0
  0
LWPOLYLINE
  5
F0
330
17
100
AcDbEntity
  8
C77(文本)
  6
Continuous
 62
7
100
AcDbPolyline
 90
2
 70
0
 43
62.5
 10
113354.3870394456
 20
813948.617372413
 10
116854.3870394456
 20
813948.617372413
  0
LINE
  5
F1
330
17
100
AcDbEntity
  8
C77(文本)
  6
Continuous
 62
7
100
AcDbLine
 10
113354.3870394456
 20
813538.617372413
 30
0.0
 11
116854.5990641781
 21
813538.617372413
 31
0.0
  0
LINE
  5
F2
330
17
100
AcDbEntity
  8
C77(文本)
  6
Continuous
 62
7
100
AcDbLine
 10
113354.3870394456
 20
813818.617372413
 30
0.0
 11
116854.5990641781
 21
813818.617372413
 31
0.0
  0
LINE
  5
F3
330
17
100
AcDbEntity
  8
PDIM
100
AcDbLine
 10
104589.5798822691
 20
844985.9530162419
 30
0.0
 11
112073.4461888958
 21
844985.9530162419
 31
0.0
  0
TEXT
  5
F4
330
17
100
AcDbEntity
  8
0
100
AcDbText
 10
106363.3687093335
 20
845253.376352969
 30
0.0
 40
180.0
  1
6
 41
0.7
 72
2
 11
106426.3687093335
 21
845433.376352969
 31
0.0
100
AcDbText
 73
3
  0
CIRCLE
  5
F5
330
17
100
AcDbEntity
  8
0
100
AcDbCircle
 10
106398.683822491
 20
845343.0491978655
 30
0.0
 40
157.5471947188817
  0
TEXT
  5
F6
330
17
100
AcDbEntity
  8
0
100
AcDbText
 10
107217.4194068967
 20
845160.0691014369
 30
0.0
 40
300.0
  1
L80X8
 41
0.7
100
AcDbText
  0
TEXT
  5
F7
330
17
100
AcDbEntity
  8
0
100
AcDbText
 10
110906.2056053027
 20
845199.5182182583
 30
0.0
 40
300.0
  1
Q235B
 41
0.7
100
AcDbText
  0
TEXT
  5
F8
330
17
100
AcDbEntity
  8
TK
 62
2
100
AcDbText
 10
119117.9548857988
 20
771137.4995399982
 30
0.0
 40
299.9999250000001
  1
NX厂房
 41
0.7
100
AcDbText
  0
TEXT
  5
F9
330
17
100
AcDbEntity
  8
0
 62
2
100
AcDbText
 10
118329.088603468
 20
779042.172919795
 30
0.0
 40
399.9999
  1
0
 41
0.8
 11
118329.088603468
 21
778961.7260125325
 31
0.0
100
AcDbText
 73
1
  0
TEXT
  5
FA
330
17
100
AcDbEntity
  8
0
 62
2
100
AcDbText
 10
119129.0884034678
 20
779042.172919795
 30
0.0
 40
399.9999
  1
2
 41
0.8
 11
119129.0884034678
 21
778961.7260125325
 31
0.0
100
AcDbText
 73
1
  0
TEXT
  5
FB
330
17
100
AcDbEntity
  8
标注
 62
4
 48
0.001
100
AcDbText
 10
122858.2806440012
 20
772034.6340737854
 30
0.0
 40
319.99992
  1
18185NX-JGS61-002
 41
0.7
100
AcDbText
  0
TEXT
  5
FC
330
17
100
AcDbEntity
  8
TK
 62
2
100
AcDbText
 10
118672.395874515
 20
770000.480258148
 30
0.0
 40
299.9999250000001
  1
NX Building
 41
0.7
100
AcDbText
  0
TEXT
  5
FD
330
17
100
AcDbEntity
  8
TK
 62
2
100
AcDbText
 10
116322.1189829072
 20
769500.0038554518
 30
0.0
 40
299.9999250000001
  1
Level -8.800m Structural Steel Drawing for
 41
0.7
100
AcDbText
  0
TEXT
  5
FE
330
17
100
AcDbEntity
  8
TK
100
AcDbText
 10
125694.3945569105
 20
769561.711466567
 30
0.0
 40
299.999925
  1
1:100
 41
0.7
100
AcDbText
  0
TEXT
  5
FF
330
17
100
AcDbEntity
  8
TK
100
AcDbText
 10
125793.1713646844
 20
771172.0452449493
 30
0.0
 40
299.999925
  1
A 
 41
0.7
100
AcDbText
  0
TEXT
  5
100
330
17
100
AcDbEntity
  8
TK
 62
2
100
AcDbText
 10
126026.3533213635
 20
771169.6357117052
 30
0.0
 40
133.3333
  1
0
 41
0.7
100
AcDbText
  0
LINE
  5
101
330
17
100
AcDbEntity
  8
1
 62
4
100
AcDbLine
 10
126879.8703413464
 20
768514.6898143495
 30
0.0
 11
108879.8748413462
 21
768514.6898143495
 31
0.0
  0
LINE
  5
102
330
17
100
AcDbEntity
  8
图框
 62
4
100
AcDbLine
 10
126879.8703413408
 20
768514.6898143514
 30
0.0
 11
108879.8748372884
 21
768514.6898143509
 31
0.0
  0
LINE
  5
103
330
17
100
AcDbEntity
  8
1
 62
4
100
AcDbLine
 10
126879.8703413394
 20
768514.6898143514
 30
0.0
 11
108879.8748413392
 21
768514.6898143514
 31
0.0
  0
LINE
  5
104
330
17
100
AcDbEntity
  8
1
 62
4
100
AcDbLine
 10
126847.0551339148
 20
781850.6158433188
 30
0.0
 11
126847.0551339148
 21
781850.6158433188
 31
0.0
  0
LINE
  5
105
330
17
100
AcDbEntity
  8
1
 62
4
100
AcDbLine
 10
126847.0551339148
 20
781850.6158433188
 30
0.0
 11
126847.0551339148
 21
781850.6158433188
 31
0.0
  0
LINE
  5
106
330
17
100
AcDbEntity
  8
1
 62
4
100
AcDbLine
 10
126847.0551339148
 20
781850.6158433188
 30
0.0
 11
126847.0551339148
 21
781850.6158433188
 31
0.0
  0
LINE
  5
107
330
17
100
AcDbEntity
  8
1
 62
4
100
AcDbLine
 10
126847.0551339148
 20
781850.6158433188
 30
0.0
 11
126847.0551339148
 21
781850.6158433188
 31
0.0
  0
LINE
  5
108
330
17
100
AcDbEntity
  8
1
 62
4
100
AcDbLine
 10
126879.8703412412
 20
774520.2057910681
 30
0.0
 11
126879.8703412412
 21
781850.6158433188
 31
0.0
 39
49.99998750000001
  0
LINE
  5
109
330
17
100
AcDbEntity
  8
图框
 62
4
100
AcDbLine
 10
126879.8703413408
 20
768514.6898143514
 30
0.0
 11
108879.8748372884
 21
768514.6898143509
 31
0.0
  0
LWPOLYLINE
  5
10A
330
17
100
AcDbEntity
  8
1
 62
4
100
AcDbPolyline
 90
2
 70
0
 43
29.9999924998288
 10
108879.8748413448
 20
772714.6887643271
 10
126879.8703412412
 20
772714.6887643271
  0
LWPOLYLINE
  5
10B
330
17
100
AcDbEntity
  8
1
 62
4
100
AcDbPolyline
 90
2
 70
0
 43
29.9999924998288
 10
115079.8732913037
 20
771714.6890143313
 10
126879.8703412412
 20
771714.6890143313
  0
LWPOLYLINE
  5
10C
330
17
100
AcDbEntity
  8
1
 62
4
100
AcDbPolyline
 90
4
 70
1
 43
49.99998749971467
 10
108879.8748412452
 20
774314.6883643273
 10
126879.8703412412
 20
774314.6883643273
 10
126879.8703412412
 20
768514.6898143495
 10
108879.8748413448
 20
768514.6898143495
  0
LINE
  5
10D
330
17
100
AcDbEntity
  8
1
 62
4
100
AcDbLine
 10
126879.8703413408
 20
768514.6898143514
 30
0.0
 11
108879.8748413448
 21
768514.6898143514
 31
0.0
  0
LWPOLYLINE
  5
10E
330
17
100
AcDbEntity
  8
1
 62
4
100
AcDbPolyline
 90
4
 70
1
 43
49.99998749998752
 10
108879.8748412452
 20
768514.6898143495
 10
126879.8703412412
 20
768514.6898143495
 10
126879.8703413408
 20
784514.6858143507
 10
108879.8748412452
 20
784514.6858143507
  0
LINE
  5
10F
330
17
100
AcDbEntity
  8
1
 62
4
 48
0.8
100
AcDbLine
 10
108879.8748412452
 20
778103.585021891
 30
0.0
 11
108879.8748412452
 21
771953.940881946
 31
0.0
  0
LINE
  5
110
330
17
100
AcDbEntity
  8
1
 62
4
100
AcDbLine
 10
108879.8748413448
 20
772114.6889143306
 30
0.0
 11
115079.8732913037
 21
772114.6889143306
 31
0.0
  0
LINE
  5
111
330
17
100
AcDbEntity
  8
1
 62
4
100
AcDbLine
 10
109679.87464134
 20
771514.6890643345
 30
0.0
 11
115079.8732913037
 21
771514.6890643345
 31
0.0
  0
LINE
  5
112
330
17
100
AcDbEntity
  8
1
 62
4
100
AcDbLine
 10
108879.8748413448
 20
770914.6892143375
 30
0.0
 11
115079.8732913037
 21
770914.6892143375
 31
0.0
  0
LINE
  5
113
330
17
100
AcDbEntity
  8
1
 62
4
100
AcDbLine
 10
109679.87464134
 20
770314.6893643414
 30
0.0
 11
115079.8732913037
 21
770314.6893643414
 31
0.0
  0
LINE
  5
114
330
17
100
AcDbEntity
  8
1
 62
4
100
AcDbLine
 10
108879.8748413448
 20
769714.6895143426
 30
0.0
 11
115079.8732913037
 21
769714.6895143426
 31
0.0
  0
LINE
  5
115
330
17
100
AcDbEntity
  8
1
 62
4
100
AcDbLine
 10
108879.8748413448
 20
769114.6896643488
 30
0.0
 11
115079.8732913037
 21
769114.6896643488
 31
0.0
  0
LWPOLYLINE
  5
116
330
17
100
AcDbEntity
  8
1
 62
4
100
AcDbPolyline
 90
2
 70
0
 43
29.9999924998288
 10
111479.8741913296
 20
772714.6887643271
 10
111479.8741913296
 20
768514.6898143495
  0
LWPOLYLINE
  5
117
330
17
100
AcDbEntity
  8
1
 62
4
100
AcDbPolyline
 90
2
 70
0
 43
29.9999924998288
 10
109679.87464134
 20
772714.6887643271
 10
109679.87464134
 20
768514.6898143495
  0
LWPOLYLINE
  5
118
330
17
100
AcDbEntity
  8
1
 62
4
100
AcDbPolyline
 90
2
 70
0
 43
29.9999924998288
 10
113279.8737413187
 20
772714.6887643271
 10
113279.8737413187
 20
768514.6898143495
  0
LWPOLYLINE
  5
119
330
17
100
AcDbEntity
  8
1
 62
4
100
AcDbPolyline
 90
2
 70
0
 43
29.9999924998288
 10
115079.8732913037
 20
772714.6887643271
 10
115079.8732913037
 20
768514.6898143495
  0
LWPOLYLINE
  5
11A
330
17
100
AcDbEntity
  8
1
 62
4
100
AcDbPolyline
 90
2
 70
0
 43
24.99999374985734
 10
116279.8729913037
 20
772714.6887643271
 10
116279.8729913037
 20
771714.6890143313
  0
LWPOLYLINE
  5
11B
330
17
100
AcDbEntity
  8
1
 62
4
100
AcDbPolyline
 90
2
 70
0
 43
24.99999374985734
 10
118279.8724912883
 20
772714.6887643271
 10
118279.8724912883
 20
771714.6890143313
  0
LWPOLYLINE
  5
11C
330
17
100
AcDbEntity
  8
1
 62
4
100
AcDbPolyline
 90
2
 70
0
 43
24.99999374985734
 10
119479.8721912823
 20
772714.6887643271
 10
119479.8721912823
 20
771714.6890143313
  0
LWPOLYLINE
  5
11D
330
17
100
AcDbEntity
  8
1
 62
4
100
AcDbPolyline
 90
2
 70
0
 43
24.99999374985734
 10
121479.8716912724
 20
772714.6887643271
 10
121479.8716912724
 20
771714.6890143313
  0
LWPOLYLINE
  5
11E
330
17
100
AcDbEntity
  8
1
 62
4
100
AcDbPolyline
 90
2
 70
0
 43
24.99999374985734
 10
122679.8713912669
 20
772714.6887643271
 10
122679.8713912669
 20
771714.6890143313
  0
LWPOLYLINE
  5
11F
330
17
100
AcDbEntity
  8
1
 62
4
100
AcDbPolyline
 90
2
 70
0
 43
24.99999374985734
 10
125279.870741247
 20
771714.6890143313
 10
125279.870741247
 20
769314.6896143452
  0
LWPOLYLINE
  5
120
330
17
100
AcDbEntity
  8
1
 62
4
100
AcDbPolyline
 90
2
 70
0
 43
29.9999924998288
 10
124079.8710412572
 20
771714.6890143313
 10
124079.8710412572
 20
768514.6898143495
  0
LWPOLYLINE
  5
121
330
17
100
AcDbEntity
  8
1
 62
4
100
AcDbPolyline
 90
2
 70
0
 43
24.99999374985734
 10
126879.8703412412
 20
770114.6894143423
 10
124079.8710412572
 20
770114.6894143423
  0
LWPOLYLINE
  5
122
330
17
100
AcDbEntity
  8
1
 62
4
100
AcDbPolyline
 90
2
 70
0
 43
24.99999374985734
 10
126879.8703412412
 20
769314.6896143452
 10
124079.8710412572
 20
769314.6896143452
  0
LWPOLYLINE
  5
123
330
17
100
AcDbEntity
  8
1
 62
4
100
AcDbPolyline
 90
2
 70
0
 43
24.99999374985734
 10
126879.8703412412
 20
770914.6892143375
 10
124079.8710412572
 20
770914.6892143375
  0
LINE
  5
124
330
17
100
AcDbEntity
  8
1
 62
4
100
AcDbLine
 10
126850.1209079738
 20
780338.8497480525
 30
0.0
 11
126850.1209079738
 21
780338.8497480525
 31
0.0
  0
LINE
  5
125
330
17
100
AcDbEntity
  8
1
 62
4
100
AcDbLine
 10
126850.1209079738
 20
780338.8497480525
 30
0.0
 11
126850.1209079738
 21
780338.8497480525
 31
0.0
  0
LINE
  5
126
330
17
100
AcDbEntity
  8
1
 62
4
100
AcDbLine
 10
126850.1209079738
 20
780338.8497480525
 30
0.0
 11
126850.1209079738
 21
780338.8497480525
 31
0.0
  0
LINE
  5
127
330
17
100
AcDbEntity
  8
1
 62
4
100
AcDbLine
 10
126850.1209079738
 20
780338.8497480525
 30
0.0
 11
126850.1209079738
 21
780338.8497480525
 31
0.0
  0
LWPOLYLINE
  5
128
330
17
100
AcDbEntity
  8
1
 62
4
100
AcDbPolyline
 90
2
 70
0
 43
29.9999924998288
 10
108879.8748412452
 20
775914.687964327
 10
126879.8703413408
 20
775914.687964327
  0
LWPOLYLINE
  5
129
330
17
100
AcDbEntity
  8
1
 62
4
100
AcDbPolyline
 90
2
 70
0
 43
29.9999924998288
 10
110679.8743912455
 20
777114.6876643271
 10
126879.8703413408
 20
777114.6876643271
  0
LWPOLYLINE
  5
12A
330
17
100
AcDbEntity
  8
1
 62
4
100
AcDbPolyline
 90
2
 70
0
 43
29.9999924998288
 10
110679.8743912455
 20
777914.687464327
 10
126879.8703413408
 20
777914.687464327
  0
LWPOLYLINE
  5
12B
330
17
100
AcDbEntity
  8
1
 62
4
100
AcDbPolyline
 90
2
 70
0
 43
29.9999924998288
 10
108879.8748412452
 20
778714.6872643273
 10
126879.8703413408
 20
778714.6872643273
  0
LWPOLYLINE
  5
12C
330
17
100
AcDbEntity
  8
1
 62
4
100
AcDbPolyline
 90
2
 70
0
 43
29.9999924998288
 10
108879.8748412452
 20
779714.6870143273
 10
126879.8703413408
 20
779714.6870143273
  0
LWPOLYLINE
  5
12D
330
17
100
AcDbEntity
  8
1
 62
4
100
AcDbPolyline
 90
2
 70
0
 43
29.9999924998288
 10
108879.8748412452
 20
781314.686614327
 10
126879.8703413408
 20
781314.686614327
  0
LINE
  5
12E
330
17
100
AcDbEntity
  8
0
  6
Continuous
 62
4
100
AcDbLine
 10
110679.8743912455
 20
779714.6870143273
 30
0.0
 11
110679.8743912455
 21
775914.687964327
 31
0.0
  0
LWPOLYLINE
  5
12F
330
17
100
AcDbEntity
  8
1
 62
4
100
AcDbPolyline
 90
2
 70
0
 43
29.9999924998288
 10
110679.8743912455
 20
779714.6870143273
 10
110679.8743912455
 20
775914.687964327
  0
TEXT
  5
130
330
17
100
AcDbEntity
  8
1
 62
4
100
AcDbText
 10
109114.3632965123
 20
779036.1372090391
 30
0.0
 40
399.9999000000001
  1
DOC.NO
 41
0.8
100
AcDbText
  0
TEXT
  5
131
330
17
100
AcDbEntity
  8
1
 62
4
 48
0.8
100
AcDbText
 10
110746.5402385153
 20
776804.1210074079
 30
0.0
 40
199.99995
  1
(+FCR,FCN,DEN,CIN, 其他 Other)
 41
0.7
100
AcDbText
  0
TEXT
  5
132
330
17
100
AcDbEntity
  8
1
 62
4
 48
0.8
100
AcDbText
 10
109260.3298285955
 20
777189.7416197279
 30
0.0
 40
249.9999375
  1
Reference
 41
0.7
100
AcDbText
  0
TEXT
  5
133
330
17
100
AcDbEntity
  8
1
 62
4
 48
0.8
100
AcDbText
 10
109344.1753393978
 20
776860.1472353347
 30
0.0
 40
249.9999375
  1
Document
 41
0.7
100
AcDbText
  0
TEXT
  5
134
330
17
100
AcDbEntity
  8
1
 62
4
 48
0.8
100
AcDbText
 10
109049.2662084678
 20
777535.38599205
 30
0.0
 40
249.9999375
  1
参考电站编码
 41
0.7
100
AcDbText
  0
LWPOLYLINE
  5
135
330
17
100
AcDbEntity
  8
1
 62
4
100
AcDbPolyline
 90
2
 70
0
 43
29.9999924998288
 10
125479.8706913407
 20
778714.6872643888
 10
125479.8706912992
 20
777914.6874643889
  0
LWPOLYLINE
  5
136
330
17
100
AcDbEntity
  8
1
 62
4
100
AcDbPolyline
 90
2
 70
0
 43
29.9999924998288
 10
124079.8710413406
 20
778714.6872644507
 10
124079.8710412996
 20
777914.6874644504
  0
LWPOLYLINE
  5
137
330
17
100
AcDbEntity
  8
1
 62
4
100
AcDbPolyline
 90
2
 70
0
 43
29.9999924998288
 10
108879.8748412452
 20
782114.6864143269
 10
126879.8703413408
 20
782114.6864143269
  0
LWPOLYLINE
  5
138
330
17
100
AcDbEntity
  8
1
 62
4
100
AcDbPolyline
 90
2
 70
0
 43
29.9999924998288
 10
108879.8748412452
 20
782714.6862643271
 10
126879.8703413408
 20
782714.6862643271
  0
LWPOLYLINE
  5
139
330
17
100
AcDbEntity
  8
1
 62
4
100
AcDbPolyline
 90
2
 70
0
 43
29.9999924998288
 10
108879.8748412452
 20
783314.6861143269
 10
126879.8703413408
 20
783314.6861143269
  0
LWPOLYLINE
  5
13A
330
17
100
AcDbEntity
  8
1
 62
4
100
AcDbPolyline
 90
2
 70
0
 43
29.9999924998288
 10
108879.8748412452
 20
783914.6859643272
 10
126879.8703413408
 20
783914.6859643272
  0
LWPOLYLINE
  5
13B
330
17
100
AcDbEntity
  8
1
 62
4
100
AcDbPolyline
 90
2
 70
0
 43
29.9999924998288
 10
110079.8745412452
 20
784514.6858143507
 10
110079.8745412452
 20
781314.686614327
  0
LWPOLYLINE
  5
13C
330
17
100
AcDbEntity
  8
1
 62
4
100
AcDbPolyline
 90
2
 70
0
 43
29.9999924998288
 10
111879.8740912455
 20
784514.6858143507
 10
111879.8740912455
 20
781314.686614327
  0
LWPOLYLINE
  5
13D
330
17
100
AcDbEntity
  8
1
 62
4
100
AcDbPolyline
 90
2
 70
0
 43
29.9999924998288
 10
113479.8736912453
 20
784514.6858143507
 10
113479.8736912453
 20
781314.686614327
  0
LINE
  5
13E
330
17
100
AcDbEntity
  8
1
 62
4
100
AcDbLine
 10
126879.870400524
 20
778714.6872466946
 30
0.0
 11
108879.8749005238
 21
778714.6872466946
 31
0.0
  0
LINE
  5
13F
330
17
100
AcDbEntity
  8
1
 62
4
100
AcDbLine
 10
117279.8728005242
 20
778714.687246695
 30
0.0
 11
117279.8728005242
 21
779714.6870143273
 31
0.0
  0
LINE
  5
140
330
17
100
AcDbEntity
  8
1
 62
4
100
AcDbLine
 10
118079.872600524
 20
778714.687246695
 30
0.0
 11
118079.872600524
 21
778935.6945365196
 31
0.0
  0
LINE
  5
141
330
17
100
AcDbEntity
  8
1
 62
4
100
AcDbLine
 10
115679.8732005239
 20
778714.687246695
 30
0.0
 11
115679.8732005239
 21
778935.6945365196
 31
0.0
  0
LINE
  5
142
330
17
100
AcDbEntity
  8
1
 62
4
100
AcDbLine
 10
114879.8734005241
 20
778714.687246695
 30
0.0
 11
114879.8734005241
 21
778935.6945365196
 31
0.0
  0
LINE
  5
143
330
17
100
AcDbEntity
  8
1
 62
4
100
AcDbLine
 10
116479.8730005243
 20
778714.687246695
 30
0.0
 11
116479.8730005243
 21
778935.6945365196
 31
0.0
  0
LINE
  5
144
330
17
100
AcDbEntity
  8
1
 62
4
100
AcDbLine
 10
114079.8736005242
 20
778714.687246695
 30
0.0
 11
114079.8736005242
 21
778935.6945365196
 31
0.0
  0
LINE
  5
145
330
17
100
AcDbEntity
  8
1
 62
4
100
AcDbLine
 10
112479.874000524
 20
778714.687246695
 30
0.0
 11
112479.874000524
 21
779714.6870143273
 31
0.0
  0
LINE
  5
146
330
17
100
AcDbEntity
  8
1
 62
4
100
AcDbLine
 10
111679.8742005241
 20
778714.687246695
 30
0.0
 11
111679.8742005241
 21
778935.6945365196
 31
0.0
  0
LINE
  5
147
330
17
100
AcDbEntity
  8
1
 62
4
100
AcDbLine
 10
113279.8738005239
 20
778714.687246695
 30
0.0
 11
113279.8738005239
 21
779714.6870143273
 31
0.0
  0
LINE
  5
148
330
17
100
AcDbEntity
  8
1
 62
4
100
AcDbLine
 10
111679.8742005241
 20
779614.687021695
 30
0.0
 11
111679.8742005241
 21
779614.687021695
 31
0.0
  0
LINE
  5
149
330
17
100
AcDbEntity
  8
1
 62
4
100
AcDbLine
 10
114079.8736005242
 20
779414.6870716949
 30
0.0
 11
114079.8736005242
 21
779714.6870143273
 31
0.0
  0
LINE
  5
14A
330
17
100
AcDbEntity
  8
1
 62
4
100
AcDbLine
 10
114879.8734005241
 20
779414.6870716949
 30
0.0
 11
114879.8734005241
 21
779714.6870143273
 31
0.0
  0
LINE
  5
14B
330
17
100
AcDbEntity
  8
1
 62
4
100
AcDbLine
 10
115679.8732005239
 20
779414.6870716949
 30
0.0
 11
115679.8732005239
 21
779714.6870143273
 31
0.0
  0
LINE
  5
14C
330
17
100
AcDbEntity
  8
1
 62
4
100
AcDbLine
 10
116479.8730005243
 20
779414.6870716949
 30
0.0
 11
116479.8730005243
 21
779714.6870143273
 31
0.0
  0
LINE
  5
14D
330
17
100
AcDbEntity
  8
1
 62
4
100
AcDbLine
 10
118079.872600524
 20
779485.6943990196
 30
0.0
 11
118079.872600524
 21
779714.6870143273
 31
0.0
  0
LINE
  5
14E
330
17
100
AcDbEntity
  8
1
 62
4
100
AcDbLine
 10
124966.836289536
 20
778714.6872643273
 30
0.0
 11
124966.836289536
 21
779714.6870143273
 31
0.0
  0
LINE
  5
14F
330
17
100
AcDbEntity
  8
1
 62
4
100
AcDbLine
 10
124016.8365270358
 20
778735.6945865195
 30
0.0
 11
124016.8365270358
 21
778935.6945365196
 31
0.0
  0
LINE
  5
150
330
17
100
AcDbEntity
  8
1
 62
4
100
AcDbLine
 10
125966.836039536
 20
778735.6945865195
 30
0.0
 11
125966.836039536
 21
778935.6945365196
 31
0.0
  0
LINE
  5
151
330
17
100
AcDbEntity
  8
1
 62
4
100
AcDbLine
 10
121279.871800524
 20
778714.687246695
 30
0.0
 11
121279.871800524
 21
778935.6945365196
 31
0.0
  0
LINE
  5
152
330
17
100
AcDbEntity
  8
1
 62
4
100
AcDbLine
 10
120479.8720005241
 20
778714.687246695
 30
0.0
 11
120479.8720005241
 21
778935.6945365196
 31
0.0
  0
LINE
  5
153
330
17
100
AcDbEntity
  8
1
 62
4
100
AcDbLine
 10
123116.8367520359
 20
778735.6945777036
 30
0.0
 11
123116.8367520359
 21
779735.6943453358
 31
0.0
  0
LINE
  5
154
330
17
100
AcDbEntity
  8
1
 62
4
100
AcDbLine
 10
122216.836977036
 20
778685.6945902033
 30
0.0
 11
122216.836977036
 21
778935.6945365196
 31
0.0
  0
LINE
  5
155
330
17
100
AcDbEntity
  8
1
 62
4
100
AcDbLine
 10
119679.8722005242
 20
778714.687246695
 30
0.0
 11
119679.8722005242
 21
779714.6870143273
 31
0.0
  0
LINE
  5
156
330
17
100
AcDbEntity
  8
1
 62
4
100
AcDbLine
 10
118879.8724005239
 20
778714.687246695
 30
0.0
 11
118879.8724005239
 21
778935.6945365196
 31
0.0
  0
LINE
  5
157
330
17
100
AcDbEntity
  8
1
 62
4
100
AcDbLine
 10
118879.8724005239
 20
779485.6943990196
 30
0.0
 11
118879.8724005239
 21
779714.6870143273
 31
0.0
  0
LINE
  5
158
330
17
100
AcDbEntity
  8
1
 62
4
100
AcDbLine
 10
120479.8720005241
 20
779485.6943990196
 30
0.0
 11
120479.8720005241
 21
779714.6870143273
 31
0.0
  0
LINE
  5
159
330
17
100
AcDbEntity
  8
1
 62
4
100
AcDbLine
 10
121279.871800524
 20
779485.6943990196
 30
0.0
 11
121279.871800524
 21
779714.6870143273
 31
0.0
  0
LINE
  5
15A
330
17
100
AcDbEntity
  8
1
 62
4
100
AcDbLine
 10
122216.836977036
 20
779485.6943990196
 30
0.0
 11
122216.836977036
 21
779714.6870143273
 31
0.0
  0
LINE
  5
15B
330
17
100
AcDbEntity
  8
1
 62
4
100
AcDbLine
 10
124016.8365270358
 20
779485.6943990196
 30
0.0
 11
124016.8365270358
 21
779685.6943578356
 31
0.0
  0
LINE
  5
15C
330
17
100
AcDbEntity
  8
1
 62
4
100
AcDbLine
 10
125966.836039536
 20
779535.6943865198
 30
0.0
 11
125966.836039536
 21
779725.1906798313
 31
0.0
  0
MTEXT
  5
15D
330
17
100
AcDbEntity
  8
0
 62
4
100
AcDbMText
 10
111300.2477154245
 20
779242.8323797839
 30
0.0
 40
399.9999000000001
 41
577.4797297686209
 46
0.0
 71
5
 72
5
  1
P
101
Embedded Object
 70
1
 10
1.0
 20
0.0
 30
0.0
 11
111300.2477154245
 21
779242.8323797839
 31
0.0
 40
577.4797297686209
 41
0.0
 42
175.1954869273743
 43
-1.0
 71
2
 72
1
 44
577.4797297686209
 45
99.99997500000002
 73
0
 74
0
 46
0.0
  0
MTEXT
  5
15E
330
17
100
AcDbEntity
  8
0
 62
4
100
AcDbMText
 10
112066.8395145357
 20
779235.6944615197
 30
0.0
 40
399.9999000000001
 41
676.010245759446
 46
0.0
 71
5
 72
5
  1
C
101
Embedded Object
 70
1
 10
1.0
 20
0.0
 30
0.0
 11
112066.8395145357
 21
779235.6944615197
 31
0.0
 40
676.010245759446
 41
0.0
 42
173.6312415083799
 43
-1.0
 71
2
 72
1
 44
676.010245759446
 45
99.99997500000002
 73
0
 74
0
 46
0.0
  0
LINE
  5
15F
330
17
100
AcDbEntity
  8
0
 62
4
100
AcDbLine
 10
111679.8742005241
 20
779714.6870143273
 30
0.0
 11
111679.8742005241
 21
779414.6870716949
 31
0.0
  0
TEXT
  5
160
330
17
100
AcDbEntity
  8
1
 62
4
100
AcDbText
 10
124358.7189989652
 20
769743.8907524802
 30
0.0
 40
249.9999375
  1
比 例
 41
0.8
100
AcDbText
  0
TEXT
  5
161
330
17
100
AcDbEntity
  8
1
 62
4
100
AcDbText
 10
124426.9190569499
 20
769384.0398461864
 30
0.0
 40
199.99995
  1
Scale
 41
0.8
100
AcDbText
  0
TEXT
  5
162
330
17
100
AcDbEntity
  8
1
 62
4
100
AcDbText
 10
124371.5919277471
 20
770572.7954725445
 30
0.0
 40
249.9999375
  1
专 业
 41
0.8
100
AcDbText
  0
TEXT
  5
163
330
17
100
AcDbEntity
  8
1
 62
4
100
AcDbText
 10
124497.1092435236
 20
770212.9445662502
 30
0.0
 40
199.99995
  1
Spec.
 41
0.8
100
AcDbText
  0
TEXT
  5
164
330
17
100
AcDbEntity
  8
1
 62
4
100
AcDbText
 10
124399.2150119755
 20
771341.4804806238
 30
0.0
 40
249.9999375
  1
图 幅
 41
0.8
100
AcDbText
  0
TEXT
  5
165
330
17
100
AcDbEntity
  8
1
 62
4
100
AcDbText
 10
124524.7323277521
 20
770981.6295743295
 30
0.0
 40
199.99995
  1
Size
 41
0.8
100
AcDbText
  0
TEXT
  5
166
330
17
100
AcDbEntity
  8
1
 62
4
100
AcDbText
 10
124118.2304898634
 20
768959.1961666112
 30
0.0
 40
249.9999375
  1
第     张      共     张
 41
0.8
100
AcDbText
  0
TEXT
  5
167
330
17
100
AcDbEntity
  8
1
 62
4
100
AcDbText
 10
124134.5732906054
 20
768604.1410982729
 30
0.0
 40
199.99995
  1
Page       of  
 41
0.8
100
AcDbText
  0
LWPOLYLINE
  5
168
330
17
100
AcDbEntity
  8
1
 62
4
100
AcDbPolyline
 90
2
 70
0
 43
29.9999924998363
 10
109679.8746413405
 20
772714.6887643266
 10
109679.8746413405
 20
768514.6898143495
  0
TEXT
  5
169
330
17
100
AcDbEntity
  8
1
 62
4
 48
0.8
100
AcDbText
 10
109056.9649371046
 20
775514.6891738976
 30
0.0
 40
269.9999325000001
  1
本文件产权属中国核电工程有限公司（CNPE）所有，未经书面许可，不得以任何方式复制、传播、发表和外传。
 41
0.7
100
AcDbText
  0
TEXT
  5
16A
330
17
100
AcDbEntity
  8
1
 62
4
 48
0.8
100
AcDbText
 10
109088.4471131412
 20
775040.6259683956
 30
0.0
 40
269.9999325000001
  1
This document is the property of China Nuclear Power Engineering CO.,LTD (CNPE) , no part of this document may be reproduced 
 41
0.7
100
AcDbText
  0
TEXT
  5
16B
330
17
100
AcDbEntity
  8
1
 62
4
 48
0.8
100
AcDbText
 10
109088.4471131412
 20
774616.4592764167
 30
0.0
 40
269.9999325000001
  1
by any means , nor transmitted without the written  permission of CNPE .
 41
0.7
100
AcDbText
  0
TEXT
  5
16C
330
17
100
AcDbEntity
  8
PUB_TEXT
 62
4
100
AcDbText
 10
124193.9931790515
 20
773113.184693905
 30
0.0
 40
799.9998000000002
  1
CNPE
 41
0.8916178034578528
 72
5
 11
126234.2532963402
 21
773113.184693905
 31
0.0
100
AcDbText
  0
TEXT
  5
16D
330
17
100
AcDbEntity
  8
1
 62
4
100
AcDbText
 10
112192.900256451
 20
772986.2531968838
 30
0.0
 40
399.9999000000001
  1
China Nuclear Power Engineering Co., Ltd
 41
0.9904477144148538
 72
5
 11
123524.9472509337
 21
772986.2531968838
 31
0.0
100
AcDbText
  0
TEXT
  5
16E
330
17
100
AcDbEntity
  8
1
 62
4
100
AcDbText
 10
113371.7765453656
 20
773741.235524638
 30
0.0
 40
399.9999000000001
  1
中 国 核 电 工 程 有 限 公 司
 41
1.015354228751786
 72
5
 11
121794.109405428
 21
773741.235524638
 31
0.0
100
AcDbText
  0
TEXT
  5
16F
330
17
100
AcDbEntity
  8
1
 62
4
100
AcDbText
 10
109778.4122150729
 20
771818.3889081677
 30
0.0
 40
239.9999400000001
  1
设计主持人
 41
0.8
100
AcDbText
  0
TEXT
  5
170
330
17
100
AcDbEntity
  8
1
 62
4
100
AcDbText
 10
109810.9347522508
 20
771231.943874827
 30
0.0
 40
239.9999400000001
  1
所负责人
 41
0.8
100
AcDbText
  0
TEXT
  5
171
330
17
100
AcDbEntity
  8
1
 62
4
100
AcDbText
 10
109800.0462648834
 20
770629.0887777855
 30
0.0
 40
239.9999400000001
  1
室负责人
 41
0.8
100
AcDbText
  0
TEXT
  5
172
330
17
100
AcDbEntity
  8
1
 62
4
100
AcDbText
 10
109756.6829100538
 20
770038.6434502992
 30
0.0
 40
239.9999400000001
  1
工种负责人
 41
0.8
100
AcDbText
  0
TEXT
  5
173
330
17
100
AcDbEntity
  8
1
 62
4
100
AcDbText
 10
109832.5688020613
 20
769394.0715481428
 30
0.0
 40
239.9999400000001
  1
校 对 者
 41
0.8
100
AcDbText
  0
TEXT
  5
174
330
17
100
AcDbEntity
  8
1
 62
4
100
AcDbText
 10
109832.5688020613
 20
768809.118435705
 30
0.0
 40
239.9999400000001
  1
设 计 者
 41
0.8
100
AcDbText
  0
TEXT
  5
175
330
17
100
AcDbEntity
  8
1
 62
4
100
AcDbText
 10
108963.6692979907
 20
770380.447006435
 30
0.0
 40
239.9999400000001
  1
审 核
 41
0.8
100
AcDbText
  0
TEXT
  5
176
330
17
100
AcDbEntity
  8
1
 62
4
100
AcDbText
 10
108980.958679979
 20
770092.5662814
 30
0.0
 40
199.99995
  1
Rev.by
 41
0.8
100
AcDbText
  0
TEXT
  5
177
330
17
100
AcDbEntity
  8
1
 62
4
100
AcDbText
 10
108940.0972805282
 20
771586.3357204179
 30
0.0
 40
239.9999400000001
  1
审 定
 41
0.8
100
AcDbText
  0
TEXT
  5
178
330
17
100
AcDbEntity
  8
1
 62
4
100
AcDbText
 10
108912.4058299887
 20
771298.4549953825
 30
0.0
 40
199.99995
  1
Auth.by
 41
0.8
100
AcDbText
  0
TEXT
  5
179
330
17
100
AcDbEntity
  8
1
 62
4
100
AcDbText
 10
108944.1587571467
 20
772416.260469111
 30
0.0
 40
239.9999400000001
  1
审 批
 41
0.8
100
AcDbText
  0
TEXT
  5
17A
330
17
100
AcDbEntity
  8
1
 62
4
100
AcDbText
 10
108946.3219155351
 20
772182.6013855118
 30
0.0
 40
199.99995
  1
App.by
 41
0.8
100
AcDbText
  0
TEXT
  5
17B
330
17
100
AcDbEntity
  8
1
 62
4
100
AcDbText
 10
108972.7989894792
 20
768824.0853300741
 30
0.0
 40
239.9999400000001
  1
设 计
 41
0.8
100
AcDbText
  0
TEXT
  5
17C
330
17
100
AcDbEntity
  8
1
 62
4
100
AcDbText
 10
108988.8011679233
 20
768578.6468865102
 30
0.0
 40
199.99995
  1
Des.by
 41
0.8
100
AcDbText
  0
TEXT
  5
17D
330
17
100
AcDbEntity
  8
1
 62
4
100
AcDbText
 10
108964.7348199657
 20
769417.4842396135
 30
0.0
 40
239.9999400000001
  1
校 核
 41
0.8
100
AcDbText
  0
TEXT
  5
17E
330
17
100
AcDbEntity
  8
1
 62
4
100
AcDbText
 10
108973.9705190638
 20
769172.8417754987
 30
0.0
 40
199.99995
  1
Chk.by
 41
0.8
100
AcDbText
  0
TEXT
  5
17F
330
17
100
AcDbEntity
  8
1
 62
4
 48
0.8
100
AcDbText
 10
118501.2810956215
 20
772258.6675102882
 30
0.0
 40
249.9999375
  1
子项号
 41
0.8
100
AcDbText
  0
TEXT
  5
180
330
17
100
AcDbEntity
  8
1
 62
4
100
AcDbText
 10
115389.8478227945
 20
771875.3404832635
 30
0.0
 40
249.9999375
  1
Proj.
 41
0.8
100
AcDbText
  0
TEXT
  5
181
330
17
100
AcDbEntity
  8
1
 62
4
100
AcDbText
 10
118546.7429213177
 20
771878.9958789333
 30
0.0
 40
249.9999375
  1
Item
 41
0.8
100
AcDbText
  0
TEXT
  5
182
330
17
100
AcDbEntity
  8
1
 62
4
 48
0.8
100
AcDbText
 10
121672.6681908982
 20
772265.6860293465
 30
0.0
 40
249.9999375
  1
图号
 41
0.8
100
AcDbText
  0
TEXT
  5
183
330
17
100
AcDbEntity
  8
1
 62
4
100
AcDbText
 10
121694.5538759216
 20
771850.7806625416
 30
0.0
 40
249.9999375
  1
No.
 41
0.8
100
AcDbText
  0
TEXT
  5
184
330
17
100
AcDbEntity
  8
1
 62
4
100
AcDbText
 10
109822.7291199931
 20
771550.647443008
 30
0.0
 40
199.99995
  1
Design Master
 41
0.8
100
AcDbText
  0
TEXT
  5
185
330
17
100
AcDbEntity
  8
1
 62
4
100
AcDbText
 10
109885.4954243747
 20
768566.8272833613
 30
0.0
 40
199.99995
  1
Desiged
 41
0.8
100
AcDbText
  0
TEXT
  5
186
330
17
100
AcDbEntity
  8
1
 62
4
100
AcDbText
 10
109889.6889203664
 20
769136.6316994204
 30
0.0
 40
199.99995
  1
Checked
 41
0.8
100
AcDbText
  0
TEXT
  5
187
330
17
100
AcDbEntity
  8
1
 62
4
100
AcDbText
 10
109742.7022873352
 20
769773.2939586573
 30
0.0
 40
199.99995
  1
Pro. Manager
 41
0.8
100
AcDbText
  0
TEXT
  5
188
330
17
100
AcDbEntity
  8
1
 62
4
100
AcDbText
 10
109722.3070739389
 20
770372.5554680013
 30
0.0
 40
199.99995
  1
Grp. Director
 41
0.8
100
AcDbText
  0
TEXT
  5
189
330
17
100
AcDbEntity
  8
1
 62
4
100
AcDbText
 10
109741.8688143154
 20
770975.1216841916
 30
0.0
 40
199.99995
  1
Dep. Director
 41
0.8
100
AcDbText
  0
TEXT
  5
18A
330
17
100
AcDbEntity
  8
1
 62
4
 48
0.8
100
AcDbText
 10
115321.8213792311
 20
772226.8289831424
 30
0.0
 40
249.9999375
  1
工程号
 41
0.8
100
AcDbText
  0
TEXT
  5
18B
330
17
100
AcDbEntity
  8
1
 62
4
100
AcDbText
 10
124399.2150120589
 20
778341.4787129875
 30
0.0
 40
249.9999375
  1
版 次
 41
0.8
100
AcDbText
  0
TEXT
  5
18C
330
17
100
AcDbEntity
  8
1
 62
4
100
AcDbText
 10
124524.7323278354
 20
777981.6278066937
 30
0.0
 40
199.99995
  1
Rev.
 41
0.8
100
AcDbText
  0
TEXT
  5
18D
330
17
100
AcDbEntity
  8
0
 62
4
100
AcDbText
 10
113346.3218859185
 20
780621.4967386721
 30
0.0
 40
499.9998750000001
  1
巴基斯坦恰希玛核电厂五号机组
 41
0.8
100
AcDbText
  0
TEXT
  5
18E
330
17
100
AcDbEntity
  8
0
 62
4
100
AcDbText
 10
110151.4312647337
 20
779895.8526105786
 30
0.0
 40
499.9998750000001
  1
PAKISTAN CHASHMA NUCLEAR POWER PROJECT UNIT-5
 41
0.8
100
AcDbText
  0
TEXT
  5
18F
330
17
100
AcDbEntity
  8
1
 62
4
100
AcDbText
 10
112458.1698038418
 20
781802.0318817281
 30
0.0
 40
287.9999280000001
  1
状态
 41
0.8
100
AcDbText
  0
TEXT
  5
190
330
17
100
AcDbEntity
  8
1
 62
4
100
AcDbText
 10
109105.0521284521
 20
781780.4034205311
 30
0.0
 40
287.9999280000002
  1
版次
 41
0.8
100
AcDbText
  0
TEXT
  5
191
330
17
100
AcDbEntity
  8
1
 62
4
100
AcDbText
 10
110649.7487602479
 20
781780.5365259865
 30
0.0
 40
287.9999280000001
  1
日期 
 41
0.8
100
AcDbText
  0
TEXT
  5
192
330
17
100
AcDbEntity
  8
1
 62
4
100
AcDbText
 10
116475.1575306545
 20
781786.1458747409
 30
0.0
 40
287.9999280000001
  1
修  改 - 说 明
 41
0.8
100
AcDbText
  0
TEXT
  5
193
330
17
100
AcDbEntity
  8
1
 62
4
100
AcDbText
 10
112266.5658522549
 20
781405.8066521873
 30
0.0
 40
287.9999280000001
  1
Status
 41
0.8
100
AcDbText
  0
TEXT
  5
194
330
17
100
AcDbEntity
  8
1
 62
4
100
AcDbText
 10
109105.0521284521
 20
781384.1781909902
 30
0.0
 40
287.9999280000002
  1
Rev.
 41
0.8
100
AcDbText
  0
TEXT
  5
195
330
17
100
AcDbEntity
  8
1
 62
4
100
AcDbText
 10
110649.7487602479
 20
781378.1680013229
 30
0.0
 40
287.9999280000001
  1
Date
 41
0.8
100
AcDbText
  0
TEXT
  5
196
330
17
100
AcDbEntity
  8
1
 62
4
100
AcDbText
 10
115974.6513904136
 20
781442.6397317488
 30
0.0
 40
287.9999280000001
  1
Modification Description
 41
0.8
100
AcDbText
  0
TEXT
  5
197
330
17
100
AcDbEntity
  8
1
 62
4
100
AcDbText
 10
109901.7254333326
 20
772408.1727357426
 30
0.0
 40
239.9999400000001
  1
审 批 者
 41
0.8
100
AcDbText
  0
TEXT
  5
198
330
17
100
AcDbEntity
  8
1
 62
4
100
AcDbText
 10
109869.6327411628
 20
772148.6121716205
 30
0.0
 40
199.99995
  1
Approved
 41
0.8
100
AcDbText
  0
TEXT
  5
199
330
17
100
AcDbEntity
  8
TK
 62
4
100
AcDbText
 10
116824.0139766962
 20
772076.968561957
 30
0.0
 40
299.9999250000001
  1
1818
 41
0.7
100
AcDbText
  0
TEXT
  5
19A
330
17
100
AcDbEntity
  8
0
 62
4
100
AcDbText
 10
112729.0900034679
 20
779042.172919795
 30
0.0
 40
399.9999000000001
  1
5
 41
0.8
 11
112729.0900034679
 21
778961.7260125325
 31
0.0
100
AcDbText
 73
1
  0
TEXT
  5
19B
330
17
100
AcDbEntity
  8
0
 62
4
100
AcDbText
 10
126269.2514902142
 20
779025.5009461363
 30
0.0
 40
399.9999000000001
  1
D
 41
0.8
 11
126269.2514902142
 21
778945.0540388738
 31
0.0
100
AcDbText
 73
1
  0
TEXT
  5
19C
330
17
100
AcDbEntity
  8
0
 62
4
100
AcDbText
 10
125325.9914863885
 20
779025.5009461363
 30
0.0
 40
399.9999000000001
  1
S
 41
0.8
 11
125325.9914863885
 21
778945.0540388738
 31
0.0
100
AcDbText
 73
1
  0
TEXT
  5
19D
330
17
100
AcDbEntity
  8
0
 62
4
100
AcDbText
 10
113529.0898034678
 20
779042.172919795
 30
0.0
 40
399.9999000000001
  1
N
 41
0.8
 11
113529.0898034678
 21
778961.7260125325
 31
0.0
100
AcDbText
 73
1
  0
TEXT
  5
19E
330
17
100
AcDbEntity
  8
0
 62
4
100
AcDbText
 10
114329.0896034681
 20
779042.172919795
 30
0.0
 40
399.9999000000001
  1
X
 41
0.8
 11
114329.0896034681
 21
778961.7260125325
 31
0.0
100
AcDbText
 73
1
  0
TEXT
  5
19F
330
17
100
AcDbEntity
  8
0
 62
4
100
AcDbText
 10
115129.089403468
 20
779042.172919795
 30
0.0
 40
399.9999000000001
  1
D
 41
0.8
 11
115129.089403468
 21
778961.7260125325
 31
0.0
100
AcDbText
 73
1
  0
TEXT
  5
1A0
330
17
100
AcDbEntity
  8
0
 62
4
100
AcDbText
 10
115929.0892034679
 20
779042.172919795
 30
0.0
 40
399.9999000000001
  1
3
 41
0.8
 11
115929.0892034679
 21
778961.7260125325
 31
0.0
100
AcDbText
 73
1
  0
TEXT
  5
1A1
330
17
100
AcDbEntity
  8
0
 62
4
100
AcDbText
 10
116729.0890034677
 20
779042.172919795
 30
0.0
 40
399.9999000000001
  1
2
 41
0.8
 11
116729.0890034677
 21
778961.7260125325
 31
0.0
100
AcDbText
 73
1
  0
TEXT
  5
1A2
330
17
100
AcDbEntity
  8
0
 62
4
100
AcDbText
 10
117529.0888034681
 20
779042.172919795
 30
0.0
 40
399.9999000000001
  1
0
 41
0.8
 11
117529.0888034681
 21
778961.7260125325
 31
0.0
100
AcDbText
 73
1
  0
TEXT
  5
1A3
330
17
100
AcDbEntity
  8
0
 62
4
100
AcDbText
 10
119929.0882034682
 20
779042.172919795
 30
0.0
 40
399.9999000000001
  1
B
 41
0.8
 11
119929.0882034682
 21
778961.7260125325
 31
0.0
100
AcDbText
 73
1
  0
TEXT
  5
1A4
330
17
100
AcDbEntity
  8
0
 62
4
100
AcDbText
 10
120729.088003468
 20
779042.172919795
 30
0.0
 40
399.9999000000001
  1
2
 41
0.8
 11
120729.088003468
 21
778961.7260125325
 31
0.0
100
AcDbText
 73
1
  0
TEXT
  5
1A5
330
17
100
AcDbEntity
  8
0
 62
4
100
AcDbText
 10
121529.0878034679
 20
779042.172919795
 30
0.0
 40
399.9999000000001
  1
5
 41
0.8
 11
121529.0878034679
 21
778961.7260125325
 31
0.0
100
AcDbText
 73
1
  0
TEXT
  5
1A6
330
17
100
AcDbEntity
  8
0
 62
4
100
AcDbText
 10
122554.3703676889
 20
779042.172919795
 30
0.0
 40
399.9999000000001
  1
C
 41
0.8
 11
122554.3703676889
 21
778961.7260125325
 31
0.0
100
AcDbText
 73
1
  0
TEXT
  5
1A7
330
17
100
AcDbEntity
  8
0
 62
4
100
AcDbText
 10
123473.9566508246
 20
779042.172919795
 30
0.0
 40
399.9999000000001
  1
4
 41
0.8
 11
123473.9566508246
 21
778961.7260125325
 31
0.0
100
AcDbText
 73
1
  0
TEXT
  5
1A8
330
17
100
AcDbEntity
  8
0
 62
4
100
AcDbText
 10
124273.9564508244
 20
779042.172919795
 30
0.0
 40
399.9999000000001
  1
2
 41
0.8
 11
124273.9564508244
 21
778961.7260125325
 31
0.0
100
AcDbText
 73
1
  0
TEXT
  5
1A9
330
17
100
AcDbEntity
  8
1
 62
4
100
AcDbText
 10
112372.8142833964
 20
782248.8130928687
 30
0.0
 40
359.99991
  1
CFC
 41
0.7
100
AcDbText
  0
TEXT
  5
1AA
330
17
100
AcDbEntity
  8
1
 62
4
100
AcDbText
 10
109298.3288034543
 20
782227.1846316721
 30
0.0
 40
359.99991
  1
A
 41
0.7
100
AcDbText
  0
TEXT
  5
1AB
330
17
100
AcDbEntity
  8
1
 62
4
100
AcDbText
 10
110358.1612164576
 20
782235.846786993
 30
0.0
 40
359.99991
  1
2025.03
 41
0.7
100
AcDbText
  0
TEXT
  5
1AC
330
17
100
AcDbEntity
  8
TK
 62
4
100
AcDbText
 10
120253.4020778595
 20
772076.968561957
 30
0.0
 40
299.9999250000001
  1
NX
 41
0.7
100
AcDbText
  0
TEXT
  5
1AD
330
17
100
AcDbEntity
  8
1
 62
4
100
AcDbText
 10
125953.5253250234
 20
768955.1815493227
 30
0.0
 40
249.9999375
  1
1
 41
0.8
100
AcDbText
  0
TEXT
  5
1AE
330
17
100
AcDbEntity
  8
1
 62
4
100
AcDbText
 10
124458.7760011086
 20
768969.9514204621
 30
0.0
 40
249.9999375
  1
1
 41
0.8
100
AcDbText
  0
TEXT
  5
1AF
330
17
100
AcDbEntity
  8
TK
 62
4
100
AcDbText
 10
125843.631746278
 20
770557.6991796222
 30
0.0
 40
299.9999250000001
  1
结构
 41
0.8
100
AcDbText
  0
TEXT
  5
1B0
330
17
100
AcDbEntity
  8
1
 62
4
100
AcDbText
 10
124719.8535018086
 20
768580.6352256829
 30
0.0
 40
249.9999375
  1
1
 41
0.8
100
AcDbText
  0
TEXT
  5
1B1
330
17
100
AcDbEntity
  8
1
 62
4
100
AcDbText
 10
125357.0001278043
 20
768570.3627300545
 30
0.0
 40
249.9999375
  1
1
 41
0.8
100
AcDbText
  0
TEXT
  5
1B2
330
17
100
AcDbEntity
  8
1
 62
4
100
AcDbText
 10
125494.6067272828
 20
770264.913472222
 30
0.0
 40
249.9999375
  1
Structure
 41
0.8
100
AcDbText
  0
TEXT
  5
1B3
330
17
100
AcDbEntity
  8
1
 62
4
100
AcDbText
 10
117330.6852851839
 20
782223.5965474736
 30
0.0
 40
359.99991
  1
初版 FIRST ISSUE
 41
0.7
100
AcDbText
  0
LINE
  5
1B4
330
17
100
AcDbEntity
  8
1
 62
4
100
AcDbLine
 10
126879.8703414554
 20
768514.6898143467
 30
0.0
 11
108879.8748414552
 21
768514.6898143467
 31
0.0
  0
LINE
  5
1B5
330
17
100
AcDbEntity
  8
图框
 62
4
100
AcDbLine
 10
126879.8703414493
 20
768514.689814349
 30
0.0
 11
108879.8748373969
 21
768514.6898143481
 31
0.0
  0
LINE
  5
1B6
330
17
100
AcDbEntity
  8
1
 62
4
100
AcDbLine
 10
126879.8703414479
 20
768514.689814349
 30
0.0
 11
108879.8748414477
 21
768514.689814349
 31
0.0
  0
LINE
  5
1B7
330
17
100
AcDbEntity
  8
1
 62
4
100
AcDbLine
 10
126847.0551340238
 20
781850.615843316
 30
0.0
 11
126847.0551340238
 21
781850.615843316
 31
0.0
  0
LINE
  5
1B8
330
17
100
AcDbEntity
  8
1
 62
4
100
AcDbLine
 10
126847.0551340238
 20
781850.615843316
 30
0.0
 11
126847.0551340238
 21
781850.615843316
 31
0.0
  0
LINE
  5
1B9
330
17
100
AcDbEntity
  8
1
 62
4
100
AcDbLine
 10
126847.0551340238
 20
781850.615843316
 30
0.0
 11
126847.0551340238
 21
781850.615843316
 31
0.0
  0
LINE
  5
1BA
330
17
100
AcDbEntity
  8
1
 62
4
100
AcDbLine
 10
126847.0551340238
 20
781850.615843316
 30
0.0
 11
126847.0551340238
 21
781850.615843316
 31
0.0
  0
LINE
  5
1BB
330
17
100
AcDbEntity
  8
1
 62
4
100
AcDbLine
 10
126879.8703413497
 20
774520.2057910654
 30
0.0
 11
126879.8703413497
 21
781850.615843316
 31
0.0
 39
49.99998750000001
  0
LINE
  5
1BC
330
17
100
AcDbEntity
  8
图框
 62
4
100
AcDbLine
 10
126879.8703414493
 20
768514.689814349
 30
0.0
 11
108879.8748373969
 21
768514.6898143481
 31
0.0
  0
LINE
  5
1BD
330
17
100
AcDbEntity
  8
1
 62
4
100
AcDbLine
 10
126879.8703414493
 20
768514.689814349
 30
0.0
 11
108879.8748414538
 21
768514.689814349
 31
0.0
  0
TEXT
  5
1BE
330
17
100
AcDbEntity
  8
TK
 62
3
100
AcDbText
 10
117182.0262212304
 20
770501.1862272824
 30
0.0
 40
299.9999250000001
  1
标高-8.800m钢平台SPD01钢结构图
 41
0.7
100
AcDbText
  0
MTEXT
  5
1BF
330
17
100
AcDbEntity
  8
C77(文本)
100
AcDbMText
 10
112710.8981050293
 20
817190.912285773
 30
0.0
 40
350.0
 41
13014.79792133905
 46
0.0
 71
1
 72
5
  1
{\fTimes New Roman|b0|i0|c0|p18;\W1;\T0.9;2.Platform guardrail details: Refer to Section 3.3 of 18185NI-JGS04 (partial/full fixation, horizontal Type 2 with railings). Node details are shown in Figure 16 of Section 3.5 in 18185NI-JGS04.}
101
Embedded Object
 70
1
 10
1.0
 20
0.0
 30
0.0
 11
112710.8981050293
 21
817190.912285773
 31
0.0
 40
13014.79792133905
 41
0.0
 42
12970.69214131218
 43
1654.698389810142
 71
2
 72
1
 44
13014.79792133905
 45
5000.0
 73
0
 74
0
 46
0.0
  0
MTEXT
  5
1C0
330
17
100
AcDbEntity
  8
C77(文本)
100
AcDbMText
 10
112710.8981050293
 20
815266.474892754
 30
0.0
 40
350.0
 41
13014.79792133905
 46
0.0
 71
1
 72
5
  1
\pxqj,t3;{\fTimes New Roman|b0|i0|c0|p18;\W1;\T0.9;3.Staircase safety guardrails: Refer to Figure 1 in Section 3.4 and Figure 13 in Section 3.5 of 18185NI-JGS04.  }
101
Embedded Object
 70
1
 10
1.0
 20
0.0
 30
0.0
 11
112710.8981050293
 21
815266.474892754
 31
0.0
 40
13014.79792133905
 41
0.0
 42
13014.79792133905
 43
1062.53304494112
 71
2
 72
1
 44
13014.79792133905
 45
5000.0
 73
0
 74
0
 46
0.0
  0
MTEXT
  5
1C1
330
17
100
AcDbEntity
  8
C77(文本)
100
AcDbMText
 10
112710.8981050293
 20
813939.9243583799
 30
0.0
 40
350.0
 41
13014.79792133905
 46
0.0
 71
1
 72
5
  1
\pxqj,t3;{\fTimes New Roman|b0|i0|c0|p18;\W1;\T0.9;4.                                L80x8 connected to concrete using E.SM12 expansion bolts @ \fTimes New Roman|b0|i0|c134|p18;≤\fTimes New Roman|b0|i0|c0|p18;400mm spacing.}
101
Embedded Object
 70
1
 10
1.0
 20
0.0
 30
0.0
 11
112710.8981050293
 21
813939.9243583799
 31
0.0
 40
13014.79792133905
 41
0.0
 42
13014.79792133905
 43
1062.53304494112
 71
2
 72
1
 44
13014.79792133905
 45
5000.0
 73
0
 74
0
 46
0.0
  0
LINE
  5
1C2
330
17
100
AcDbEntity
  8
C77(文本)
  6
Continuous
 62
7
100
AcDbLine
 10
116854.5990641781
 20
813538.617372413
 30
0.0
 11
116854.5990641781
 21
813948.617372413
 31
0.0
  0
MTEXT
  5
1C3
330
17
100
AcDbEntity
  8
C77(文本)
100
AcDbMText
 10
112710.8981050293
 20
812656.9166590878
 30
0.0
 40
350.0
 41
13014.79792133905
 46
0.0
 71
1
 72
5
  1
\pxqj,t3;{\fTimes New Roman|b0|i0|c0|p18;\W1;\T0.9;5.Dimensions of gusset plates may be adjusted based on field measurements.}
101
Embedded Object
 70
1
 10
1.0
 20
0.0
 30
0.0
 11
112710.8981050293
 21
812656.9166590878
 31
0.0
 40
13014.79792133905
 41
0.0
 42
13014.79792133905
 43
949.4832972843067
 71
2
 72
1
 44
13014.79792133905
 45
5000.0
 73
0
 74
0
 46
0.0
  0
MTEXT
  5
1C4
330
17
100
AcDbEntity
  8
C77(文本)
100
AcDbMText
 10
112710.8981050293
 20
811487.2306141694
 30
0.0
 40
350.0
 41
13014.79792133905
 46
0.0
 71
1
 72
5
  1
\pxqj,t3;{\fTimes New Roman|b0|i0|c0|p18;\W1;\T0.9;6.Grating plates shall be fully laid without gaps.  }
101
Embedded Object
 70
1
 10
1.0
 20
0.0
 30
0.0
 11
112710.8981050293
 21
811487.2306141694
 31
0.0
 40
13014.79792133905
 41
0.0
 42
8853.208363374188
 43
470.367700072098
 71
2
 72
1
 44
13014.79792133905
 45
5000.0
 73
0
 74
0
 46
0.0
  0
MTEXT
  5
1C5
330
17
100
AcDbEntity
  8
C77(文本)
100
AcDbMText
 10
112710.8981050293
 20
810839.9140812549
 30
0.0
 40
350.0
 41
13490.09665457532
 46
0.0
 71
1
 72
5
  1
\pxqj,t3;{\fTimes New Roman|b0|i0|c0|p18;\W1;\T0.9;7.Unspecified weld heights:               full-length welding   \P8.Fall protection measures: Protective measures shall be implemented during construction and maintenance to prevent fall hazards.  }
101
Embedded Object
 70
1
 10
1.0
 20
0.0
 30
0.0
 11
112710.8981050293
 21
810839.9140812549
 31
0.0
 40
13490.09665457532
 41
0.0
 42
13490.09665457532
 43
1654.698389810142
 71
2
 72
1
 44
13490.09665457532
 45
5000.0
 73
0
 74
0
 46
0.0
  0
TEXT
  5
1C6
330
17
100
AcDbEntity
  8
C77(文本)
100
AcDbText
 10
117689.5790290607
 20
810402.621724551
 30
0.0
 40
350.0
  1
h%%142f
 41
0.7
100
AcDbText
  0
TEXT
  5
1C7
330
17
100
AcDbEntity
  8
C77(文本)
100
AcDbText
 10
117945.7291214529
 20
810410.6255209696
 30
5.2256909e-08
 40
350.0
  1
=6mm
 41
0.7
100
AcDbText
  0
LINE
  5
1C8
330
17
100
AcDbEntity
  8
0
 62
1
100
AcDbLine
 10
112073.4461888967
 20
808825.2740797432
 30
0.0
 11
126887.8703412714
 21
808825.2740797432
 31
0.0
  0
TEXT
  5
1C9
330
17
100
AcDbEntity
  8
C77(文本)
 62
4
100
AcDbText
 10
117665.8922655418
 20
832298.9561223862
 30
1.0755324e-09
 40
498.75
  1
厂房索引图 Factory index map
 41
0.7
 11
117665.8922655418
 21
832298.9561223862
 31
1.0755324e-09
100
AcDbText
 73
1
  0
TEXT
  5
1CA
330
17
100
AcDbEntity
  8
C77(文本)
100
AcDbText
 10
104787.7058011291
 20
849544.8794025521
 30
0.0
 40
350.0
  1
Name
 41
0.7
100
AcDbText
  0
TEXT
  5
1CB
330
17
100
AcDbEntity
  8
C77(文本)
100
AcDbText
 10
106093.1620502614
 20
849544.8794025521
 30
0.0
 40
350.0
  1
Num.
 41
0.7
100
AcDbText
  0
TEXT
  5
1CC
330
17
100
AcDbEntity
  8
C77(文本)
100
AcDbText
 10
107048.2852390816
 20
849544.8794025521
 30
0.0
 40
350.0
  1
section（specification）
 41
0.7
100
AcDbText
  0
TEXT
  5
1CD
330
17
100
AcDbEntity
  8
C77(文本)
100
AcDbText
 10
110747.5323101182
 20
849544.8794025521
 30
0.0
 40
350.0
  1
remarks
 41
0.7
100
AcDbText
  0
LINE
  5
1CE
330
17
100
AcDbEntity
  8
0
 62
1
100
AcDbLine
 10
112073.4461888958
 20
820030.194783884
 30
0.0
 11
126887.8703412691
 21
820030.194783884
 31
0.0
  0
TEXT
  5
1CF
330
17
100
AcDbEntity
  8
C77(文本)
 62
7
100
AcDbText
 10
112806.8307660546
 20
829366.274951728
 30
0.0
 40
480.0
  1
说明:（除图中特别注明外）
 41
0.7
100
AcDbText
  0
TEXT
  5
1D0
330
17
100
AcDbEntity
  8
C77(文本)
 62
7
100
AcDbText
 10
112969.9029527295
 20
828427.8272971174
 30
0.0
 40
480.0
  1
1.相关施工图：
 41
0.7
100
AcDbText
  0
TEXT
  5
1D1
330
17
100
AcDbEntity
  8
C77(文本)
 62
7
100
AcDbText
 10
112936.5551539583
 20
826954.3753231977
 30
0.0
 40
480.0
  1
2.平台护栏做法见18185NI-JGS04第3.3节（部分固定和全固定的水
 41
0.7
100
AcDbText
  0
TEXT
  5
1D2
330
17
100
AcDbEntity
  8
C77(文本)
 62
7
100
AcDbText
 10
113384.4791754967
 20
826150.3163493531
 30
0.0
 40
480.0
  1
平2型，带水平横杆），节点详图见18185NI-JGS04第3.5节图16。
 41
0.7
100
AcDbText
  0
TEXT
  5
1D3
330
17
100
AcDbEntity
  8
C77(文本)
 62
7
100
AcDbText
 10
112979.4937140893
 20
825417.8157240268
 30
5.2256909e-08
 40
450.0
  1
3.钢梯安全护栏见18185NI-JGS04 3.4节图1及3.5节图13。
 41
0.7
100
AcDbText
  0
TEXT
  5
1D4
330
17
100
AcDbEntity
  8
C77(文本)
 62
7
100
AcDbText
 10
115646.0007667116
 20
828528.9568173763
 30
0.0
 40
480.0
  1
18185NX-JGS61-001
 41
0.7
100
AcDbText
  0
TEXT
  5
1D5
330
17
100
AcDbEntity
  8
C77(文本)
 62
7
100
AcDbText
 10
115661.6159097648
 20
827780.0842356206
 30
0.0
 40
480.0
  1
18185NX-JGS61-010
 41
0.7
100
AcDbText
  0
LINE
  5
1D6
330
17
100
AcDbEntity
  8
C77(文本)
  6
Continuous
 62
7
100
AcDbLine
 10
117230.221054904
 20
824404.5231648622
 30
0.0
 11
117220.221054904
 21
824814.5231648622
 31
0.0
  0
LWPOLYLINE
  5
1D7
330
17
100
AcDbEntity
  8
C77(文本)
  6
Continuous
 62
7
100
AcDbPolyline
 90
2
 70
0
 43
62.5
 10
116770.221054904
 20
824594.5231648622
 10
116770.221054904
 20
824964.5231648622
  0
LWPOLYLINE
  5
1D8
330
17
100
AcDbEntity
  8
C77(文本)
  6
Continuous
 62
7
100
AcDbPolyline
 90
2
 70
0
 43
62.5
 10
114130.221054904
 20
824594.5231648622
 10
114130.221054904
 20
824964.5231648622
  0
LWPOLYLINE
  5
1D9
330
17
100
AcDbEntity
  8
C77(文本)
  6
Continuous
 62
7
100
AcDbPolyline
 90
2
 70
0
 43
62.5
 10
115510.2210549049
 20
824594.5231648622
 10
115510.2210549049
 20
824964.5231648622
  0
LINE
  5
1DA
330
17
100
AcDbEntity
  8
C77(文本)
  6
Continuous
 62
7
100
AcDbLine
 10
113720.221054904
 20
824404.5231648622
 30
0.0
 11
113720.221054904
 21
824814.5231648622
 31
0.0
  0
LWPOLYLINE
  5
1DB
330
17
100
AcDbEntity
  8
C77(文本)
  6
Continuous
 62
7
100
AcDbPolyline
 90
2
 70
0
 43
62.5
 10
113720.221054904
 20
824814.5231648622
 10
117220.221054904
 20
824814.5231648622
  0
LINE
  5
1DC
330
17
100
AcDbEntity
  8
C77(文本)
  6
Continuous
 62
7
100
AcDbLine
 10
113720.221054904
 20
824404.5231648622
 30
0.0
 11
117230.221054904
 21
824404.5231648622
 31
0.0
  0
LINE
  5
1DD
330
17
100
AcDbEntity
  8
C77(文本)
  6
Continuous
 62
7
100
AcDbLine
 10
113720.221054904
 20
824684.5231648622
 30
0.0
 11
117230.221054904
 21
824684.5231648622
 31
0.0
  0
TEXT
  5
1DE
330
17
100
AcDbEntity
  8
C77(文本)
 62
7
100
AcDbText
 10
117611.8807900201
 20
824479.7696656421
 30
0.0
 40
480.0
  1
L80x8,由E.SM12膨胀螺栓@≤400,与混凝土连接
 41
0.7
100
AcDbText
  0
TEXT
  5
1DF
330
17
100
AcDbEntity
  8
C77(文本)
 62
7
100
AcDbText
 10
112933.6422633937
 20
824454.6649700914
 30
0.0
 40
480.0
  1
4.
 41
0.7
100
AcDbText
  0
TEXT
  5
1E0
330
17
100
AcDbEntity
  8
C77(文本)
 62
7
100
AcDbText
 10
112949.3607736181
 20
823706.59934013
 30
0.0
 40
480.0
  1
5.节点板示意尺寸可根据现场实际放样执行.
 41
0.7
100
AcDbText
  0
TEXT
  5
1E1
330
17
100
AcDbEntity
  8
C77(文本)
 62
7
100
AcDbText
 10
112963.6127275068
 20
821375.118390262
 30
0.0
 40
480.0
  1
8.防坠落措施：施工期间和检修期间，应采取防护措施，避免坠落引起危险。
 41
0.7
100
AcDbText
  0
TEXT
  5
1E2
330
17
100
AcDbEntity
  8
TEXT
100
AcDbText
 10
116130.4173498981
 20
822165.0342523278
 30
0.0
 40
480.0
  1
h%%142f
 41
0.7
100
AcDbText
  0
TEXT
  5
1E3
330
17
100
AcDbEntity
  8
C77(文本)
 62
7
100
AcDbText
 10
112978.0296872284
 20
822144.0389292919
 30
5.2256909e-08
 40
480.0
  1
7.未注明焊缝高度
 41
0.7
100
AcDbText
  0
TEXT
  5
1E4
330
17
100
AcDbEntity
  8
C77(文本)
 62
7
100
AcDbText
 10
116432.8424181005
 20
822145.4292292971
 30
5.2256909e-08
 40
480.0
  1
=6mm,满焊。
 41
0.7
100
AcDbText
  0
TEXT
  5
1E5
330
17
100
AcDbEntity
  8
C77(文本)
 62
7
100
AcDbText
 10
112949.3607736181
 20
822955.3843162683
 30
0.0
 40
480.0
  1
6.平台格栅板均为满铺.
 41
0.7
100
AcDbText
  0
TEXT
  5
1E6
330
17
100
AcDbEntity
  8
TK
 62
2
100
AcDbText
 10
117702.2441817148
 20
768944.740910245
 30
0.0
 40
299.9999250000001
  1
 Steel Platform SPD01
 41
0.7
100
AcDbText
  0
CIRCLE
  5
1E7
330
17
100
AcDbEntity
  8
0
100
AcDbCircle
 10
31885.67705579475
 20
831086.4342582375
 30
0.0
 40
13991.662393919
  0
CIRCLE
  5
1E8
330
17
100
AcDbEntity
  8
0
100
AcDbCircle
 10
45877.33944971375
 20
831086.4342582375
 30
0.0
 40
13991.662393919
  0
CIRCLE
  5
1E9
330
17
100
AcDbEntity
  8
0
100
AcDbCircle
 10
59869.00184363275
 20
831086.4342582375
 30
0.0
 40
13991.662393919
  0
CIRCLE
  5
1EA
330
17
100
AcDbEntity
  8
0
100
AcDbCircle
 10
73860.66423755175
 20
831086.4342582375
 30
0.0
 40
13991.662393919
  0
CIRCLE
  5
1EB
330
17
100
AcDbEntity
  8
0
100
AcDbCircle
 10
87852.32663147076
 20
831086.4342582375
 30
0.0
 40
13991.662393919
  0
CIRCLE
  5
1EC
330
17
100
AcDbEntity
  8
0
100
AcDbCircle
 10
31885.67705579474
 20
817094.7718643185
 30
0.0
 40
13991.662393919
  0
CIRCLE
  5
1ED
330
17
100
AcDbEntity
  8
0
100
AcDbCircle
 10
45877.33944971375
 20
817094.7718643185
 30
0.0
 40
13991.662393919
  0
CIRCLE
  5
1EE
330
17
100
AcDbEntity
  8
0
100
AcDbCircle
 10
59869.00184363275
 20
817094.7718643185
 30
0.0
 40
13991.662393919
  0
CIRCLE
  5
1EF
330
17
100
AcDbEntity
  8
0
100
AcDbCircle
 10
73860.66423755175
 20
817094.7718643185
 30
0.0
 40
13991.662393919
  0
CIRCLE
  5
1F0
330
17
100
AcDbEntity
  8
0
100
AcDbCircle
 10
87852.32663147076
 20
817094.7718643185
 30
0.0
 40
13991.662393919
  0
CIRCLE
  5
1F1
330
17
100
AcDbEntity
  8
0
100
AcDbCircle
 10
31885.67705579474
 20
803103.1094703996
 30
0.0
 40
13991.662393919
  0
CIRCLE
  5
1F2
330
17
100
AcDbEntity
  8
0
100
AcDbCircle
 10
45877.33944971375
 20
803103.1094703996
 30
0.0
 40
13991.662393919
  0
CIRCLE
  5
1F3
330
17
100
AcDbEntity
  8
0
100
AcDbCircle
 10
59869.00184363275
 20
803103.1094703996
 30
0.0
 40
13991.662393919
  0
CIRCLE
  5
1F4
330
17
100
AcDbEntity
  8
0
100
AcDbCircle
 10
73860.66423755175
 20
803103.1094703996
 30
0.0
 40
13991.662393919
  0
CIRCLE
  5
1F5
330
17
100
AcDbEntity
  8
0
100
AcDbCircle
 10
87852.32663147076
 20
803103.1094703996
 30
0.0
 40
13991.662393919
  0
CIRCLE
  5
1F6
330
17
100
AcDbEntity
  8
0
100
AcDbCircle
 10
31885.67705579474
 20
789111.4470764806
 30
0.0
 40
13991.662393919
  0
CIRCLE
  5
1F7
330
17
100
AcDbEntity
  8
0
100
AcDbCircle
 10
45877.33944971375
 20
789111.4470764806
 30
0.0
 40
13991.662393919
  0
CIRCLE
  5
1F8
330
17
100
AcDbEntity
  8
0
100
AcDbCircle
 10
59869.00184363275
 20
789111.4470764806
 30
0.0
 40
13991.662393919
  0
CIRCLE
  5
1F9
330
17
100
AcDbEntity
  8
0
100
AcDbCircle
 10
73860.66423755175
 20
789111.4470764806
 30
0.0
 40
13991.662393919
  0
CIRCLE
  5
1FA
330
17
100
AcDbEntity
  8
0
100
AcDbCircle
 10
87852.32663147076
 20
789111.4470764806
 30
0.0
 40
13991.662393919
  0
ENDSEC
  0
SECTION
  2
OBJECTS
  0
DICTIONARY
  5
A
330
0
100
AcDbDictionary
280
0
281
1
  3
ACAD_COLOR
350
B
  3
ACAD_GROUP
350
C
  3
ACAD_LAYOUT
350
D
  3
ACAD_MATERIAL
350
E
  3
ACAD_MLEADERSTYLE
350
F
  3
ACAD_MLINESTYLE
350
10
  3
ACAD_PLOTSETTINGS
350
11
  3
ACAD_PLOTSTYLENAME
350
12
  3
ACAD_SCALELIST
350
14
  3
ACAD_TABLESTYLE
350
15
  3
ACAD_VISUALSTYLE
350
16
  3
EZDXF_META
350
2D
  0
DICTIONARY
  5
B
330
A
100
AcDbDictionary
280
0
281
1
  0
DICTIONARY
  5
C
330
A
100
AcDbDictionary
280
0
281
1
  0
DICTIONARY
  5
D
330
A
100
AcDbDictionary
280
0
281
1
  3
Model
350
1A
  3
Layout1
350
1E
  0
DICTIONARY
  5
E
330
A
100
AcDbDictionary
280
0
281
1
  3
ByBlock
350
1F
  3
ByLayer
350
20
  3
Global
350
21
  0
DICTIONARY
  5
F
330
A
100
AcDbDictionary
280
0
281
1
  3
Standard
350
2C
  0
DICTIONARY
  5
10
330
A
100
AcDbDictionary
280
0
281
1
  3
Standard
350
22
  0
DICTIONARY
  5
11
330
A
100
AcDbDictionary
280
0
281
1
  0
ACDBDICTIONARYWDFLT
  5
12
330
A
100
AcDbDictionary
280
0
281
1
  3
Normal
350
13
100
AcDbDictionaryWithDefault
340
13
  0
ACDBPLACEHOLDER
  5
13
330
12
  0
DICTIONARY
  5
14
330
A
100
AcDbDictionary
280
0
281
1
  0
DICTIONARY
  5
15
330
A
100
AcDbDictionary
280
0
281
1
  0
DICTIONARY
  5
16
330
A
100
AcDbDictionary
280
0
281
1
  0
LAYOUT
  5
1A
330
D
100
AcDbPlotSettings
  1

  4
A3
  6

 40
7.5
 41
20.0
 42
7.5
 43
20.0
 44
420.0
 45
297.0
 46
0.0
 47
0.0
 48
0.0
 49
0.0
140
0.0
141
0.0
142
1.0
143
1.0
 70
1024
 72
1
 73
0
 74
5
  7

 75
16
 76
0
 77
2
 78
300
147
1.0
148
0.0
149
0.0
100
AcDbLayout
  1
Model
 70
1
 71
0
 10
0.0
 20
0.0
 11
420.0
 21
297.0
 12
0.0
 22
0.0
 32
0.0
 14
1e+20
 24
1e+20
 34
1e+20
 15
-1e+20
 25
-1e+20
 35
-1e+20
146
0.0
 13
0.0
 23
0.0
 33
0.0
 16
1.0
 26
0.0
 36
0.0
 17
0.0
 27
1.0
 37
0.0
 76
1
330
17
  0
LAYOUT
  5
1E
330
D
100
AcDbPlotSettings
  1

  4
A3
  6

 40
7.5
 41
20.0
 42
7.5
 43
20.0
 44
420.0
 45
297.0
 46
0.0
 47
0.0
 48
0.0
 49
0.0
140
0.0
141
0.0
142
1.0
143
1.0
 70
0
 72
1
 73
0
 74
5
  7

 75
16
 76
0
 77
2
 78
300
147
1.0
148
0.0
149
0.0
100
AcDbLayout
  1
Layout1
 70
1
 71
1
 10
0.0
 20
0.0
 11
420.0
 21
297.0
 12
0.0
 22
0.0
 32
0.0
 14
1e+20
 24
1e+20
 34
1e+20
 15
-1e+20
 25
-1e+20
 35
-1e+20
146
0.0
 13
0.0
 23
0.0
 33
0.0
 16
1.0
 26
0.0
 36
0.0
 17
0.0
 27
1.0
 37
0.0
 76
1
330
1B
  0
MATERIAL
  5
1F
102
{ACAD_REACTORS
330
E
102
}
330
E
100
AcDbMaterial
  1
ByBlock
  2

 70
0
 40
1.0
 71
1
 41
1.0
 91
-1023410177
 42
1.0
 72
1
  3

 73
1
 74
1
 75
1
 44
0.5
 73
0
 45
1.0
 46
1.0
 77
1
  4

 78
1
 79
1
170
1
 48
1.0
171
1
  6

172
1
173
1
174
1
140
1.0
141
1.0
175
1
  7

176
1
177
1
178
1
143
1.0
179
1
  8

270
1
271
1
272
1
145
1.0
146
1.0
273
1
  9

274
1
275
1
276
1
 42
1.0
 72
1
  3

 73
1
 74
1
 75
1
 94
63
  0
MATERIAL
  5
20
102
{ACAD_REACTORS
330
E
102
}
330
E
100
AcDbMaterial
  1
ByLayer
  2

 70
0
 40
1.0
 71
1
 41
1.0
 91
-1023410177
 42
1.0
 72
1
  3

 73
1
 74
1
 75
1
 44
0.5
 73
0
 45
1.0
 46
1.0
 77
1
  4

 78
1
 79
1
170
1
 48
1.0
171
1
  6

172
1
173
1
174
1
140
1.0
141
1.0
175
1
  7

176
1
177
1
178
1
143
1.0
179
1
  8

270
1
271
1
272
1
145
1.0
146
1.0
273
1
  9

274
1
275
1
276
1
 42
1.0
 72
1
  3

 73
1
 74
1
 75
1
 94
63
  0
MATERIAL
  5
21
102
{ACAD_REACTORS
330
E
102
}
330
E
100
AcDbMaterial
  1
Global
  2

 70
0
 40
1.0
 71
1
 41
1.0
 91
-1023410177
 42
1.0
 72
1
  3

 73
1
 74
1
 75
1
 44
0.5
 73
0
 45
1.0
 46
1.0
 77
1
  4

 78
1
 79
1
170
1
 48
1.0
171
1
  6

172
1
173
1
174
1
140
1.0
141
1.0
175
1
  7

176
1
177
1
178
1
143
1.0
179
1
  8

270
1
271
1
272
1
145
1.0
146
1.0
273
1
  9

274
1
275
1
276
1
 42
1.0
 72
1
  3

 73
1
 74
1
 75
1
 94
63
  0
MLINESTYLE
  5
22
102
{ACAD_REACTORS
330
10
102
}
330
10
100
AcDbMlineStyle
  2
Standard
 70
0
  3

 62
256
 51
90.0
 52
90.0
 71
2
 49
0.5
 62
256
  6
BYLAYER
 49
-0.5
 62
256
  6
BYLAYER
  0
MLEADERSTYLE
  5
2C
102
{ACAD_REACTORS
330
F
102
}
330
F
100
AcDbMLeaderStyle
179
2
170
2
171
1
172
0
 90
2
 40
0.0
 41
0.0
173
1
 91
-1056964608
 92
-2
290
1
 42
2.0
291
1
 43
8.0
  3
Standard
 44
4.0
300

342
29
174
1
175
1
176
0
178
1
 93
-1056964608
 45
4.0
292
0
297
0
 46
4.0
 94
-1056964608
 47
1.0
 49
1.0
140
1.0
294
1
141
0.0
177
0
142
1.0
295
0
296
0
143
3.75
271
0
272
9
273
9
  0
DICTIONARY
  5
2D
330
A
100
AcDbDictionary
281
1
  3
CREATED_BY_EZDXF
350
2E
  3
WRITTEN_BY_EZDXF
350
1FD
  0
DICTIONARYVAR
  5
2E
330
2D
100
DictionaryVariables
280
0
  1
1.4.1 @ 2026-02-10T09:57:48.191980+00:00
  0
DICTIONARYVAR
  5
1FD
330
2D
100
DictionaryVariables
280
0
  1
1.4.1 @ 2026-02-10T09:57:50.683708+00:00
  0
ENDSEC
  0
EOF
