  0
SECTION
  2
HEADER
  9
$ACADVER
  1
AC1032
  9
$ACADMAINTVER
 90
4
  9
$DWGCODEPAGE
  3
ANSI_1252
  9
$LASTSAVEDBY
  1
ezdxf
  9
$REQUIREDVERSIONS
160
0
  9
$INSBASE
 10
0.0
 20
0.0
 30
0.0
  9
$EXTMIN
 10
1e+20
 20
1e+20
 30
1e+20
  9
$EXTMAX
 10
-1e+20
 20
-1e+20
 30
-1e+20
  9
$LIMMIN
 10
0.0
 20
0.0
  9
$LIMMAX
 10
420.0
 20
297.0
  9
$ORTHOMODE
 70
0
  9
$REGENMODE
 70
1
  9
$FILLMODE
 70
1
  9
$QTEXTMODE
 70
0
  9
$MIRRTEXT
 70
1
  9
$LTSCALE
 40
1.0
  9
$ATTMODE
 70
1
  9
$TEXTSIZE
 40
2.5
  9
$TRACEWID
 40
1.0
  9
$TEXTSTYLE
  7
Standard
  9
$CLAYER
  8
0
  9
$CELTYPE
  6
ByLayer
  9
$CECOLOR
 62
256
  9
$CELTSCALE
 40
1.0
  9
$DISPSILH
 70
0
  9
$DIMSCALE
 40
1.0
  9
$DIMASZ
 40
2.5
  9
$DIMEXO
 40
0.625
  9
$DIMDLI
 40
3.75
  9
$DIMRND
 40
0.0
  9
$DIMDLE
 40
0.0
  9
$DIMEXE
 40
1.25
  9
$DIMTP
 40
0.0
  9
$DIMTM
 40
0.0
  9
$DIMTXT
 40
2.5
  9
$DIMCEN
 40
2.5
  9
$DIMTSZ
 40
0.0
  9
$DIMTOL
 70
0
  9
$DIMLIM
 70
0
  9
$DIMTIH
 70
0
  9
$DIMTOH
 70
0
  9
$DIMSE1
 70
0
  9
$DIMSE2
 70
0
  9
$DIMTAD
 70
1
  9
$DIMZIN
 70
8
  9
$DIMBLK
  1

  9
$DIMASO
 70
1
  9
$DIMSHO
 70
1
  9
$DIMPOST
  1

  9
$DIMAPOST
  1

  9
$DIMALT
 70
0
  9
$DIMALTD
 70
3
  9
$DIMALTF
 40
0.03937007874
  9
$DIMLFAC
 40
1.0
  9
$DIMTOFL
 70
1
  9
$DIMTVP
 40
0.0
  9
$DIMTIX
 70
0
  9
$DIMSOXD
 70
0
  9
$DIMSAH
 70
0
  9
$DIMBLK1
  1

  9
$DIMBLK2
  1

  9
$DIMSTYLE
  2
ISO-25
  9
$DIMCLRD
 70
0
  9
$DIMCLRE
 70
0
  9
$DIMCLRT
 70
0
  9
$DIMTFAC
 40
1.0
  9
$DIMGAP
 40
0.625
  9
$DIMJUST
 70
0
  9
$DIMSD1
 70
0
  9
$DIMSD2
 70
0
  9
$DIMTOLJ
 70
0
  9
$DIMTZIN
 70
8
  9
$DIMALTZ
 70
0
  9
$DIMALTTZ
 70
0
  9
$DIMUPT
 70
0
  9
$DIMDEC
 70
2
  9
$DIMTDEC
 70
2
  9
$DIMALTU
 70
2
  9
$DIMALTTD
 70
3
  9
$DIMTXSTY
  7
Standard
  9
$DIMAUNIT
 70
0
  9
$DIMADEC
 70
0
  9
$DIMALTRND
 40
0.0
  9
$DIMAZIN
 70
0
  9
$DIMDSEP
 70
44
  9
$DIMATFIT
 70
3
  9
$DIMFRAC
 70
0
  9
$DIMLDRBLK
  1

  9
$DIMLUNIT
 70
2
  9
$DIMLWD
 70
-2
  9
$DIMLWE
 70
-2
  9
$DIMTMOVE
 70
0
  9
$DIMFXL
 40
1.0
  9
$DIMFXLON
 70
0
  9
$DIMJOGANG
 40
0.785398163397
  9
$DIMTFILL
 70
0
  9
$DIMTFILLCLR
 70
0
  9
$DIMARCSYM
 70
0
  9
$DIMLTYPE
  6

  9
$DIMLTEX1
  6

  9
$DIMLTEX2
  6

  9
$DIMTXTDIRECTION
 70
0
  9
$LUNITS
 70
2
  9
$LUPREC
 70
4
  9
$SKETCHINC
 40
1.0
  9
$FILLETRAD
 40
10.0
  9
$AUNITS
 70
0
  9
$AUPREC
 70
2
  9
$MENU
  1
.
  9
$ELEVATION
 40
0.0
  9
$PELEVATION
 40
0.0
  9
$THICKNESS
 40
0.0
  9
$LIMCHECK
 70
0
  9
$CHAMFERA
 40
0.0
  9
$CHAMFERB
 40
0.0
  9
$CHAMFERC
 40
0.0
  9
$CHAMFERD
 40
0.0
  9
$SKPOLY
 70
0
  9
$TDCREATE
 40
2461082.74875
  9
$TDUCREATE
 40
2458532.153996898
  9
$TDUPDATE
 40
2461082.7487731483
  9
$TDUUPDATE
 40
2458532.1544311
  9
$TDINDWG
 40
0.0
  9
$TDUSRTIMER
 40
0.0
  9
$USRTIMER
 70
1
  9
$ANGBASE
 50
0.0
  9
$ANGDIR
 70
0
  9
$PDMODE
 70
0
  9
$PDSIZE
 40
0.0
  9
$PLINEWID
 40
0.0
  9
$SPLFRAME
 70
0
  9
$SPLINETYPE
 70
6
  9
$SPLINESEGS
 70
8
  9
$HANDSEED
  5
10C
  9
$SURFTAB1
 70
6
  9
$SURFTAB2
 70
6
  9
$SURFTYPE
 70
6
  9
$SURFU
 70
6
  9
$SURFV
 70
6
  9
$UCSBASE
  2

  9
$UCSNAME
  2

  9
$UCSORG
 10
0.0
 20
0.0
 30
0.0
  9
$UCSXDIR
 10
1.0
 20
0.0
 30
0.0
  9
$UCSYDIR
 10
0.0
 20
1.0
 30
0.0
  9
$UCSORTHOREF
  2

  9
$UCSORTHOVIEW
 70
0
  9
$UCSORGTOP
 10
0.0
 20
0.0
 30
0.0
  9
$UCSORGBOTTOM
 10
0.0
 20
0.0
 30
0.0
  9
$UCSORGLEFT
 10
0.0
 20
0.0
 30
0.0
  9
$UCSORGRIGHT
 10
0.0
 20
0.0
 30
0.0
  9
$UCSORGFRONT
 10
0.0
 20
0.0
 30
0.0
  9
$UCSORGBACK
 10
0.0
 20
0.0
 30
0.0
  9
$PUCSBASE
  2

  9
$PUCSNAME
  2

  9
$PUCSORG
 10
0.0
 20
0.0
 30
0.0
  9
$PUCSXDIR
 10
1.0
 20
0.0
 30
0.0
  9
$PUCSYDIR
 10
0.0
 20
1.0
 30
0.0
  9
$PUCSORTHOREF
  2

  9
$PUCSORTHOVIEW
 70
0
  9
$PUCSORGTOP
 10
0.0
 20
0.0
 30
0.0
  9
$PUCSORGBOTTOM
 10
0.0
 20
0.0
 30
0.0
  9
$PUCSORGLEFT
 10
0.0
 20
0.0
 30
0.0
  9
$PUCSORGRIGHT
 10
0.0
 20
0.0
 30
0.0
  9
$PUCSORGFRONT
 10
0.0
 20
0.0
 30
0.0
  9
$PUCSORGBACK
 10
0.0
 20
0.0
 30
0.0
  9
$USERI1
 70
0
  9
$USERI2
 70
0
  9
$USERI3
 70
0
  9
$USERI4
 70
0
  9
$USERI5
 70
0
  9
$USERR1
 40
0.0
  9
$USERR2
 40
0.0
  9
$USERR3
 40
0.0
  9
$USERR4
 40
0.0
  9
$USERR5
 40
0.0
  9
$WORLDVIEW
 70
1
  9
$SHADEDGE
 70
3
  9
$SHADEDIF
 70
70
  9
$TILEMODE
 70
1
  9
$MAXACTVP
 70
64
  9
$PINSBASE
 10
0.0
 20
0.0
 30
0.0
  9
$PLIMCHECK
 70
0
  9
$PEXTMIN
 10
1e+20
 20
1e+20
 30
1e+20
  9
$PEXTMAX
 10
-1e+20
 20
-1e+20
 30
-1e+20
  9
$PLIMMIN
 10
0.0
 20
0.0
  9
$PLIMMAX
 10
420.0
 20
297.0
  9
$UNITMODE
 70
0
  9
$VISRETAIN
 70
1
  9
$PLINEGEN
 70
0
  9
$PSLTSCALE
 70
1
  9
$TREEDEPTH
 70
3020
  9
$CMLSTYLE
  2
Standard
  9
$CMLJUST
 70
0
  9
$CMLSCALE
 40
20.0
  9
$PROXYGRAPHICS
 70
1
  9
$MEASUREMENT
 70
1
  9
$CELWEIGHT
370
-1
  9
$ENDCAPS
280
0
  9
$JOINSTYLE
280
0
  9
$LWDISPLAY
290
0
  9
$INSUNITS
 70
6
  9
$HYPERLINKBASE
  1

  9
$STYLESHEET
  1

  9
$XEDIT
290
1
  9
$CEPSNTYPE
380
0
  9
$PSTYLEMODE
290
1
  9
$FINGERPRINTGUID
  2
{6E7C3409-1978-40AA-8B15-57DC4A0BD044}
  9
$VERSIONGUID
  2
{CEE2BF5A-2541-4DA6-B442-BE810BCD6408}
  9
$EXTNAMES
290
1
  9
$PSVPSCALE
 40
0.0
  9
$OLESTARTUP
290
0
  9
$SORTENTS
280
127
  9
$INDEXCTL
280
0
  9
$HIDETEXT
280
1
  9
$XCLIPFRAME
280
1
  9
$HALOGAP
280
0
  9
$OBSCOLOR
 70
257
  9
$OBSLTYPE
280
0
  9
$INTERSECTIONDISPLAY
280
0
  9
$INTERSECTIONCOLOR
 70
257
  9
$DIMASSOC
280
2
  9
$PROJECTNAME
  1

  9
$CAMERADISPLAY
290
0
  9
$LENSLENGTH
 40
50.0
  9
$CAMERAHEIGHT
 40
0.0
  9
$STEPSPERSEC
 40
24.0
  9
$STEPSIZE
 40
100.0
  9
$3DDWFPREC
 40
2.0
  9
$PSOLWIDTH
 40
0.005
  9
$PSOLHEIGHT
 40
0.08
  9
$LOFTANG1
 40
1.570796326795
  9
$LOFTANG2
 40
1.570796326795
  9
$LOFTMAG1
 40
0.0
  9
$LOFTMAG2
 40
0.0
  9
$LOFTPARAM
 70
7
  9
$LOFTNORMALS
280
1
  9
$LATITUDE
 40
37.795
  9
$LONGITUDE
 40
-122.394
  9
$NORTHDIRECTION
 40
0.0
  9
$TIMEZONE
 70
-8000
  9
$LIGHTGLYPHDISPLAY
280
1
  9
$TILEMODELIGHTSYNCH
280
1
  9
$CMATERIAL
347
20
  9
$SOLIDHIST
280
0
  9
$SHOWHIST
280
1
  9
$DWFFRAME
280
2
  9
$DGNFRAME
280
2
  9
$REALWORLDSCALE
290
1
  9
$INTERFERECOLOR
 62
256
  9
$CSHADOW
280
0
  9
$SHADOWPLANELOCATION
 40
0.0
  0
ENDSEC
  0
SECTION
  2
CLASSES
  0
CLASS
  1
ACDBDICTIONARYWDFLT
  2
AcDbDictionaryWithDefault
  3
ObjectDBX Classes
 90
0
 91
0
280
0
281
0
  0
CLASS
  1
SUN
  2
AcDbSun
  3
SCENEOE
 90
1153
 91
0
280
0
281
0
  0
CLASS
  1
VISUALSTYLE
  2
AcDbVisualStyle
  3
ObjectDBX Classes
 90
4095
 91
0
280
0
281
0
  0
CLASS
  1
MATERIAL
  2
AcDbMaterial
  3
ObjectDBX Classes
 90
1153
 91
0
280
0
281
0
  0
CLASS
  1
SCALE
  2
AcDbScale
  3
ObjectDBX Classes
 90
1153
 91
0
280
0
281
0
  0
CLASS
  1
TABLESTYLE
  2
AcDbTableStyle
  3
ObjectDBX Classes
 90
4095
 91
0
280
0
281
0
  0
CLASS
  1
MLEADERSTYLE
  2
AcDbMLeaderStyle
  3
ACDB_MLEADERSTYLE_CLASS
 90
4095
 91
0
280
0
281
0
  0
CLASS
  1
DICTIONARYVAR
  2
AcDbDictionaryVar
  3
ObjectDBX Classes
 90
0
 91
0
280
0
281
0
  0
CLASS
  1
CELLSTYLEMAP
  2
AcDbCellStyleMap
  3
ObjectDBX Classes
 90
1152
 91
0
280
0
281
0
  0
CLASS
  1
MENTALRAYRENDERSETTINGS
  2
AcDbMentalRayRenderSettings
  3
SCENEOE
 90
1024
 91
0
280
0
281
0
  0
CLASS
  1
ACDBDETAILVIEWSTYLE
  2
AcDbDetailViewStyle
  3
ObjectDBX Classes
 90
1025
 91
0
280
0
281
0
  0
CLASS
  1
ACDBSECTIONVIEWSTYLE
  2
AcDbSectionViewStyle
  3
ObjectDBX Classes
 90
1025
 91
0
280
0
281
0
  0
CLASS
  1
RASTERVARIABLES
  2
AcDbRasterVariables
  3
ISM
 90
0
 91
0
280
0
281
0
  0
CLASS
  1
ACDBPLACEHOLDER
  2
AcDbPlaceHolder
  3
ObjectDBX Classes
 90
0
 91
0
280
0
281
0
  0
CLASS
  1
LAYOUT
  2
AcDbLayout
  3
ObjectDBX Classes
 90
0
 91
0
280
0
281
0
  0
ENDSEC
  0
SECTION
  2
TABLES
  0
TABLE
  2
VPORT
  5
8
330
0
100
AcDbSymbolTable
 70
1
  0
VPORT
  5
23
330
8
100
AcDbSymbolTableRecord
100
AcDbViewportTableRecord
  2
*Active
 70
0
 10
0.0
 20
0.0
 11
1.0
 21
1.0
 12
0.0
 22
0.0
 13
0.0
 23
0.0
 14
0.5
 24
0.5
 15
0.5
 25
0.5
 16
0.0
 26
0.0
 36
1.0
 17
0.0
 27
0.0
 37
0.0
 40
1000.0
 41
1.34
 42
50.0
 43
0.0
 44
0.0
 50
0.0
 51
0.0
 71
0
 72
1000
 73
1
 74
3
 75
0
 76
0
 77
0
 78
0
281
0
 65
0
146
0.0
  0
ENDTAB
  0
TABLE
  2
LTYPE
  5
2
330
0
100
AcDbSymbolTable
 70
3
  0
LTYPE
  5
24
330
2
100
AcDbSymbolTableRecord
100
AcDbLinetypeTableRecord
  2
ByBlock
 70
0
  3

 72
65
 73
0
 40
0.0
  0
LTYPE
  5
25
330
2
100
AcDbSymbolTableRecord
100
AcDbLinetypeTableRecord
  2
ByLayer
 70
0
  3

 72
65
 73
0
 40
0.0
  0
LTYPE
  5
26
330
2
100
AcDbSymbolTableRecord
100
AcDbLinetypeTableRecord
  2
Continuous
 70
0
  3

 72
65
 73
0
 40
0.0
  0
ENDTAB
  0
TABLE
  2
LAYER
  5
1
330
0
100
AcDbSymbolTable
 70
2
  0
LAYER
  5
27
330
1
100
AcDbSymbolTableRecord
100
AcDbLayerTableRecord
  2
0
 70
0
 62
7
  6
Continuous
370
-3
390
13
347
21
  0
LAYER
  5
28
330
1
100
AcDbSymbolTableRecord
100
AcDbLayerTableRecord
  2
Defpoints
 70
0
 62
7
  6
Continuous
290
0
370
-3
390
13
347
21
  0
ENDTAB
  0
TABLE
  2
STYLE
  5
5
330
0
100
AcDbSymbolTable
 70
1
  0
STYLE
  5
29
330
5
100
AcDbSymbolTableRecord
100
AcDbTextStyleTableRecord
  2
Standard
 70
0
 40
0.0
 41
1.0
 50
0.0
 71
0
 42
2.5
  3
txt
  4

  0
ENDTAB
  0
TABLE
  2
VIEW
  5
7
330
0
100
AcDbSymbolTable
 70
0
  0
ENDTAB
  0
TABLE
  2
UCS
  5
6
330
0
100
AcDbSymbolTable
 70
0
  0
ENDTAB
  0
TABLE
  2
APPID
  5
3
330
0
100
AcDbSymbolTable
 70
3
  0
APPID
  5
2A
330
3
100
AcDbSymbolTableRecord
100
AcDbRegAppTableRecord
  2
ACAD
 70
0
  0
APPID
  5
109
330
3
100
AcDbSymbolTableRecord
100
AcDbRegAppTableRecord
  2
HATCHBACKGROUNDCOLOR
 70
0
  0
APPID
  5
10A
330
3
100
AcDbSymbolTableRecord
100
AcDbRegAppTableRecord
  2
EZDXF
 70
0
  0
ENDTAB
  0
TABLE
  2
DIMSTYLE
  5
4
330
0
100
AcDbSymbolTable
 70
1
100
AcDbDimStyleTable
  0
DIMSTYLE
105
2B
330
4
100
AcDbSymbolTableRecord
100
AcDbDimStyleTableRecord
  2
Standard
 70
0
 40
1.0
 41
2.5
 42
0.625
 43
3.75
 44
1.25
 45
0.0
 46
0.0
 47
0.0
 48
0.0
 49
2.5
140
2.5
141
2.5
142
0.0
143
0.03937007874
144
1.0
145
0.0
146
1.0
147
0.625
148
0.0
 69
0
 70
0
 71
0
 72
0
 73
0
 74
0
 75
0
 76
0
 77
1
 78
8
 79
3
170
0
171
3
172
1
173
0
174
0
175
0
176
0
177
0
178
0
179
2
271
2
272
2
273
2
274
3
275
0
276
0
277
2
278
44
279
0
280
0
281
0
282
0
283
0
284
8
285
0
286
0
288
0
289
3
290
0
371
-2
372
-2
  0
ENDTAB
  0
TABLE
  2
BLOCK_RECORD
  5
9
330
0
100
AcDbSymbolTable
 70
2
  0
BLOCK_RECORD
  5
17
330
9
100
AcDbSymbolTableRecord
100
AcDbBlockTableRecord
  2
*Model_Space
340
1A
 70
0
280
1
281
0
  0
BLOCK_RECORD
  5
1B
330
9
100
AcDbSymbolTableRecord
100
AcDbBlockTableRecord
  2
*Paper_Space
340
1E
 70
0
280
1
281
0
  0
ENDTAB
  0
ENDSEC
  0
SECTION
  2
BLOCKS
  0
BLOCK
  5
18
330
17
100
AcDbEntity
  8
0
100
AcDbBlockBegin
  2
*Model_Space
 70
0
 10
0.0
 20
0.0
 30
0.0
  3
*Model_Space
  1

  0
ENDBLK
  5
19
330
17
100
AcDbEntity
  8
0
100
AcDbBlockEnd
  0
BLOCK
  5
1C
330
1B
100
AcDbEntity
  8
0
100
AcDbBlockBegin
  2
*Paper_Space
 70
0
 10
0.0
 20
0.0
 30
0.0
  3
*Paper_Space
  1

  0
ENDBLK
  5
1D
330
1B
100
AcDbEntity
  8
0
100
AcDbBlockEnd
  0
ENDSEC
  0
SECTION
  2
ENTITIES
  0
LWPOLYLINE
  5
2F
330
17
100
AcDbEntity
  8
ttkk
100
AcDbPolyline
 90
4
 70
1
 10
9241.328840098606
 20
940686.5524249714
 10
30241.32884009768
 20
940686.5524249714
 10
30241.32884009768
 20
910986.5524249714
 10
9241.328840098606
 20
910986.5524249714
  0
LWPOLYLINE
  5
30
330
17
100
AcDbEntity
  8
ttkk
100
AcDbPolyline
 90
4
 70
1
 10
30241.32884009768
 20
940686.5524249714
 10
51241.32884009721
 20
940686.5524249714
 10
51241.32884009721
 20
910986.5524249714
 10
30241.32884009768
 20
910986.5524249714
  0
LWPOLYLINE
  5
31
330
17
100
AcDbEntity
  8
ttkk
100
AcDbPolyline
 90
4
 70
1
 10
51241.32884009721
 20
940686.5524249714
 10
72241.32884009628
 20
940686.5524249714
 10
72241.32884009628
 20
910986.5524249714
 10
51241.32884009721
 20
910986.5524249714
  0
TEXT
  5
32
330
17
100
AcDbEntity
  8
0
100
AcDbText
 10
68157.66074136112
 20
939430.411429401
 30
0.0
 40
300.0
  1
18185NX-JGS61-001(A)
 41
0.7
100
AcDbText
  0
TEXT
  5
33
330
17
100
AcDbEntity
  8
C77(文本)
 62
7
 48
5.0
100
AcDbText
 10
68858.14685803678
 20
938994.2771350835
 30
0.0
 40
300.0
  1
共 7 张  第 3 张
 41
0.7
100
AcDbText
  0
TEXT
  5
34
330
17
100
AcDbEntity
  8
0
100
AcDbText
 10
47157.66074136159
 20
939430.411429401
 30
0.0
 40
300.0
  1
18185NX-JGS61-001(A)
 41
0.7
100
AcDbText
  0
TEXT
  5
35
330
17
100
AcDbEntity
  8
C77(文本)
 62
7
 48
5.0
100
AcDbText
 10
47858.14685803725
 20
938994.2771350835
 30
0.0
 40
300.0
  1
共 7 张  第 2 张
 41
0.7
100
AcDbText
  0
LWPOLYLINE
  5
36
330
17
100
AcDbEntity
  8
ttkk
100
AcDbPolyline
 90
4
 70
1
 10
72241.32884009628
 20
940686.5524249714
 10
93241.32884009535
 20
940686.5524249714
 10
93241.32884009535
 20
910986.5524249714
 10
72241.32884009628
 20
910986.5524249714
  0
TEXT
  5
37
330
17
100
AcDbEntity
  8
0
100
AcDbText
 10
89157.66074136019
 20
939430.411429401
 30
0.0
 40
300.0
  1
18185NX-JGS61-001(A)
 41
0.7
100
AcDbText
  0
TEXT
  5
38
330
17
100
AcDbEntity
  8
C77(文本)
 62
7
 48
5.0
100
AcDbText
 10
89858.14685803585
 20
938994.2771350835
 30
0.0
 40
300.0
  1
共 7 张  第 4 张
 41
0.7
100
AcDbText
  0
TEXT
  5
39
330
17
100
AcDbEntity
  8
TK
 62
2
100
AcDbText
 10
18273.03146401819
 20
914088.8434936692
 30
0.0
 40
299.9999250000001
  1
NX厂房
 41
0.7
100
AcDbText
  0
TEXT
  5
3A
330
17
100
AcDbEntity
  8
0
 62
2
100
AcDbText
 10
21190.54260627579
 20
922014.0355304154
 30
0.0
 40
399.9999
  1
0
 41
0.8
 11
21190.54260627579
 21
921933.588623153
 31
0.0
100
AcDbText
 73
1
  0
TEXT
  5
3B
330
17
100
AcDbEntity
  8
0
 62
2
100
AcDbText
 10
21990.54240627567
 20
922014.0355304154
 30
0.0
 40
399.9999
  1
1
 41
0.8
 11
21990.54240627567
 21
921933.588623153
 31
0.0
100
AcDbText
 73
1
  0
TEXT
  5
3C
330
17
100
AcDbEntity
  8
标注
 62
4
 48
0.001
100
AcDbText
 10
25719.73464680909
 20
915006.4966844058
 30
0.0
 40
319.99992
  1
18185NX-JGS61-001
 41
0.7
100
AcDbText
  0
TEXT
  5
3D
330
17
100
AcDbEntity
  8
TK
 62
2
100
AcDbText
 10
19267.69411471885
 20
912634.4240220798
 30
0.0
 40
299.9999250000001
  1
NX Building Level -12.500m(-8.800m)
 41
0.7
100
AcDbText
  0
TEXT
  5
3E
330
17
100
AcDbEntity
  8
TK
 62
2
100
AcDbText
 10
19233.1561548489
 20
912054.906019179
 30
0.0
 40
299.9999250000001
  1
Secondary Steel Shop Drawings Notes
 41
0.7
100
AcDbText
  0
TEXT
  5
3F
330
17
100
AcDbEntity
  8
TK
100
AcDbText
 10
28555.84855971838
 20
912533.5740771875
 30
0.0
 40
299.999925
  1
1:50
 41
0.7
100
AcDbText
  0
TEXT
  5
40
330
17
100
AcDbEntity
  8
TK
100
AcDbText
 10
28654.62536749224
 20
914143.9078555699
 30
0.0
 40
299.999925
  1
A 
 41
0.7
100
AcDbText
  0
TEXT
  5
41
330
17
100
AcDbEntity
  8
TK
 62
2
100
AcDbText
 10
28887.80732417133
 20
914141.4983223256
 30
0.0
 40
133.3333
  1
4
 41
0.7
100
AcDbText
  0
LINE
  5
42
330
17
100
AcDbEntity
  8
1
 62
4
100
AcDbLine
 10
29741.32434415425
 20
911486.55242497
 30
0.0
 11
11741.32884415405
 21
911486.55242497
 31
0.0
  0
LINE
  5
43
330
17
100
AcDbEntity
  8
图框
 62
4
100
AcDbLine
 10
29741.32434414866
 20
911486.5524249718
 30
0.0
 11
11741.32884009628
 21
911486.5524249714
 31
0.0
  0
LINE
  5
44
330
17
100
AcDbEntity
  8
1
 62
4
100
AcDbLine
 10
29741.32434414726
 20
911486.5524249718
 30
0.0
 11
11741.32884414707
 21
911486.5524249718
 31
0.0
  0
LINE
  5
45
330
17
100
AcDbEntity
  8
1
 62
4
100
AcDbLine
 10
29708.50913672269
 20
924822.4784539392
 30
0.0
 11
29708.50913672269
 21
924822.4784539392
 31
0.0
  0
LINE
  5
46
330
17
100
AcDbEntity
  8
1
 62
4
100
AcDbLine
 10
29708.50913672269
 20
924822.4784539392
 30
0.0
 11
29708.50913672269
 21
924822.4784539392
 31
0.0
  0
LINE
  5
47
330
17
100
AcDbEntity
  8
1
 62
4
100
AcDbLine
 10
29708.50913672269
 20
924822.4784539392
 30
0.0
 11
29708.50913672269
 21
924822.4784539392
 31
0.0
  0
LINE
  5
48
330
17
100
AcDbEntity
  8
1
 62
4
100
AcDbLine
 10
29708.50913672269
 20
924822.4784539392
 30
0.0
 11
29708.50913672269
 21
924822.4784539392
 31
0.0
  0
LINE
  5
49
330
17
100
AcDbEntity
  8
1
 62
4
100
AcDbLine
 10
29741.32434404901
 20
917492.0684016886
 30
0.0
 11
29741.32434404901
 21
924822.4784539392
 31
0.0
 39
49.99998750000001
  0
LINE
  5
4A
330
17
100
AcDbEntity
  8
图框
 62
4
100
AcDbLine
 10
29741.32434414866
 20
911486.5524249718
 30
0.0
 11
11741.32884009628
 21
911486.5524249714
 31
0.0
  0
LWPOLYLINE
  5
4B
330
17
100
AcDbEntity
  8
1
 62
4
100
AcDbPolyline
 90
2
 70
0
 43
29.9999924998288
 10
11741.32884415265
 20
915686.5513749477
 10
29741.32434404901
 20
915686.5513749477
  0
LWPOLYLINE
  5
4C
330
17
100
AcDbEntity
  8
1
 62
4
100
AcDbPolyline
 90
2
 70
0
 43
29.9999924998288
 10
17941.32729411152
 20
914686.5516249518
 10
29741.32434404901
 20
914686.5516249518
  0
LWPOLYLINE
  5
4D
330
17
100
AcDbEntity
  8
1
 62
4
100
AcDbPolyline
 90
4
 70
1
 43
49.99998749971467
 10
11741.328844053
 20
917286.5509749477
 10
29741.32434404901
 20
917286.5509749477
 10
29741.32434404901
 20
911486.55242497
 10
11741.32884415265
 20
911486.55242497
  0
LINE
  5
4E
330
17
100
AcDbEntity
  8
1
 62
4
100
AcDbLine
 10
29741.32434414866
 20
911486.5524249718
 30
0.0
 11
11741.32884415265
 21
911486.5524249718
 31
0.0
  0
LWPOLYLINE
  5
4F
330
17
100
AcDbEntity
  8
1
 62
4
100
AcDbPolyline
 90
4
 70
1
 43
49.99998749998752
 10
11741.328844053
 20
911486.55242497
 10
29741.32434404901
 20
911486.55242497
 10
29741.32434414866
 20
927486.5484249712
 10
11741.328844053
 20
927486.5484249712
  0
LINE
  5
50
330
17
100
AcDbEntity
  8
1
 62
4
 48
0.8
100
AcDbLine
 10
11741.328844053
 20
921075.4476325114
 30
0.0
 11
11741.328844053
 21
914925.8034925665
 31
0.0
  0
LINE
  5
51
330
17
100
AcDbEntity
  8
1
 62
4
100
AcDbLine
 10
11741.32884415265
 20
915086.551524951
 30
0.0
 11
17941.32729411152
 21
915086.551524951
 31
0.0
  0
LINE
  5
52
330
17
100
AcDbEntity
  8
1
 62
4
100
AcDbLine
 10
12541.32864414787
 20
914486.551674955
 30
0.0
 11
17941.32729411152
 21
914486.551674955
 31
0.0
  0
LINE
  5
53
330
17
100
AcDbEntity
  8
1
 62
4
100
AcDbLine
 10
11741.32884415265
 20
913886.551824958
 30
0.0
 11
17941.32729411152
 21
913886.551824958
 31
0.0
  0
LINE
  5
54
330
17
100
AcDbEntity
  8
1
 62
4
100
AcDbLine
 10
12541.32864414787
 20
913286.5519749618
 30
0.0
 11
17941.32729411152
 21
913286.5519749618
 31
0.0
  0
LINE
  5
55
330
17
100
AcDbEntity
  8
1
 62
4
100
AcDbLine
 10
11741.32884415265
 20
912686.552124963
 30
0.0
 11
17941.32729411152
 21
912686.552124963
 31
0.0
  0
LINE
  5
56
330
17
100
AcDbEntity
  8
1
 62
4
100
AcDbLine
 10
11741.32884415265
 20
912086.5522749692
 30
0.0
 11
17941.32729411152
 21
912086.5522749692
 31
0.0
  0
LWPOLYLINE
  5
57
330
17
100
AcDbEntity
  8
1
 62
4
100
AcDbPolyline
 90
2
 70
0
 43
29.9999924998288
 10
14341.32819413746
 20
915686.5513749477
 10
14341.32819413746
 20
911486.55242497
  0
LWPOLYLINE
  5
58
330
17
100
AcDbEntity
  8
1
 62
4
100
AcDbPolyline
 90
2
 70
0
 43
29.9999924998288
 10
12541.32864414787
 20
915686.5513749477
 10
12541.32864414787
 20
911486.55242497
  0
LWPOLYLINE
  5
59
330
17
100
AcDbEntity
  8
1
 62
4
100
AcDbPolyline
 90
2
 70
0
 43
29.9999924998288
 10
16141.32774412658
 20
915686.5513749477
 10
16141.32774412658
 20
911486.55242497
  0
LWPOLYLINE
  5
5A
330
17
100
AcDbEntity
  8
1
 62
4
100
AcDbPolyline
 90
2
 70
0
 43
29.9999924998288
 10
17941.32729411152
 20
915686.5513749477
 10
17941.32729411152
 20
911486.55242497
  0
LWPOLYLINE
  5
5B
330
17
100
AcDbEntity
  8
1
 62
4
100
AcDbPolyline
 90
2
 70
0
 43
24.99999374985734
 10
19141.32699411156
 20
915686.5513749477
 10
19141.32699411156
 20
914686.5516249518
  0
LWPOLYLINE
  5
5C
330
17
100
AcDbEntity
  8
1
 62
4
100
AcDbPolyline
 90
2
 70
0
 43
24.99999374985734
 10
21141.32649409611
 20
915686.5513749477
 10
21141.32649409611
 20
914686.5516249518
  0
LWPOLYLINE
  5
5D
330
17
100
AcDbEntity
  8
1
 62
4
100
AcDbPolyline
 90
2
 70
0
 43
24.99999374985734
 10
22341.3261940901
 20
915686.5513749477
 10
22341.3261940901
 20
914686.5516249518
  0
LWPOLYLINE
  5
5E
330
17
100
AcDbEntity
  8
1
 62
4
100
AcDbPolyline
 90
2
 70
0
 43
24.99999374985734
 10
24341.32569408024
 20
915686.5513749477
 10
24341.32569408024
 20
914686.5516249518
  0
LWPOLYLINE
  5
5F
330
17
100
AcDbEntity
  8
1
 62
4
100
AcDbPolyline
 90
2
 70
0
 43
24.99999374985734
 10
25541.3253940747
 20
915686.5513749477
 10
25541.3253940747
 20
914686.5516249518
  0
LWPOLYLINE
  5
60
330
17
100
AcDbEntity
  8
1
 62
4
100
AcDbPolyline
 90
2
 70
0
 43
24.99999374985734
 10
28141.32474405485
 20
914686.5516249518
 10
28141.32474405485
 20
912286.5522249656
  0
LWPOLYLINE
  5
61
330
17
100
AcDbEntity
  8
1
 62
4
100
AcDbPolyline
 90
2
 70
0
 43
29.9999924998288
 10
26941.32504406505
 20
914686.5516249518
 10
26941.32504406505
 20
911486.55242497
  0
LWPOLYLINE
  5
62
330
17
100
AcDbEntity
  8
1
 62
4
100
AcDbPolyline
 90
2
 70
0
 43
24.99999374985734
 10
29741.32434404901
 20
913086.5520249628
 10
26941.32504406505
 20
913086.5520249628
  0
LWPOLYLINE
  5
63
330
17
100
AcDbEntity
  8
1
 62
4
100
AcDbPolyline
 90
2
 70
0
 43
24.99999374985734
 10
29741.32434404901
 20
912286.5522249656
 10
26941.32504406505
 20
912286.5522249656
  0
LWPOLYLINE
  5
64
330
17
100
AcDbEntity
  8
1
 62
4
100
AcDbPolyline
 90
2
 70
0
 43
24.99999374985734
 10
29741.32434404901
 20
913886.551824958
 10
26941.32504406505
 20
913886.551824958
  0
LINE
  5
65
330
17
100
AcDbEntity
  8
1
 62
4
100
AcDbLine
 10
29711.57491078161
 20
923310.712358673
 30
0.0
 11
29711.57491078161
 21
923310.712358673
 31
0.0
  0
LINE
  5
66
330
17
100
AcDbEntity
  8
1
 62
4
100
AcDbLine
 10
29711.57491078161
 20
923310.712358673
 30
0.0
 11
29711.57491078161
 21
923310.712358673
 31
0.0
  0
LINE
  5
67
330
17
100
AcDbEntity
  8
1
 62
4
100
AcDbLine
 10
29711.57491078161
 20
923310.712358673
 30
0.0
 11
29711.57491078161
 21
923310.712358673
 31
0.0
  0
LINE
  5
68
330
17
100
AcDbEntity
  8
1
 62
4
100
AcDbLine
 10
29711.57491078161
 20
923310.712358673
 30
0.0
 11
29711.57491078161
 21
923310.712358673
 31
0.0
  0
LWPOLYLINE
  5
69
330
17
100
AcDbEntity
  8
1
 62
4
100
AcDbPolyline
 90
2
 70
0
 43
29.9999924998288
 10
11741.328844053
 20
918886.5505749474
 10
29741.32434414866
 20
918886.5505749474
  0
LWPOLYLINE
  5
6A
330
17
100
AcDbEntity
  8
1
 62
4
100
AcDbPolyline
 90
2
 70
0
 43
29.9999924998288
 10
13541.3283940533
 20
920086.5502749477
 10
29741.32434414866
 20
920086.5502749477
  0
LWPOLYLINE
  5
6B
330
17
100
AcDbEntity
  8
1
 62
4
100
AcDbPolyline
 90
2
 70
0
 43
29.9999924998288
 10
13541.3283940533
 20
920886.5500749474
 10
29741.32434414866
 20
920886.5500749474
  0
LWPOLYLINE
  5
6C
330
17
100
AcDbEntity
  8
1
 62
4
100
AcDbPolyline
 90
2
 70
0
 43
29.9999924998288
 10
11741.328844053
 20
921686.5498749478
 10
29741.32434414866
 20
921686.5498749478
  0
LWPOLYLINE
  5
6D
330
17
100
AcDbEntity
  8
1
 62
4
100
AcDbPolyline
 90
2
 70
0
 43
29.9999924998288
 10
11741.328844053
 20
922686.5496249478
 10
29741.32434414866
 20
922686.5496249478
  0
LWPOLYLINE
  5
6E
330
17
100
AcDbEntity
  8
1
 62
4
100
AcDbPolyline
 90
2
 70
0
 43
29.9999924998288
 10
11741.328844053
 20
924286.5492249473
 10
29741.32434414866
 20
924286.5492249473
  0
LINE
  5
6F
330
17
100
AcDbEntity
  8
0
  6
Continuous
 62
4
100
AcDbLine
 10
13541.3283940533
 20
922686.5496249478
 30
0.0
 11
13541.3283940533
 21
918886.5505749474
 31
0.0
  0
LWPOLYLINE
  5
70
330
17
100
AcDbEntity
  8
1
 62
4
100
AcDbPolyline
 90
2
 70
0
 43
29.9999924998288
 10
13541.3283940533
 20
922686.5496249478
 10
13541.3283940533
 20
918886.5505749474
  0
TEXT
  5
71
330
17
100
AcDbEntity
  8
1
 62
4
100
AcDbText
 10
11975.81729932016
 20
922007.9998196596
 30
0.0
 40
399.9999000000001
  1
DOC.NO
 41
0.8
100
AcDbText
  0
TEXT
  5
72
330
17
100
AcDbEntity
  8
1
 62
4
 48
0.8
100
AcDbText
 10
13607.99424132312
 20
919775.9836180283
 30
0.0
 40
199.99995
  1
(+FCR,FCN,DEN,CIN, 其他 Other)
 41
0.7
100
AcDbText
  0
TEXT
  5
73
330
17
100
AcDbEntity
  8
1
 62
4
 48
0.8
100
AcDbText
 10
12121.78383140339
 20
920161.6042303484
 30
0.0
 40
249.9999375
  1
Reference
 41
0.7
100
AcDbText
  0
TEXT
  5
74
330
17
100
AcDbEntity
  8
1
 62
4
 48
0.8
100
AcDbText
 10
12205.62934220562
 20
919832.0098459552
 30
0.0
 40
249.9999375
  1
Document
 41
0.7
100
AcDbText
  0
TEXT
  5
75
330
17
100
AcDbEntity
  8
1
 62
4
 48
0.8
100
AcDbText
 10
11910.72021127565
 20
920507.2486026706
 30
0.0
 40
249.9999375
  1
参考电站编码
 41
0.7
100
AcDbText
  0
LWPOLYLINE
  5
76
330
17
100
AcDbEntity
  8
1
 62
4
100
AcDbPolyline
 90
2
 70
0
 43
29.9999924998288
 10
28341.32469414853
 20
921686.5498750092
 10
28341.32469410709
 20
920886.5500750093
  0
LWPOLYLINE
  5
77
330
17
100
AcDbEntity
  8
1
 62
4
100
AcDbPolyline
 90
2
 70
0
 43
29.9999924998288
 10
26941.3250441484
 20
921686.5498750712
 10
26941.32504410742
 20
920886.5500750708
  0
LWPOLYLINE
  5
78
330
17
100
AcDbEntity
  8
1
 62
4
100
AcDbPolyline
 90
2
 70
0
 43
29.9999924998288
 10
11741.328844053
 20
925086.5490249475
 10
29741.32434414866
 20
925086.5490249475
  0
LWPOLYLINE
  5
79
330
17
100
AcDbEntity
  8
1
 62
4
100
AcDbPolyline
 90
2
 70
0
 43
29.9999924998288
 10
11741.328844053
 20
925686.5488749476
 10
29741.32434414866
 20
925686.5488749476
  0
LWPOLYLINE
  5
7A
330
17
100
AcDbEntity
  8
1
 62
4
100
AcDbPolyline
 90
2
 70
0
 43
29.9999924998288
 10
11741.328844053
 20
926286.5487249474
 10
29741.32434414866
 20
926286.5487249474
  0
LWPOLYLINE
  5
7B
330
17
100
AcDbEntity
  8
1
 62
4
100
AcDbPolyline
 90
2
 70
0
 43
29.9999924998288
 10
11741.328844053
 20
926886.5485749476
 10
29741.32434414866
 20
926886.5485749476
  0
LWPOLYLINE
  5
7C
330
17
100
AcDbEntity
  8
1
 62
4
100
AcDbPolyline
 90
2
 70
0
 43
29.9999924998288
 10
12941.32854405305
 20
927486.5484249712
 10
12941.32854405305
 20
924286.5492249473
  0
LWPOLYLINE
  5
7D
330
17
100
AcDbEntity
  8
1
 62
4
100
AcDbPolyline
 90
2
 70
0
 43
29.9999924998288
 10
14741.32809405335
 20
927486.5484249712
 10
14741.32809405335
 20
924286.5492249473
  0
LWPOLYLINE
  5
7E
330
17
100
AcDbEntity
  8
1
 62
4
100
AcDbPolyline
 90
2
 70
0
 43
29.9999924998288
 10
16341.32769405309
 20
927486.5484249712
 10
16341.32769405309
 20
924286.5492249473
  0
LINE
  5
7F
330
17
100
AcDbEntity
  8
1
 62
4
100
AcDbLine
 10
29741.32440333188
 20
921686.549857315
 30
0.0
 11
11741.32890333168
 21
921686.549857315
 31
0.0
  0
LINE
  5
80
330
17
100
AcDbEntity
  8
1
 62
4
100
AcDbLine
 10
20141.32680333199
 20
921686.5498573154
 30
0.0
 11
20141.32680333199
 21
922686.5496249478
 31
0.0
  0
LINE
  5
81
330
17
100
AcDbEntity
  8
1
 62
4
100
AcDbLine
 10
20941.32660333187
 20
921686.5498573154
 30
0.0
 11
20941.32660333187
 21
921907.55714714
 31
0.0
  0
LINE
  5
82
330
17
100
AcDbEntity
  8
1
 62
4
100
AcDbLine
 10
18541.32720333178
 20
921686.5498573154
 30
0.0
 11
18541.32720333178
 21
921907.55714714
 31
0.0
  0
LINE
  5
83
330
17
100
AcDbEntity
  8
1
 62
4
100
AcDbLine
 10
17741.3274033319
 20
921686.5498573154
 30
0.0
 11
17741.3274033319
 21
921907.55714714
 31
0.0
  0
LINE
  5
84
330
17
100
AcDbEntity
  8
1
 62
4
100
AcDbLine
 10
19341.32700333212
 20
921686.5498573154
 30
0.0
 11
19341.32700333212
 21
921907.55714714
 31
0.0
  0
LINE
  5
85
330
17
100
AcDbEntity
  8
1
 62
4
100
AcDbLine
 10
16941.32760333203
 20
921686.5498573154
 30
0.0
 11
16941.32760333203
 21
921907.55714714
 31
0.0
  0
LINE
  5
86
330
17
100
AcDbEntity
  8
1
 62
4
100
AcDbLine
 10
15341.32800333182
 20
921686.5498573154
 30
0.0
 11
15341.32800333182
 21
922686.5496249478
 31
0.0
  0
LINE
  5
87
330
17
100
AcDbEntity
  8
1
 62
4
100
AcDbLine
 10
14541.32820333194
 20
921686.5498573154
 30
0.0
 11
14541.32820333194
 21
921907.55714714
 31
0.0
  0
LINE
  5
88
330
17
100
AcDbEntity
  8
1
 62
4
100
AcDbLine
 10
16141.32780333169
 20
921686.5498573154
 30
0.0
 11
16141.32780333169
 21
922686.5496249478
 31
0.0
  0
LINE
  5
89
330
17
100
AcDbEntity
  8
1
 62
4
100
AcDbLine
 10
14541.32820333194
 20
922586.5496323154
 30
0.0
 11
14541.32820333194
 21
922586.5496323154
 31
0.0
  0
LINE
  5
8A
330
17
100
AcDbEntity
  8
1
 62
4
100
AcDbLine
 10
16941.32760333203
 20
922386.5496823154
 30
0.0
 11
16941.32760333203
 21
922686.5496249478
 31
0.0
  0
LINE
  5
8B
330
17
100
AcDbEntity
  8
1
 62
4
100
AcDbLine
 10
17741.3274033319
 20
922386.5496823154
 30
0.0
 11
17741.3274033319
 21
922686.5496249478
 31
0.0
  0
LINE
  5
8C
330
17
100
AcDbEntity
  8
1
 62
4
100
AcDbLine
 10
18541.32720333178
 20
922386.5496823154
 30
0.0
 11
18541.32720333178
 21
922686.5496249478
 31
0.0
  0
LINE
  5
8D
330
17
100
AcDbEntity
  8
1
 62
4
100
AcDbLine
 10
19341.32700333212
 20
922386.5496823154
 30
0.0
 11
19341.32700333212
 21
922686.5496249478
 31
0.0
  0
LINE
  5
8E
330
17
100
AcDbEntity
  8
1
 62
4
100
AcDbLine
 10
20941.32660333187
 20
922457.55700964
 30
0.0
 11
20941.32660333187
 21
922686.5496249478
 31
0.0
  0
LINE
  5
8F
330
17
100
AcDbEntity
  8
1
 62
4
100
AcDbLine
 10
27828.29029234385
 20
921686.5498749478
 30
0.0
 11
27828.29029234385
 21
922686.5496249478
 31
0.0
  0
LINE
  5
90
330
17
100
AcDbEntity
  8
1
 62
4
100
AcDbLine
 10
26878.29052984368
 20
921707.55719714
 30
0.0
 11
26878.29052984368
 21
921907.55714714
 31
0.0
  0
LINE
  5
91
330
17
100
AcDbEntity
  8
1
 62
4
100
AcDbLine
 10
28828.29004234381
 20
921707.55719714
 30
0.0
 11
28828.29004234381
 21
921907.55714714
 31
0.0
  0
LINE
  5
92
330
17
100
AcDbEntity
  8
1
 62
4
100
AcDbLine
 10
24141.32580333183
 20
921686.5498573154
 30
0.0
 11
24141.32580333183
 21
921907.55714714
 31
0.0
  0
LINE
  5
93
330
17
100
AcDbEntity
  8
1
 62
4
100
AcDbLine
 10
23341.32600333196
 20
921686.5498573154
 30
0.0
 11
23341.32600333196
 21
921907.55714714
 31
0.0
  0
LINE
  5
94
330
17
100
AcDbEntity
  8
1
 62
4
100
AcDbLine
 10
25978.29075484377
 20
921707.557188324
 30
0.0
 11
25978.29075484377
 21
922707.5569559562
 31
0.0
  0
LINE
  5
95
330
17
100
AcDbEntity
  8
1
 62
4
100
AcDbLine
 10
25078.29097984385
 20
921657.5572008238
 30
0.0
 11
25078.29097984385
 21
921907.55714714
 31
0.0
  0
LINE
  5
96
330
17
100
AcDbEntity
  8
1
 62
4
100
AcDbLine
 10
22541.32620333208
 20
921686.5498573154
 30
0.0
 11
22541.32620333208
 21
922686.5496249478
 31
0.0
  0
LINE
  5
97
330
17
100
AcDbEntity
  8
1
 62
4
100
AcDbLine
 10
21741.32640333174
 20
921686.5498573154
 30
0.0
 11
21741.32640333174
 21
921907.55714714
 31
0.0
  0
LINE
  5
98
330
17
100
AcDbEntity
  8
1
 62
4
100
AcDbLine
 10
21741.32640333174
 20
922457.55700964
 30
0.0
 11
21741.32640333174
 21
922686.5496249478
 31
0.0
  0
LINE
  5
99
330
17
100
AcDbEntity
  8
1
 62
4
100
AcDbLine
 10
23341.32600333196
 20
922457.55700964
 30
0.0
 11
23341.32600333196
 21
922686.5496249478
 31
0.0
  0
LINE
  5
9A
330
17
100
AcDbEntity
  8
1
 62
4
100
AcDbLine
 10
24141.32580333183
 20
922457.55700964
 30
0.0
 11
24141.32580333183
 21
922686.5496249478
 31
0.0
  0
LINE
  5
9B
330
17
100
AcDbEntity
  8
1
 62
4
100
AcDbLine
 10
25078.29097984385
 20
922457.55700964
 30
0.0
 11
25078.29097984385
 21
922686.5496249478
 31
0.0
  0
LINE
  5
9C
330
17
100
AcDbEntity
  8
1
 62
4
100
AcDbLine
 10
26878.29052984368
 20
922457.55700964
 30
0.0
 11
26878.29052984368
 21
922657.556968456
 31
0.0
  0
LINE
  5
9D
330
17
100
AcDbEntity
  8
1
 62
4
100
AcDbLine
 10
28828.29004234381
 20
922507.5569971402
 30
0.0
 11
28828.29004234381
 21
922697.0532904518
 31
0.0
  0
MTEXT
  5
9E
330
17
100
AcDbEntity
  8
0
 62
4
100
AcDbMText
 10
14161.70171823239
 20
922214.6949904042
 30
0.0
 40
399.9999000000001
 41
577.4797297686209
 46
0.0
 71
5
 72
5
  1
P
101
Embedded Object
 70
1
 10
1.0
 20
0.0
 30
0.0
 11
14161.70171823239
 21
922214.6949904042
 31
0.0
 40
577.4797297686209
 41
0.0
 42
175.1954869273743
 43
-1.0
 71
2
 72
1
 44
577.4797297686209
 45
99.99997500000002
 73
0
 74
0
 46
0.0
  0
MTEXT
  5
9F
330
17
100
AcDbEntity
  8
0
 62
4
100
AcDbMText
 10
14928.2935173435
 20
922207.5570721402
 30
0.0
 40
399.9999000000001
 41
676.010245759446
 46
0.0
 71
5
 72
5
  1
C
101
Embedded Object
 70
1
 10
1.0
 20
0.0
 30
0.0
 11
14928.2935173435
 21
922207.5570721402
 31
0.0
 40
676.010245759446
 41
0.0
 42
173.6312415083799
 43
-1.0
 71
2
 72
1
 44
676.010245759446
 45
99.99997500000002
 73
0
 74
0
 46
0.0
  0
LINE
  5
A0
330
17
100
AcDbEntity
  8
0
 62
4
100
AcDbLine
 10
14541.32820333194
 20
922686.5496249478
 30
0.0
 11
14541.32820333194
 21
922386.5496823154
 31
0.0
  0
TEXT
  5
A1
330
17
100
AcDbEntity
  8
1
 62
4
100
AcDbText
 10
27220.17300177299
 20
912715.7533631006
 30
0.0
 40
249.9999375
  1
比 例
 41
0.8
100
AcDbText
  0
TEXT
  5
A2
330
17
100
AcDbEntity
  8
1
 62
4
100
AcDbText
 10
27288.37305975778
 20
912355.9024568069
 30
0.0
 40
199.99995
  1
Scale
 41
0.8
100
AcDbText
  0
TEXT
  5
A3
330
17
100
AcDbEntity
  8
1
 62
4
100
AcDbText
 10
27233.04593055489
 20
913544.658083165
 30
0.0
 40
249.9999375
  1
专 业
 41
0.8
100
AcDbText
  0
TEXT
  5
A4
330
17
100
AcDbEntity
  8
1
 62
4
100
AcDbText
 10
27358.56324633144
 20
913184.8071768706
 30
0.0
 40
199.99995
  1
Spec.
 41
0.8
100
AcDbText
  0
TEXT
  5
A5
330
17
100
AcDbEntity
  8
1
 62
4
100
AcDbText
 10
27260.66901478337
 20
914313.3430912442
 30
0.0
 40
249.9999375
  1
图 幅
 41
0.8
100
AcDbText
  0
TEXT
  5
A6
330
17
100
AcDbEntity
  8
1
 62
4
100
AcDbText
 10
27386.18633055993
 20
913953.49218495
 30
0.0
 40
199.99995
  1
Size
 41
0.8
100
AcDbText
  0
TEXT
  5
A7
330
17
100
AcDbEntity
  8
1
 62
4
100
AcDbText
 10
26979.6844926712
 20
911931.0587772316
 30
0.0
 40
249.9999375
  1
第     张      共     张
 41
0.8
100
AcDbText
  0
TEXT
  5
A8
330
17
100
AcDbEntity
  8
1
 62
4
100
AcDbText
 10
26996.02729341321
 20
911576.0037088934
 30
0.0
 40
199.99995
  1
Page       of  
 41
0.8
100
AcDbText
  0
LWPOLYLINE
  5
A9
330
17
100
AcDbEntity
  8
1
 62
4
100
AcDbPolyline
 90
2
 70
0
 43
29.9999924998363
 10
12541.32864414834
 20
915686.551374947
 10
12541.32864414834
 20
911486.55242497
  0
TEXT
  5
AA
330
17
100
AcDbEntity
  8
1
 62
4
 48
0.8
100
AcDbText
 10
11918.41893991249
 20
918486.551784518
 30
0.0
 40
269.9999325000001
  1
本文件产权属中国核电工程有限公司（CNPE）所有，未经书面许可，不得以任何方式复制、传播、发表和外传。
 41
0.7
100
AcDbText
  0
TEXT
  5
AB
330
17
100
AcDbEntity
  8
1
 62
4
 48
0.8
100
AcDbText
 10
11949.90111594906
 20
918012.488579016
 30
0.0
 40
269.9999325000001
  1
This document is the property of China Nuclear Power Engineering CO.,LTD (CNPE) , no part of this document may be reproduced 
 41
0.7
100
AcDbText
  0
TEXT
  5
AC
330
17
100
AcDbEntity
  8
1
 62
4
 48
0.8
100
AcDbText
 10
11949.90111594906
 20
917588.3218870373
 30
0.0
 40
269.9999325000001
  1
by any means , nor transmitted without the written  permission of CNPE .
 41
0.7
100
AcDbText
  0
TEXT
  5
AD
330
17
100
AcDbEntity
  8
PUB_TEXT
 62
4
100
AcDbText
 10
27055.44718185932
 20
916085.0473045254
 30
0.0
 40
799.9998000000002
  1
CNPE
 41
0.8916178034578528
 72
5
 11
29095.707299148
 21
916085.0473045254
 31
0.0
100
AcDbText
  0
TEXT
  5
AE
330
17
100
AcDbEntity
  8
1
 62
4
100
AcDbText
 10
15054.35425925886
 20
915958.1158075042
 30
0.0
 40
399.9999000000001
  1
China Nuclear Power Engineering Co., Ltd
 41
0.9904477144148538
 72
5
 11
26386.4012537415
 21
915958.1158075042
 31
0.0
100
AcDbText
  0
TEXT
  5
AF
330
17
100
AcDbEntity
  8
1
 62
4
100
AcDbText
 10
16233.23054817345
 20
916713.0981352584
 30
0.0
 40
399.9999000000001
  1
中 国 核 电 工 程 有 限 公 司
 41
1.015354228751786
 72
5
 11
24655.56340823582
 21
916713.0981352584
 31
0.0
100
AcDbText
  0
TEXT
  5
B0
330
17
100
AcDbEntity
  8
1
 62
4
100
AcDbText
 10
12639.86621788077
 20
914790.2515187882
 30
0.0
 40
239.9999400000001
  1
设计主持人
 41
0.8
100
AcDbText
  0
TEXT
  5
B1
330
17
100
AcDbEntity
  8
1
 62
4
100
AcDbText
 10
12672.38875505867
 20
914203.8064854475
 30
0.0
 40
239.9999400000001
  1
所负责人
 41
0.8
100
AcDbText
  0
TEXT
  5
B2
330
17
100
AcDbEntity
  8
1
 62
4
100
AcDbText
 10
12661.50026769124
 20
913600.951388406
 30
0.0
 40
239.9999400000001
  1
室负责人
 41
0.8
100
AcDbText
  0
TEXT
  5
B3
330
17
100
AcDbEntity
  8
1
 62
4
100
AcDbText
 10
12618.13691286164
 20
913010.5060609196
 30
0.0
 40
239.9999400000001
  1
工种负责人
 41
0.8
100
AcDbText
  0
TEXT
  5
B4
330
17
100
AcDbEntity
  8
1
 62
4
100
AcDbText
 10
12694.02280486914
 20
912365.9341587631
 30
0.0
 40
239.9999400000001
  1
校 对 者
 41
0.8
100
AcDbText
  0
TEXT
  5
B5
330
17
100
AcDbEntity
  8
1
 62
4
100
AcDbText
 10
12694.02280486914
 20
911780.9810463254
 30
0.0
 40
239.9999400000001
  1
设 计 者
 41
0.8
100
AcDbText
  0
TEXT
  5
B6
330
17
100
AcDbEntity
  8
1
 62
4
100
AcDbText
 10
11825.1233007985
 20
913352.3096170553
 30
0.0
 40
239.9999400000001
  1
审 核
 41
0.8
100
AcDbText
  0
TEXT
  5
B7
330
17
100
AcDbEntity
  8
1
 62
4
100
AcDbText
 10
11842.41268278685
 20
913064.4288920204
 30
0.0
 40
199.99995
  1
Rev.by
 41
0.8
100
AcDbText
  0
TEXT
  5
B8
330
17
100
AcDbEntity
  8
1
 62
4
100
AcDbText
 10
11801.55128333604
 20
914558.1983310384
 30
0.0
 40
239.9999400000001
  1
审 定
 41
0.8
100
AcDbText
  0
TEXT
  5
B9
330
17
100
AcDbEntity
  8
1
 62
4
100
AcDbText
 10
11773.85983279653
 20
914270.317606003
 30
0.0
 40
199.99995
  1
Auth.by
 41
0.8
100
AcDbText
  0
TEXT
  5
BA
330
17
100
AcDbEntity
  8
1
 62
4
100
AcDbText
 10
11805.61275995456
 20
915388.1230797314
 30
0.0
 40
239.9999400000001
  1
审 批
 41
0.8
100
AcDbText
  0
TEXT
  5
BB
330
17
100
AcDbEntity
  8
1
 62
4
100
AcDbText
 10
11807.7759183429
 20
915154.4639961323
 30
0.0
 40
199.99995
  1
App.by
 41
0.8
100
AcDbText
  0
TEXT
  5
BC
330
17
100
AcDbEntity
  8
1
 62
4
100
AcDbText
 10
11834.25299228708
 20
911795.9479406946
 30
0.0
 40
239.9999400000001
  1
设 计
 41
0.8
100
AcDbText
  0
TEXT
  5
BD
330
17
100
AcDbEntity
  8
1
 62
4
100
AcDbText
 10
11850.25517073114
 20
911550.5094971306
 30
0.0
 40
199.99995
  1
Des.by
 41
0.8
100
AcDbText
  0
TEXT
  5
BE
330
17
100
AcDbEntity
  8
1
 62
4
100
AcDbText
 10
11826.18882277355
 20
912389.346850234
 30
0.0
 40
239.9999400000001
  1
校 核
 41
0.8
100
AcDbText
  0
TEXT
  5
BF
330
17
100
AcDbEntity
  8
1
 62
4
100
AcDbText
 10
11835.42452187164
 20
912144.7043861191
 30
0.0
 40
199.99995
  1
Chk.by
 41
0.8
100
AcDbText
  0
TEXT
  5
C0
330
17
100
AcDbEntity
  8
1
 62
4
 48
0.8
100
AcDbText
 10
21362.73509842929
 20
915230.5301209086
 30
0.0
 40
249.9999375
  1
子项号
 41
0.8
100
AcDbText
  0
TEXT
  5
C1
330
17
100
AcDbEntity
  8
1
 62
4
100
AcDbText
 10
18251.30182560234
 20
914847.203093884
 30
0.0
 40
249.9999375
  1
Proj.
 41
0.8
100
AcDbText
  0
TEXT
  5
C2
330
17
100
AcDbEntity
  8
1
 62
4
100
AcDbText
 10
21408.19692412557
 20
914850.8584895538
 30
0.0
 40
249.9999375
  1
Item
 41
0.8
100
AcDbText
  0
TEXT
  5
C3
330
17
100
AcDbEntity
  8
1
 62
4
 48
0.8
100
AcDbText
 10
24534.12219370602
 20
915237.548639967
 30
0.0
 40
249.9999375
  1
图号
 41
0.8
100
AcDbText
  0
TEXT
  5
C4
330
17
100
AcDbEntity
  8
1
 62
4
100
AcDbText
 10
24556.00787872941
 20
914822.643273162
 30
0.0
 40
249.9999375
  1
No.
 41
0.8
100
AcDbText
  0
TEXT
  5
C5
330
17
100
AcDbEntity
  8
1
 62
4
100
AcDbText
 10
12684.18312280093
 20
914522.5100536284
 30
0.0
 40
199.99995
  1
Design Master
 41
0.8
100
AcDbText
  0
TEXT
  5
C6
330
17
100
AcDbEntity
  8
1
 62
4
100
AcDbText
 10
12746.94942718258
 20
911538.6898939818
 30
0.0
 40
199.99995
  1
Desiged
 41
0.8
100
AcDbText
  0
TEXT
  5
C7
330
17
100
AcDbEntity
  8
1
 62
4
100
AcDbText
 10
12751.14292317422
 20
912108.4943100408
 30
0.0
 40
199.99995
  1
Checked
 41
0.8
100
AcDbText
  0
TEXT
  5
C8
330
17
100
AcDbEntity
  8
1
 62
4
100
AcDbText
 10
12604.15629014306
 20
912745.1565692778
 30
0.0
 40
199.99995
  1
Pro. Manager
 41
0.8
100
AcDbText
  0
TEXT
  5
C9
330
17
100
AcDbEntity
  8
1
 62
4
100
AcDbText
 10
12583.76107674677
 20
913344.4180786218
 30
0.0
 40
199.99995
  1
Grp. Director
 41
0.8
100
AcDbText
  0
TEXT
  5
CA
330
17
100
AcDbEntity
  8
1
 62
4
100
AcDbText
 10
12603.32281712329
 20
913946.984294812
 30
0.0
 40
199.99995
  1
Dep. Director
 41
0.8
100
AcDbText
  0
TEXT
  5
CB
330
17
100
AcDbEntity
  8
1
 62
4
 48
0.8
100
AcDbText
 10
18183.27538203893
 20
915198.6915937628
 30
0.0
 40
249.9999375
  1
工程号
 41
0.8
100
AcDbText
  0
TEXT
  5
CC
330
17
100
AcDbEntity
  8
1
 62
4
100
AcDbText
 10
27260.66901486673
 20
921313.341323608
 30
0.0
 40
249.9999375
  1
版 次
 41
0.8
100
AcDbText
  0
TEXT
  5
CD
330
17
100
AcDbEntity
  8
1
 62
4
100
AcDbText
 10
27386.18633064328
 20
920953.4904173142
 30
0.0
 40
199.99995
  1
Rev.
 41
0.8
100
AcDbText
  0
TEXT
  5
CE
330
17
100
AcDbEntity
  8
0
 62
4
100
AcDbText
 10
16207.77588872638
 20
923593.3593492926
 30
0.0
 40
499.9998750000001
  1
巴基斯坦恰希玛核电厂五号机组
 41
0.8
100
AcDbText
  0
TEXT
  5
CF
330
17
100
AcDbEntity
  8
0
 62
4
100
AcDbText
 10
13012.88526754154
 20
922867.715221199
 30
0.0
 40
499.9998750000001
  1
PAKISTAN CHASHMA NUCLEAR POWER PROJECT UNIT-5
 41
0.8
100
AcDbText
  0
TEXT
  5
D0
330
17
100
AcDbEntity
  8
1
 62
4
100
AcDbText
 10
15319.62380664962
 20
924773.8944923487
 30
0.0
 40
287.9999280000001
  1
状态
 41
0.8
100
AcDbText
  0
TEXT
  5
D1
330
17
100
AcDbEntity
  8
1
 62
4
100
AcDbText
 10
11966.50613125999
 20
924752.2660311516
 30
0.0
 40
287.9999280000002
  1
版次
 41
0.8
100
AcDbText
  0
TEXT
  5
D2
330
17
100
AcDbEntity
  8
1
 62
4
100
AcDbText
 10
13511.20276305571
 20
924752.399136607
 30
0.0
 40
287.9999280000001
  1
日期 
 41
0.8
100
AcDbText
  0
TEXT
  5
D3
330
17
100
AcDbEntity
  8
1
 62
4
100
AcDbText
 10
19336.61153346233
 20
924758.0084853614
 30
0.0
 40
287.9999280000001
  1
修  改 - 说 明
 41
0.8
100
AcDbText
  0
TEXT
  5
D4
330
17
100
AcDbEntity
  8
1
 62
4
100
AcDbText
 10
15128.01985506274
 20
924377.6692628076
 30
0.0
 40
287.9999280000001
  1
Status
 41
0.8
100
AcDbText
  0
TEXT
  5
D5
330
17
100
AcDbEntity
  8
1
 62
4
100
AcDbText
 10
11966.50613125999
 20
924356.0408016106
 30
0.0
 40
287.9999280000002
  1
Rev.
 41
0.8
100
AcDbText
  0
TEXT
  5
D6
330
17
100
AcDbEntity
  8
1
 62
4
100
AcDbText
 10
13511.20276305571
 20
924350.0306119435
 30
0.0
 40
287.9999280000001
  1
Date
 41
0.8
100
AcDbText
  0
TEXT
  5
D7
330
17
100
AcDbEntity
  8
1
 62
4
100
AcDbText
 10
18836.1053932214
 20
924414.5023423692
 30
0.0
 40
287.9999280000001
  1
Modification Description
 41
0.8
100
AcDbText
  0
TEXT
  5
D8
330
17
100
AcDbEntity
  8
1
 62
4
100
AcDbText
 10
12763.17943614049
 20
915380.035346363
 30
0.0
 40
239.9999400000001
  1
审 批 者
 41
0.8
100
AcDbText
  0
TEXT
  5
D9
330
17
100
AcDbEntity
  8
1
 62
4
100
AcDbText
 10
12731.08674397066
 20
915120.474782241
 30
0.0
 40
199.99995
  1
Approved
 41
0.8
100
AcDbText
  0
TEXT
  5
DA
330
17
100
AcDbEntity
  8
TK
 62
4
100
AcDbText
 10
19685.46797950406
 20
915048.8311725775
 30
0.0
 40
299.9999250000001
  1
1818
 41
0.7
100
AcDbText
  0
TEXT
  5
DB
330
17
100
AcDbEntity
  8
0
 62
4
100
AcDbText
 10
15590.54400627574
 20
922014.0355304154
 30
0.0
 40
399.9999000000001
  1
5
 41
0.8
 11
15590.54400627574
 21
921933.588623153
 31
0.0
100
AcDbText
 73
1
  0
TEXT
  5
DC
330
17
100
AcDbEntity
  8
0
 62
4
100
AcDbText
 10
29130.70549302202
 20
921997.3635567568
 30
0.0
 40
399.9999000000001
  1
D
 41
0.8
 11
29130.70549302202
 21
921916.9166494942
 31
0.0
100
AcDbText
 73
1
  0
TEXT
  5
DD
330
17
100
AcDbEntity
  8
0
 62
4
100
AcDbText
 10
28187.44548919637
 20
921997.3635567568
 30
0.0
 40
399.9999000000001
  1
S
 41
0.8
 11
28187.44548919637
 21
921916.9166494942
 31
0.0
100
AcDbText
 73
1
  0
TEXT
  5
DE
330
17
100
AcDbEntity
  8
0
 62
4
100
AcDbText
 10
16390.54380627562
 20
922014.0355304154
 30
0.0
 40
399.9999000000001
  1
N
 41
0.8
 11
16390.54380627562
 21
921933.588623153
 31
0.0
100
AcDbText
 73
1
  0
TEXT
  5
DF
330
17
100
AcDbEntity
  8
0
 62
4
100
AcDbText
 10
17190.54360627596
 20
922014.0355304154
 30
0.0
 40
399.9999000000001
  1
X
 41
0.8
 11
17190.54360627596
 21
921933.588623153
 31
0.0
100
AcDbText
 73
1
  0
TEXT
  5
E0
330
17
100
AcDbEntity
  8
0
 62
4
100
AcDbText
 10
17990.54340627583
 20
922014.0355304154
 30
0.0
 40
399.9999000000001
  1
D
 41
0.8
 11
17990.54340627583
 21
921933.588623153
 31
0.0
100
AcDbText
 73
1
  0
TEXT
  5
E1
330
17
100
AcDbEntity
  8
0
 62
4
100
AcDbText
 10
18790.5432062757
 20
922014.0355304154
 30
0.0
 40
399.9999000000001
  1
3
 41
0.8
 11
18790.5432062757
 21
921933.588623153
 31
0.0
100
AcDbText
 73
1
  0
TEXT
  5
E2
330
17
100
AcDbEntity
  8
0
 62
4
100
AcDbText
 10
19590.54300627558
 20
922014.0355304154
 30
0.0
 40
399.9999000000001
  1
2
 41
0.8
 11
19590.54300627558
 21
921933.588623153
 31
0.0
100
AcDbText
 73
1
  0
TEXT
  5
E3
330
17
100
AcDbEntity
  8
0
 62
4
100
AcDbText
 10
20390.54280627592
 20
922014.0355304154
 30
0.0
 40
399.9999000000001
  1
0
 41
0.8
 11
20390.54280627592
 21
921933.588623153
 31
0.0
100
AcDbText
 73
1
  0
TEXT
  5
E4
330
17
100
AcDbEntity
  8
0
 62
4
100
AcDbText
 10
22790.54220627601
 20
922014.0355304154
 30
0.0
 40
399.9999000000001
  1
B
 41
0.8
 11
22790.54220627601
 21
921933.588623153
 31
0.0
100
AcDbText
 73
1
  0
TEXT
  5
E5
330
17
100
AcDbEntity
  8
0
 62
4
100
AcDbText
 10
23590.54200627588
 20
922014.0355304154
 30
0.0
 40
399.9999000000001
  1
2
 41
0.8
 11
23590.54200627588
 21
921933.588623153
 31
0.0
100
AcDbText
 73
1
  0
TEXT
  5
E6
330
17
100
AcDbEntity
  8
0
 62
4
100
AcDbText
 10
24390.54180627576
 20
922014.0355304154
 30
0.0
 40
399.9999000000001
  1
5
 41
0.8
 11
24390.54180627576
 21
921933.588623153
 31
0.0
100
AcDbText
 73
1
  0
TEXT
  5
E7
330
17
100
AcDbEntity
  8
0
 62
4
100
AcDbText
 10
25415.82437049671
 20
922014.0355304154
 30
0.0
 40
399.9999000000001
  1
C
 41
0.8
 11
25415.82437049671
 21
921933.588623153
 31
0.0
100
AcDbText
 73
1
  0
TEXT
  5
E8
330
17
100
AcDbEntity
  8
0
 62
4
100
AcDbText
 10
26335.4106536324
 20
922014.0355304154
 30
0.0
 40
399.9999000000001
  1
4
 41
0.8
 11
26335.4106536324
 21
921933.588623153
 31
0.0
100
AcDbText
 73
1
  0
TEXT
  5
E9
330
17
100
AcDbEntity
  8
0
 62
4
100
AcDbText
 10
27135.41045363227
 20
922014.0355304154
 30
0.0
 40
399.9999000000001
  1
2
 41
0.8
 11
27135.41045363227
 21
921933.588623153
 31
0.0
100
AcDbText
 73
1
  0
TEXT
  5
EA
330
17
100
AcDbEntity
  8
1
 62
4
100
AcDbText
 10
15234.26828620423
 20
925220.6757034892
 30
0.0
 40
359.99991
  1
CFC
 41
0.7
100
AcDbText
  0
TEXT
  5
EB
330
17
100
AcDbEntity
  8
1
 62
4
100
AcDbText
 10
12159.78280626217
 20
925199.0472422926
 30
0.0
 40
359.99991
  1
A
 41
0.7
100
AcDbText
  0
TEXT
  5
EC
330
17
100
AcDbEntity
  8
1
 62
4
100
AcDbText
 10
13219.61521926549
 20
925207.7093976134
 30
0.0
 40
359.99991
  1
2025.03
 41
0.7
100
AcDbText
  0
TEXT
  5
ED
330
17
100
AcDbEntity
  8
TK
 62
4
100
AcDbText
 10
23114.85608066738
 20
915048.8311725775
 30
0.0
 40
299.9999250000001
  1
NX
 41
0.7
100
AcDbText
  0
TEXT
  5
EE
330
17
100
AcDbEntity
  8
1
 62
4
100
AcDbText
 10
28814.97932783122
 20
911927.0441599432
 30
0.0
 40
249.9999375
  1
7
 41
0.8
100
AcDbText
  0
TEXT
  5
EF
330
17
100
AcDbEntity
  8
1
 62
4
100
AcDbText
 10
27320.23000391646
 20
911941.8140310826
 30
0.0
 40
249.9999375
  1
1
 41
0.8
100
AcDbText
  0
TEXT
  5
F0
330
17
100
AcDbEntity
  8
TK
 62
4
100
AcDbText
 10
28705.08574908579
 20
913529.5617902426
 30
0.0
 40
299.9999250000001
  1
结构
 41
0.8
100
AcDbText
  0
TEXT
  5
F1
330
17
100
AcDbEntity
  8
1
 62
4
100
AcDbText
 10
27581.30750461648
 20
911552.4978363034
 30
0.0
 40
249.9999375
  1
1
 41
0.8
100
AcDbText
  0
TEXT
  5
F2
330
17
100
AcDbEntity
  8
1
 62
4
100
AcDbText
 10
28218.45413061211
 20
911542.225340675
 30
0.0
 40
249.9999375
  1
7
 41
0.8
100
AcDbText
  0
TEXT
  5
F3
330
17
100
AcDbEntity
  8
1
 62
4
100
AcDbText
 10
28356.06073009063
 20
913236.7760828424
 30
0.0
 40
249.9999375
  1
Structure
 41
0.8
100
AcDbText
  0
TEXT
  5
F4
330
17
100
AcDbEntity
  8
1
 62
4
100
AcDbText
 10
20192.13928799171
 20
925195.459158094
 30
0.0
 40
359.99991
  1
初版 FIRST ISSUE
 41
0.7
100
AcDbText
  0
LINE
  5
F5
330
17
100
AcDbEntity
  8
1
 62
4
100
AcDbLine
 10
29741.32434426321
 20
911486.5524249672
 30
0.0
 11
11741.32884426302
 21
911486.5524249672
 31
0.0
  0
LINE
  5
F6
330
17
100
AcDbEntity
  8
图框
 62
4
100
AcDbLine
 10
29741.32434425716
 20
911486.5524249696
 30
0.0
 11
11741.32884020478
 21
911486.5524249686
 31
0.0
  0
LINE
  5
F7
330
17
100
AcDbEntity
  8
1
 62
4
100
AcDbLine
 10
29741.32434425576
 20
911486.5524249696
 30
0.0
 11
11741.32884425557
 21
911486.5524249696
 31
0.0
  0
LINE
  5
F8
330
17
100
AcDbEntity
  8
1
 62
4
100
AcDbLine
 10
29708.50913683165
 20
924822.4784539364
 30
0.0
 11
29708.50913683165
 21
924822.4784539364
 31
0.0
  0
LINE
  5
F9
330
17
100
AcDbEntity
  8
1
 62
4
100
AcDbLine
 10
29708.50913683165
 20
924822.4784539364
 30
0.0
 11
29708.50913683165
 21
924822.4784539364
 31
0.0
  0
LINE
  5
FA
330
17
100
AcDbEntity
  8
1
 62
4
100
AcDbLine
 10
29708.50913683165
 20
924822.4784539364
 30
0.0
 11
29708.50913683165
 21
924822.4784539364
 31
0.0
  0
LINE
  5
FB
330
17
100
AcDbEntity
  8
1
 62
4
100
AcDbLine
 10
29708.50913683165
 20
924822.4784539364
 30
0.0
 11
29708.50913683165
 21
924822.4784539364
 31
0.0
  0
LINE
  5
FC
330
17
100
AcDbEntity
  8
1
 62
4
100
AcDbLine
 10
29741.32434415751
 20
917492.0684016858
 30
0.0
 11
29741.32434415751
 21
924822.4784539364
 31
0.0
 39
49.99998750000001
  0
LINE
  5
FD
330
17
100
AcDbEntity
  8
图框
 62
4
100
AcDbLine
 10
29741.32434425716
 20
911486.5524249696
 30
0.0
 11
11741.32884020478
 21
911486.5524249686
 31
0.0
  0
LINE
  5
FE
330
17
100
AcDbEntity
  8
1
 62
4
100
AcDbLine
 10
29741.32434425716
 20
911486.5524249696
 30
0.0
 11
11741.32884426162
 21
911486.5524249696
 31
0.0
  0
TEXT
  5
FF
330
17
100
AcDbEntity
  8
TK
 62
3
100
AcDbText
 10
18026.20687892501
 20
913452.8108012796
 30
0.0
 40
299.9999250000001
  1
-12.5m(含-8.80m)标高二次钢结构施工图结构设计说明
 41
0.7
100
AcDbText
  0
LWPOLYLINE
  5
100
330
17
100
AcDbEntity
  8
ttkk
100
AcDbPolyline
 90
4
 70
1
 10
9241.328840098606
 20
907837.8162275938
 10
30241.32884009768
 20
907837.8162275938
 10
30241.32884009768
 20
878137.8162275938
 10
9241.328840098606
 20
878137.8162275938
  0
LWPOLYLINE
  5
101
330
17
100
AcDbEntity
  8
ttkk
100
AcDbPolyline
 90
4
 70
1
 10
30241.32884009768
 20
907837.8162275938
 10
51241.32884009721
 20
907837.8162275938
 10
51241.32884009721
 20
878137.8162275938
 10
30241.32884009768
 20
878137.8162275938
  0
LWPOLYLINE
  5
102
330
17
100
AcDbEntity
  8
ttkk
100
AcDbPolyline
 90
4
 70
1
 10
51241.32884009721
 20
907837.8162275938
 10
72241.32884009628
 20
907837.8162275938
 10
72241.32884009628
 20
878137.8162275938
 10
51241.32884009721
 20
878137.8162275938
  0
TEXT
  5
103
330
17
100
AcDbEntity
  8
0
100
AcDbText
 10
25455.65471108098
 20
906707.7105246969
 30
0.0
 40
300.0
  1
18185NX-JGS61-001(A)
 41
0.7
100
AcDbText
  0
TEXT
  5
104
330
17
100
AcDbEntity
  8
0
100
AcDbText
 10
26902.89788599059
 20
906164.643723376
 30
0.0
 40
300.0
  1
rolls 5 OF 7
 41
0.7
100
AcDbText
  0
TEXT
  5
105
330
17
100
AcDbEntity
  8
0
100
AcDbText
 10
46455.65471108005
 20
906707.7105246969
 30
0.0
 40
300.0
  1
18185NX-JGS61-001(A)
 41
0.7
100
AcDbText
  0
TEXT
  5
106
330
17
100
AcDbEntity
  8
0
100
AcDbText
 10
47902.89788598966
 20
906164.643723376
 30
0.0
 40
300.0
  1
rolls 6 OF 7
 41
0.7
100
AcDbText
  0
TEXT
  5
107
330
17
100
AcDbEntity
  8
0
100
AcDbText
 10
67455.65471107958
 20
906707.7105246969
 30
0.0
 40
300.0
  1
18185NX-JGS61-001(A)
 41
0.7
100
AcDbText
  0
TEXT
  5
108
330
17
100
AcDbEntity
  8
0
100
AcDbText
 10
68902.8978859892
 20
906164.643723376
 30
0.0
 40
300.0
  1
rolls 7 OF 7
 41
0.7
100
AcDbText
  0
ENDSEC
  0
SECTION
  2
OBJECTS
  0
DICTIONARY
  5
A
330
0
100
AcDbDictionary
280
0
281
1
  3
ACAD_COLOR
350
B
  3
ACAD_GROUP
350
C
  3
ACAD_LAYOUT
350
D
  3
ACAD_MATERIAL
350
E
  3
ACAD_MLEADERSTYLE
350
F
  3
ACAD_MLINESTYLE
350
10
  3
ACAD_PLOTSETTINGS
350
11
  3
ACAD_PLOTSTYLENAME
350
12
  3
ACAD_SCALELIST
350
14
  3
ACAD_TABLESTYLE
350
15
  3
ACAD_VISUALSTYLE
350
16
  3
EZDXF_META
350
2D
  0
DICTIONARY
  5
B
330
A
100
AcDbDictionary
280
0
281
1
  0
DICTIONARY
  5
C
330
A
100
AcDbDictionary
280
0
281
1
  0
DICTIONARY
  5
D
330
A
100
AcDbDictionary
280
0
281
1
  3
Model
350
1A
  3
Layout1
350
1E
  0
DICTIONARY
  5
E
330
A
100
AcDbDictionary
280
0
281
1
  3
ByBlock
350
1F
  3
ByLayer
350
20
  3
Global
350
21
  0
DICTIONARY
  5
F
330
A
100
AcDbDictionary
280
0
281
1
  3
Standard
350
2C
  0
DICTIONARY
  5
10
330
A
100
AcDbDictionary
280
0
281
1
  3
Standard
350
22
  0
DICTIONARY
  5
11
330
A
100
AcDbDictionary
280
0
281
1
  0
ACDBDICTIONARYWDFLT
  5
12
330
A
100
AcDbDictionary
280
0
281
1
  3
Normal
350
13
100
AcDbDictionaryWithDefault
340
13
  0
ACDBPLACEHOLDER
  5
13
330
12
  0
DICTIONARY
  5
14
330
A
100
AcDbDictionary
280
0
281
1
  0
DICTIONARY
  5
15
330
A
100
AcDbDictionary
280
0
281
1
  0
DICTIONARY
  5
16
330
A
100
AcDbDictionary
280
0
281
1
  0
LAYOUT
  5
1A
330
D
100
AcDbPlotSettings
  1

  4
A3
  6

 40
7.5
 41
20.0
 42
7.5
 43
20.0
 44
420.0
 45
297.0
 46
0.0
 47
0.0
 48
0.0
 49
0.0
140
0.0
141
0.0
142
1.0
143
1.0
 70
1024
 72
1
 73
0
 74
5
  7

 75
16
 76
0
 77
2
 78
300
147
1.0
148
0.0
149
0.0
100
AcDbLayout
  1
Model
 70
1
 71
0
 10
0.0
 20
0.0
 11
420.0
 21
297.0
 12
0.0
 22
0.0
 32
0.0
 14
1e+20
 24
1e+20
 34
1e+20
 15
-1e+20
 25
-1e+20
 35
-1e+20
146
0.0
 13
0.0
 23
0.0
 33
0.0
 16
1.0
 26
0.0
 36
0.0
 17
0.0
 27
1.0
 37
0.0
 76
1
330
17
  0
LAYOUT
  5
1E
330
D
100
AcDbPlotSettings
  1

  4
A3
  6

 40
7.5
 41
20.0
 42
7.5
 43
20.0
 44
420.0
 45
297.0
 46
0.0
 47
0.0
 48
0.0
 49
0.0
140
0.0
141
0.0
142
1.0
143
1.0
 70
0
 72
1
 73
0
 74
5
  7

 75
16
 76
0
 77
2
 78
300
147
1.0
148
0.0
149
0.0
100
AcDbLayout
  1
Layout1
 70
1
 71
1
 10
0.0
 20
0.0
 11
420.0
 21
297.0
 12
0.0
 22
0.0
 32
0.0
 14
1e+20
 24
1e+20
 34
1e+20
 15
-1e+20
 25
-1e+20
 35
-1e+20
146
0.0
 13
0.0
 23
0.0
 33
0.0
 16
1.0
 26
0.0
 36
0.0
 17
0.0
 27
1.0
 37
0.0
 76
1
330
1B
  0
MATERIAL
  5
1F
102
{ACAD_REACTORS
330
E
102
}
330
E
100
AcDbMaterial
  1
ByBlock
  2

 70
0
 40
1.0
 71
1
 41
1.0
 91
-1023410177
 42
1.0
 72
1
  3

 73
1
 74
1
 75
1
 44
0.5
 73
0
 45
1.0
 46
1.0
 77
1
  4

 78
1
 79
1
170
1
 48
1.0
171
1
  6

172
1
173
1
174
1
140
1.0
141
1.0
175
1
  7

176
1
177
1
178
1
143
1.0
179
1
  8

270
1
271
1
272
1
145
1.0
146
1.0
273
1
  9

274
1
275
1
276
1
 42
1.0
 72
1
  3

 73
1
 74
1
 75
1
 94
63
  0
MATERIAL
  5
20
102
{ACAD_REACTORS
330
E
102
}
330
E
100
AcDbMaterial
  1
ByLayer
  2

 70
0
 40
1.0
 71
1
 41
1.0
 91
-1023410177
 42
1.0
 72
1
  3

 73
1
 74
1
 75
1
 44
0.5
 73
0
 45
1.0
 46
1.0
 77
1
  4

 78
1
 79
1
170
1
 48
1.0
171
1
  6

172
1
173
1
174
1
140
1.0
141
1.0
175
1
  7

176
1
177
1
178
1
143
1.0
179
1
  8

270
1
271
1
272
1
145
1.0
146
1.0
273
1
  9

274
1
275
1
276
1
 42
1.0
 72
1
  3

 73
1
 74
1
 75
1
 94
63
  0
MATERIAL
  5
21
102
{ACAD_REACTORS
330
E
102
}
330
E
100
AcDbMaterial
  1
Global
  2

 70
0
 40
1.0
 71
1
 41
1.0
 91
-1023410177
 42
1.0
 72
1
  3

 73
1
 74
1
 75
1
 44
0.5
 73
0
 45
1.0
 46
1.0
 77
1
  4

 78
1
 79
1
170
1
 48
1.0
171
1
  6

172
1
173
1
174
1
140
1.0
141
1.0
175
1
  7

176
1
177
1
178
1
143
1.0
179
1
  8

270
1
271
1
272
1
145
1.0
146
1.0
273
1
  9

274
1
275
1
276
1
 42
1.0
 72
1
  3

 73
1
 74
1
 75
1
 94
63
  0
MLINESTYLE
  5
22
102
{ACAD_REACTORS
330
10
102
}
330
10
100
AcDbMlineStyle
  2
Standard
 70
0
  3

 62
256
 51
90.0
 52
90.0
 71
2
 49
0.5
 62
256
  6
BYLAYER
 49
-0.5
 62
256
  6
BYLAYER
  0
MLEADERSTYLE
  5
2C
102
{ACAD_REACTORS
330
F
102
}
330
F
100
AcDbMLeaderStyle
179
2
170
2
171
1
172
0
 90
2
 40
0.0
 41
0.0
173
1
 91
-1056964608
 92
-2
290
1
 42
2.0
291
1
 43
8.0
  3
Standard
 44
4.0
300

342
29
174
1
175
1
176
0
178
1
 93
-1056964608
 45
4.0
292
0
297
0
 46
4.0
 94
-1056964608
 47
1.0
 49
1.0
140
1.0
294
1
141
0.0
177
0
142
1.0
295
0
296
0
143
3.75
271
0
272
9
273
9
  0
DICTIONARY
  5
2D
330
A
100
AcDbDictionary
281
1
  3
CREATED_BY_EZDXF
350
2E
  3
WRITTEN_BY_EZDXF
350
10B
  0
DICTIONARYVAR
  5
2E
330
2D
100
DictionaryVariables
280
0
  1
1.4.1 @ 2026-02-10T09:58:12.708052+00:00
  0
DICTIONARYVAR
  5
10B
330
2D
100
DictionaryVariables
280
0
  1
1.4.1 @ 2026-02-10T09:58:14.048738+00:00
  0
ENDSEC
  0
EOF
